<svg xmlns="http://www.w3.org/2000/svg" xmlns:xlink="http://www.w3.org/1999/xlink" viewBox="0 0 498.24 421.17"><defs><style>.cls-1{isolation:isolate;}.cls-2{fill:#d7eff9;}.cls-24,.cls-3,.cls-50{fill:#fff;}.cls-4{fill:#171e26;}.cls-5{fill:#4d355d;}.cls-6{fill:#2481d3;}.cls-7{fill:#0e4c7a;}.cls-8{fill:#eeb399;}.cls-9{fill:#cc957f;}.cls-10{fill:#f97f40;}.cls-11{fill:#8edaf6;}.cls-12{fill:#bbeafd;}.cls-13{fill:#dcf7ff;}.cls-14{fill:#faaf41;}.cls-15{fill:#bcbec0;mix-blend-mode:multiply;}.cls-16{fill:#1f74c2;}.cls-17{fill:#0d4772;}.cls-18{fill:#af374e;}.cls-19{fill:#0a3759;}.cls-20{fill:#06263a;}.cls-21{fill:#e54c64;}.cls-22{fill:#8e263a;}.cls-23{fill:#441f04;}.cls-24{opacity:0.6;}.cls-25{fill:#3d2b4f;}.cls-26{fill:url(#linear-gradient);}.cls-27{fill:url(#linear-gradient-2);}.cls-28{fill:url(#linear-gradient-3);}.cls-29{fill:url(#linear-gradient-4);}.cls-30{fill:url(#linear-gradient-5);}.cls-31{fill:url(#New_Gradient_Swatch_41);}.cls-32{fill:url(#New_Gradient_Swatch_41-2);}.cls-33{fill:url(#New_Gradient_Swatch_41-3);}.cls-34{fill:url(#New_Gradient_Swatch_41-4);}.cls-35{fill:url(#New_Gradient_Swatch_41-5);}.cls-36{fill:url(#New_Gradient_Swatch_41-6);}.cls-37{fill:url(#New_Gradient_Swatch_41-7);}.cls-38{fill:url(#New_Gradient_Swatch_41-8);}.cls-39{fill:url(#New_Gradient_Swatch_41-9);}.cls-40{fill:url(#New_Gradient_Swatch_41-10);}.cls-41{fill:url(#New_Gradient_Swatch_41-11);}.cls-42{fill:url(#New_Gradient_Swatch_41-12);}.cls-43{fill:url(#New_Gradient_Swatch_41-13);}.cls-44{fill:url(#New_Gradient_Swatch_41-14);}.cls-45{fill:url(#New_Gradient_Swatch_41-15);}.cls-46{fill:url(#New_Gradient_Swatch_41-16);}.cls-47,.cls-50{mix-blend-mode:soft-light;}.cls-48{fill:url(#linear-gradient-6);}.cls-49{fill:url(#linear-gradient-7);}.cls-51{fill:url(#linear-gradient-8);}</style><linearGradient id="linear-gradient" x1="309.24" y1="349.37" x2="241.1" y2="455.87" gradientUnits="userSpaceOnUse"><stop offset="0" stop-color="#53d8ff"/><stop offset="1" stop-color="#3840f7"/></linearGradient><linearGradient id="linear-gradient-2" x1="279.88" y1="387.02" x2="255.4" y2="454.35" gradientUnits="userSpaceOnUse"><stop offset="0" stop-color="#fdf53f"/><stop offset="1" stop-color="#d93c65"/></linearGradient><linearGradient id="linear-gradient-3" x1="324.37" y1="384.05" x2="274.91" y2="440.89" xlink:href="#linear-gradient-2"/><linearGradient id="linear-gradient-4" x1="313.29" y1="371.48" x2="252.36" y2="434.97" xlink:href="#linear-gradient-2"/><linearGradient id="linear-gradient-5" x1="229.28" y1="391.28" x2="193.4" y2="444.93" xlink:href="#linear-gradient-2"/><linearGradient id="New_Gradient_Swatch_41" x1="555.87" y1="989.93" x2="558.25" y2="1013.49" gradientTransform="translate(-503.06 -384) rotate(-16.67)" gradientUnits="userSpaceOnUse"><stop offset="0" stop-color="#41a362"/><stop offset="1" stop-color="#204f2e"/></linearGradient><linearGradient id="New_Gradient_Swatch_41-2" x1="551.28" y1="955.36" x2="542.18" y2="988.83" xlink:href="#New_Gradient_Swatch_41"/><linearGradient id="New_Gradient_Swatch_41-3" x1="553.81" y1="970.82" x2="580.86" y2="1028.19" xlink:href="#New_Gradient_Swatch_41"/><linearGradient id="New_Gradient_Swatch_41-4" x1="554.36" y1="996.75" x2="537.4" y2="980.19" xlink:href="#New_Gradient_Swatch_41"/><linearGradient id="New_Gradient_Swatch_41-5" x1="570.49" y1="976.52" x2="543.84" y2="997.09" xlink:href="#New_Gradient_Swatch_41"/><linearGradient id="New_Gradient_Swatch_41-6" x1="529.36" y1="1650.9" x2="506.67" y2="1677.13" gradientTransform="translate(-927.36 -819.6) rotate(-27.76)" xlink:href="#New_Gradient_Swatch_41"/><linearGradient id="New_Gradient_Swatch_41-7" x1="535.4" y1="968.31" x2="564.37" y2="1001.18" xlink:href="#New_Gradient_Swatch_41"/><linearGradient id="New_Gradient_Swatch_41-8" x1="563.09" y1="986.87" x2="577.09" y2="1049.61" xlink:href="#New_Gradient_Swatch_41"/><linearGradient id="New_Gradient_Swatch_41-9" x1="561.41" y1="979.16" x2="537.75" y2="1005.37" xlink:href="#New_Gradient_Swatch_41"/><linearGradient id="New_Gradient_Swatch_41-10" x1="491.52" y1="1675.08" x2="491.18" y2="1696.28" gradientTransform="translate(-927.36 -819.6) rotate(-27.76)" xlink:href="#New_Gradient_Swatch_41"/><linearGradient id="New_Gradient_Swatch_41-11" x1="-2208.16" y1="3445.21" x2="-2229.91" y2="3504.79" gradientTransform="translate(-3050.87 2884.68) rotate(-159.37)" xlink:href="#New_Gradient_Swatch_41"/><linearGradient id="New_Gradient_Swatch_41-12" x1="-2201.36" y1="3443.53" x2="-2228.33" y2="3517.43" gradientTransform="translate(-3050.87 2884.68) rotate(-159.37)" xlink:href="#New_Gradient_Swatch_41"/><linearGradient id="New_Gradient_Swatch_41-13" x1="-2221.68" y1="3437.15" x2="-2246.77" y2="3505.9" gradientTransform="translate(-3050.87 2884.68) rotate(-159.37)" xlink:href="#New_Gradient_Swatch_41"/><linearGradient id="New_Gradient_Swatch_41-14" x1="-2391.2" y1="3413.62" x2="-2391.2" y2="3459.74" gradientTransform="matrix(-0.95, -0.3, 0.3, -0.95, -3094.73, 2958.6)" xlink:href="#New_Gradient_Swatch_41"/><linearGradient id="New_Gradient_Swatch_41-15" x1="-1925.15" y1="3508.94" x2="-1887.9" y2="3508.94" gradientTransform="translate(-2973.04 2765.36) rotate(-154.59)" xlink:href="#New_Gradient_Swatch_41"/><linearGradient id="New_Gradient_Swatch_41-16" x1="1816.49" y1="1475.32" x2="1792.89" y2="1498.92" gradientTransform="matrix(0.84, -0.54, -0.54, -0.84, -486.66, 2606.67)" xlink:href="#New_Gradient_Swatch_41"/><linearGradient id="linear-gradient-6" x1="263.6" y1="385.65" x2="229.98" y2="438.21" xlink:href="#linear-gradient-2"/><linearGradient id="linear-gradient-7" x1="238.18" y1="408.53" x2="269.35" y2="408.53" gradientUnits="userSpaceOnUse"><stop offset="0" stop-color="#a737d5"/><stop offset="1" stop-color="#ef497a"/></linearGradient><linearGradient id="linear-gradient-8" x1="267.77" y1="402.71" x2="285.61" y2="571.59" xlink:href="#linear-gradient"/></defs><title>searchIll</title><g class="cls-1"><g id="Objects"><path class="cls-2" d="M469.18,212.23c-11.71-31.84-35.18-58.36-68.44-67.74-15.94-4.5-32.58-5.73-49-7.43-25.9-2.68-52.62-6.93-74.33-21.34-8.08-5.36-10.5-12.83-20.43-18.25a175.14,175.14,0,0,0-26.23-12.15c-30.13-10.46-63.86-7.62-93.62,3.86s-55.84,31.1-78.49,53.6c-19.55,19.43-37.1,41.62-46.78,67.46-6,16.11-8.87,33.3-9.76,50.5C-.14,303.3,9.77,346.6,31.38,383.29s55,66.52,94.36,82.62c21.07,8.63,43.54,13.33,66,16.76,22.17,3.39,44.58,5.61,67,4.93a276.54,276.54,0,0,0,77.94-13.89A236.86,236.86,0,0,0,385,452a199.58,199.58,0,0,0,84.23-239.81Z" transform="translate(-1.76 -78.83)"/><path class="cls-2" d="M482.59,130.33a15.12,15.12,0,0,0,6.17-1c3.92-1.81,5.52-6.52,6.22-10.8.9-5.45.93-11.32-1.71-16.17A16,16,0,0,0,463.53,113a10.49,10.49,0,0,0-19.64,3.06c-5.27-.8-10.9-5.77-15.1-2.48-2.52,2-2.63,6-5.09,8.09-5.35,4.51-12.79-3.51-18.12,0-9.48,6.28,1.65,9.84,6.83,10C435.56,132.65,459.38,130.65,482.59,130.33Z" transform="translate(-1.76 -78.83)"/><path class="cls-3" d="M145.4,157.54c5.45.54,11.35,1.08,16-1.75s6.65-10.54,2.18-13.73c-2.53-1.8-6.12-1.42-8.83.11s-4.74,4-6.7,6.42c-1.77-3.73-4.2-7.48-8-9.06s-9.14.16-10,4.2c-1.16-5.36-2.38-10.85-5.28-15.51s-7.87-8.41-13.34-8.32-10.83,5.13-10,10.55c-3.11-4.18-9.45-4.93-14.15-2.71s-7.93,6.79-10,11.59C70.28,156.1,85.24,155.18,96.17,155A444.83,444.83,0,0,1,145.4,157.54Z" transform="translate(-1.76 -78.83)"/><path class="cls-4" d="M91.65,354a509.38,509.38,0,0,0-10.37,51.24c-4,27.56,9.62,71.44,9.62,71.44s16.66,4.52,26.22-1.19c0,0-18.8-74.05,0-112.36,0,0,23.85,34.24,30.89,42.11,11.85,13.28,54.58,33.45,54.58,33.45s9-12.17,7.08-25.32c0,0-45.59-13.39-61.66-61.55,0,0-5.81-27.81-20.06-32.55Z" transform="translate(-1.76 -78.83)"/><path class="cls-4" d="M90.9,476.69l-9.21,7.5s22,4.5,38.31-.84l-2.88-7.85Z" transform="translate(-1.76 -78.83)"/><path class="cls-4" d="M202.59,438.7l5.82,11.82s9.79-19.15,9.61-36.19l-8.35-.95Z" transform="translate(-1.76 -78.83)"/><path class="cls-5" d="M28.5,272c.85,4.23,1.16,8.79-.63,12.71s-5.74,7.08-6.65,11.42c-1.11,5.3,2.62,10.51,2.41,15.92-.06,1.41-.37,2.9.25,4.16a6.12,6.12,0,0,0,2,2.06c3.92,2.94,8.45,6.05,13.28,5.22,2.9-.5,5.72-2.42,8.57-1.68a14.67,14.67,0,0,1,2.94,1.4c4.6,2.42,11,1.86,14.08-2.36,1.54-2.12,2-4.83,3.36-7.1,1.55-2.66,4.14-4.57,5.79-7.17,1.93-3,2.4-6.77,2.56-10.37.15-3.44,0-7-1.27-10.15-2.33-5.65-8-9.22-10.94-14.58-3.95-7.23-2.48-16.92-7.79-23.21-6.06-7.16-17.83-6.17-25.21-1.72C22.65,251.7,27,264.28,28.5,272Z" transform="translate(-1.76 -78.83)"/><path class="cls-6" d="M115.42,271.47l-29.58-4.62a9.75,9.75,0,0,0-3,19.27l38,5.93a9.74,9.74,0,0,0,10.81-6.83l9.65-32.31-18.63-5.6Z" transform="translate(-1.76 -78.83)"/><path class="cls-7" d="M88.56,267.27l-2.72-.42a9.75,9.75,0,0,0-3,19.27L109,290.2C100.52,282.67,91.9,271.68,88.56,267.27Z" transform="translate(-1.76 -78.83)"/><path class="cls-6" d="M93.51,271.53a20,20,0,0,1,3.25,5.29,95.43,95.43,0,0,0,14.31,22.94,71.75,71.75,0,0,0,14.81,12.9c3.39,2.26,6.46,4.25,6.08,8.78-.76,9-11.18,18.87-17.64,24.1-4.12,3.33-18.37,13.78-24.64,9.23-2-1.48-3.2-7.44-4.39-9.77a69.65,69.65,0,0,0-5.58-9.17,68.66,68.66,0,0,0-14.47-14.76c-7.8-5.85-17.29-9.46-19.1-19.87-1.83-10.58,5.45-19.53,13.35-25.57s19-11.78,29-7.55A13.8,13.8,0,0,1,93.51,271.53Z" transform="translate(-1.76 -78.83)"/><path class="cls-7" d="M102.5,323.3,99,320.87l-5.9,4.55C71.86,315,64.85,297.21,64.85,297.21L56,314.75c3,2.12,6.26,4.05,9.28,6.32a68.66,68.66,0,0,1,14.47,14.76,70.61,70.61,0,0,1,4.71,7.52C90.8,333.91,102.5,323.3,102.5,323.3Z" transform="translate(-1.76 -78.83)"/><path class="cls-7" d="M62.26,297.05l-13.4,6.71L48,306.5c3.51,6.48,10.76,9.75,17,14.37C61.93,310.25,62.26,298.35,62.26,297.05Z" transform="translate(-1.76 -78.83)"/><path class="cls-8" d="M59.6,266.68l7.11,7.38s3.36,3.59-2.25,8.65a7.62,7.62,0,0,1-10.6.31L42.05,270.75Z" transform="translate(-1.76 -78.83)"/><path class="cls-9" d="M49.53,275.46l12.65-6.1L66,273.29C59.93,277.75,49.53,275.46,49.53,275.46Z" transform="translate(-1.76 -78.83)"/><path class="cls-8" d="M60.67,274.33l5.06-4.9A11,11,0,0,0,66,253.94l-13.5-14A10.94,10.94,0,0,0,37,239.66L32,244.55A11,11,0,0,0,31.72,260l13.51,14A10.94,10.94,0,0,0,60.67,274.33Z" transform="translate(-1.76 -78.83)"/><path class="cls-5" d="M57.39,243.92S52,245.27,45.83,241c0,0,4.17,13.71-6.41,27.06,0,0-21.23-11-5.64-26.7C33.78,241.33,45.27,228.08,57.39,243.92Z" transform="translate(-1.76 -78.83)"/><path class="cls-8" d="M38.26,271.69a3.54,3.54,0,1,0,.09-5A3.53,3.53,0,0,0,38.26,271.69Z" transform="translate(-1.76 -78.83)"/><path class="cls-6" d="M116.56,362a.35.35,0,0,1-.19-.06c-7.85-5.93-10.07-17.65-10.09-17.77a.33.33,0,0,1,.26-.38.31.31,0,0,1,.37.26c0,.12,2.06,10.82,9.08,16.76-.82-3.16-3.12-13.25-.89-19.72a.32.32,0,0,1,.41-.19.32.32,0,0,1,.2.41c-2.55,7.38,1.13,20.15,1.16,20.28a.34.34,0,0,1-.12.36A.41.41,0,0,1,116.56,362Z" transform="translate(-1.76 -78.83)"/><path class="cls-6" d="M104.85,365.84a.33.33,0,0,1-.28-.16.32.32,0,0,1,.13-.44c.42-.24,10.36-5.67,16.91-3.23a.33.33,0,0,1,.19.42.32.32,0,0,1-.41.19c-6.27-2.35-16.28,3.13-16.38,3.18A.29.29,0,0,1,104.85,365.84Z" transform="translate(-1.76 -78.83)"/><path class="cls-10" d="M359.21,472.36,338.66,271.13a17.84,17.84,0,0,0-17.73-16H291.5l-2.31-12.42H249.28l-5.76,12.42H109A15.92,15.92,0,0,0,93.2,272.4l17.44,200.12a12.75,12.75,0,0,0,12.7,11.67H348.55A10.73,10.73,0,0,0,359.21,472.36Z" transform="translate(-1.76 -78.83)"/><polygon class="cls-11" points="122.23 384.5 100.74 189.49 357.51 176.56 343.38 384.5 122.23 384.5"/><polygon class="cls-12" points="122.23 397.43 112.8 198.11 366.1 189.49 361.81 383.42 122.23 397.43"/><path class="cls-13" d="M127.21,441.72c.51-1.37,0-147.54,0-147.54H392.57L355,462.25Z" transform="translate(-1.76 -78.83)"/><path class="cls-14" d="M429.55,300.89l-62.8,170.39a23.4,23.4,0,0,1-21.95,15.33H124.15a9.61,9.61,0,0,1-9-13L179.91,302a23.38,23.38,0,0,1,21.88-15.16h218A10.44,10.44,0,0,1,429.55,300.89Z" transform="translate(-1.76 -78.83)"/><path class="cls-15" d="M250.11,352.59s47.17,7.16,80.89-34.88c0,0,27.32,24.06,54.24,23.08l22.65,18.87,8.81-25.1-97.5-35.32S301.87,340.75,250.11,352.59Z" transform="translate(-1.76 -78.83)"/><path class="cls-6" d="M86.6,307.87l-15,12.59-6.74-23.25a9.69,9.69,0,1,0-18.61,5.42l10.88,37.54a9.68,9.68,0,0,0,15.52,4.74L99,322.78C96.51,314.58,86.6,307.87,86.6,307.87Z" transform="translate(-1.76 -78.83)"/><path class="cls-8" d="M102.88,319.73a7.31,7.31,0,0,0,1.87-3,2.6,2.6,0,0,0-1.28-3c-.58-.22-1.3-.17-1.73-.62s-.29-1.48-.38-2.25a3,3,0,0,0-3.12-2.37,2.33,2.33,0,0,1-1.39-.15c-.88-.57-.35-2.23-1.24-2.78-.68-.43-1.66.18-2.35-.22-.38-.23-.55-.68-.86-1a1.86,1.86,0,0,0-2.06-.19,5.48,5.48,0,0,0-1.65,1.43l-2.28,2.59a5.56,5.56,0,0,0-1.14,1.68c-.49,1.38.21,2.88.94,4.15a23.21,23.21,0,0,0,5.19,6.56,11.6,11.6,0,0,0,6.35,2.77C99.86,323.43,101.59,321.2,102.88,319.73Z" transform="translate(-1.76 -78.83)"/><path class="cls-8" d="M132.15,243.72c-3.52-.67-6-.64-8.86,1.79a12.6,12.6,0,0,0-4.06,7,6,6,0,0,0,.11,3.37,2.76,2.76,0,0,0,2.59,1.85c1.47-.11,2.36-1.64,3-3a2.84,2.84,0,0,0,3,3,4.42,4.42,0,0,0,3.61-2.79,1.88,1.88,0,0,0,1.83,2.39,2.8,2.8,0,0,0,2.44-2.25c-.28,1.35,1.26,2.57,2.63,2.36a4.23,4.23,0,0,0,3-2.64,6.91,6.91,0,0,0,.42-4.67,8,8,0,0,0-3.87-4.53A18.73,18.73,0,0,0,132.15,243.72Z" transform="translate(-1.76 -78.83)"/><polygon class="cls-16" points="409.16 79.07 338.4 99.71 354.91 104.9 409.16 79.07"/><polygon class="cls-17" points="354.91 104.9 359.56 117.58 409.16 79.07 354.91 104.9"/><polygon class="cls-16" points="356.17 105.59 409.16 79.07 383.55 109.83 356.17 105.59"/><path class="cls-16" d="M237.43,274.68a.49.49,0,0,1-.37-.18l0-.05h0a.5.5,0,0,1-.1-.31.48.48,0,0,1,.86-.3h0l0,0a.49.49,0,0,1-.08.68A.47.47,0,0,1,237.43,274.68ZM235.49,272a.51.51,0,0,1-.42-.21c-.59-.91-1.16-1.85-1.67-2.81a.44.44,0,0,1-.07-.24.5.5,0,0,1,.25-.43.5.5,0,0,1,.66.2c.5.91,1,1.83,1.62,2.72l0,0h0a.42.42,0,0,1,.08.26.49.49,0,0,1-.21.4A.5.5,0,0,1,235.49,272Zm-3.08-5.69A.49.49,0,0,1,232,266c-.43-1-.83-2-1.17-3h0a.77.77,0,0,1,0-.15.5.5,0,0,1,.33-.47.47.47,0,0,1,.61.31c.34,1,.72,2,1.13,2.95,0,0,0,0,0,0h0a.35.35,0,0,1,0,.17.51.51,0,0,1-.29.46A.63.63,0,0,1,232.41,266.31Zm-2.08-6.12a.48.48,0,0,1-.47-.37c-.27-1.07-.51-2.15-.68-3.2a.34.34,0,0,1,0-.1.47.47,0,0,1,.4-.46.48.48,0,0,1,.56.39c.18,1,.41,2.09.67,3.13a.57.57,0,0,1,0,.13.48.48,0,0,1-.36.47Zm-1.11-6.38a.47.47,0,0,1-.48-.43c-.11-1.07-.18-2.16-.22-3.27v0a.49.49,0,0,1,.47-.48h0a.48.48,0,0,1,.48.48c0,1.06.1,2.13.21,3.18v.06a.48.48,0,0,1-.44.48Zm-.2-6.47h0a.48.48,0,0,1-.47-.48v0c0-1.06.12-2.16.23-3.27a.48.48,0,0,1,.53-.43.49.49,0,0,1,.43.49v0c-.1,1.07-.18,2.14-.22,3.2A.48.48,0,0,1,229,247.34Zm.65-6.44h-.08a.5.5,0,0,1-.41-.49.15.15,0,0,1,0-.07q.27-1.62.63-3.21v0a.48.48,0,0,1,.95.14.25.25,0,0,1,0,.09c-.24,1-.45,2.11-.63,3.16A.47.47,0,0,1,229.67,240.9Zm1.45-6.31a.36.36,0,0,1-.14,0,.47.47,0,0,1-.34-.46.81.81,0,0,1,0-.15c.32-1.05.66-2.09,1-3.1a.49.49,0,0,1,.62-.28.48.48,0,0,1,.31.46.88.88,0,0,1,0,.16c-.37,1-.7,2-1,3.05A.49.49,0,0,1,231.12,234.59Zm2.22-6.08a.63.63,0,0,1-.19,0,.52.52,0,0,1-.29-.46.47.47,0,0,1,0-.17h0s0,0,0-.05c.43-1,.9-1.95,1.39-2.9a.5.5,0,0,1,.65-.22.48.48,0,0,1,.26.42.52.52,0,0,1-.05.24c-.49,1-1,1.93-1.38,2.89A.47.47,0,0,1,233.34,228.51Zm3-5.75a.45.45,0,0,1-.25-.07.47.47,0,0,1-.24-.41.38.38,0,0,1,.08-.25l.11-.19c.54-.9,1.09-1.75,1.64-2.56a.49.49,0,0,1,.89.28.43.43,0,0,1-.09.26c-.58.87-1.12,1.7-1.61,2.52l-.07.1-.05.09A.45.45,0,0,1,236.32,222.76Zm3.63-5.35a.47.47,0,0,1-.28-.09.48.48,0,0,1-.2-.4.45.45,0,0,1,.11-.28c.62-.83,1.31-1.68,2-2.54a.5.5,0,0,1,.68-.06.49.49,0,0,1,.17.38.55.55,0,0,1-.11.31c-.69.81-1.36,1.64-2,2.47,0,0,0,0,0,0h0A.46.46,0,0,1,240,217.41Zm4.2-4.92a.45.45,0,0,1-.33-.14.44.44,0,0,1-.16-.35.53.53,0,0,1,.13-.34c.73-.76,1.5-1.55,2.29-2.3a.48.48,0,0,1,.82.35.52.52,0,0,1-.14.34c-.76.72-1.51,1.49-2.26,2.29A.51.51,0,0,1,244.15,212.49Zm77.06-2.32c-.58,0-1.1,0-1.63,0h0a.48.48,0,0,1-.46-.48v0a.5.5,0,0,1,.5-.47c1.06,0,2.13,0,3.2,0h0a.49.49,0,0,1,0,1h0C322.32,210.16,321.77,210.17,321.21,210.17Zm4.84-.21a.47.47,0,0,1-.48-.44v-.05A.46.46,0,0,1,326,209c1.08-.09,2.16-.22,3.18-.35a.48.48,0,0,1,.55.41s0,0,0,.08a.49.49,0,0,1-.42.47c-1.09.15-2.18.27-3.24.35Zm-9.68,0h0c-1.12-.09-2.2-.2-3.25-.35a.49.49,0,0,1-.41-.48v-.07a.49.49,0,0,1,.55-.42c1,.14,2.13.27,3.17.35a.49.49,0,0,1,.45.48v.05A.48.48,0,0,1,316.37,210Zm16.08-.88a.48.48,0,0,1-.48-.39.34.34,0,0,1,0-.1.49.49,0,0,1,.4-.47q1.56-.3,3.12-.69a.48.48,0,0,1,.59.35s0,.08,0,.11a.49.49,0,0,1-.37.47c-1.06.28-2.13.52-3.18.72Zm-22.47,0h-.1q-1.58-.31-3.18-.72a.5.5,0,0,1-.36-.48.53.53,0,0,1,0-.12.49.49,0,0,1,.6-.35q1.59.41,3.12.72a.48.48,0,0,1,.39.47.34.34,0,0,1,0,.1A.49.49,0,0,1,310,209.07ZM248.79,208a.46.46,0,0,1-.36-.17.52.52,0,0,1-.12-.33.48.48,0,0,1,.17-.36c.79-.7,1.63-1.41,2.48-2.09a.49.49,0,0,1,.68.07.51.51,0,0,1,.11.31.47.47,0,0,1-.19.37c-.85.7-1.68,1.4-2.45,2.07A.48.48,0,0,1,248.79,208Zm89.92-.5a.48.48,0,0,1-.47-.34.61.61,0,0,1,0-.15.46.46,0,0,1,.34-.45c1.05-.33,2.06-.68,3-1v0a.51.51,0,0,1,.63.29.51.51,0,0,1,0,.17.5.5,0,0,1-.32.46c-1,.38-2.05.74-3.08,1.06Zm-35-.05-.15,0c-1-.34-2.06-.71-3.06-1.1a.5.5,0,0,1-.31-.45.62.62,0,0,1,0-.18.5.5,0,0,1,.63-.29c1,.4,2,.77,3,1.09a.5.5,0,0,1,.34.47.59.59,0,0,1,0,.13A.49.49,0,0,1,303.72,207.45Zm41-2.23a.51.51,0,0,1-.46-.29.52.52,0,0,1,0-.18.47.47,0,0,1,.27-.44v0h0c1-.43,1.92-.89,2.85-1.37a.51.51,0,0,1,.66.21.45.45,0,0,1,0,.23.48.48,0,0,1-.25.42c-1,.49-1.95,1-2.94,1.42Zm-47.06-.14a.43.43,0,0,1-.19,0c-1-.46-2-.95-2.92-1.47a.48.48,0,0,1-.25-.43.6.6,0,0,1,.06-.23.49.49,0,0,1,.66-.19c.95.51,1.92,1,2.85,1.44a.49.49,0,0,1,.29.43.59.59,0,0,1-.05.22A.48.48,0,0,1,297.7,205.08Zm-43.88-1.14a.48.48,0,0,1-.39-.21.55.55,0,0,1-.09-.28.46.46,0,0,1,.2-.39c.88-.66,1.79-1.29,2.65-1.89a.51.51,0,0,1,.67.13.45.45,0,0,1,.08.27.49.49,0,0,1-.2.4c-.89.61-1.77,1.24-2.62,1.87A.47.47,0,0,1,253.82,203.94Zm96.67-1.69a.48.48,0,0,1-.42-.23.47.47,0,0,1-.07-.25.49.49,0,0,1,.24-.42c.9-.53,1.8-1.11,2.7-1.72a.49.49,0,0,1,.67.13.42.42,0,0,1,.08.26.5.5,0,0,1-.19.4,0,0,0,0,0,0,0l0,0c-.88.6-1.78,1.18-2.69,1.72h0A.5.5,0,0,1,350.49,202.25ZM292,202a.59.59,0,0,1-.26-.07l0,0v0s0,0,0,0c-.93-.58-1.83-1.18-2.67-1.8a.47.47,0,0,1-.21-.39.46.46,0,0,1,.11-.29.49.49,0,0,1,.67-.11c.83.61,1.72,1.2,2.62,1.77h0a.52.52,0,0,1,.23.44.45.45,0,0,1-.07.25A.49.49,0,0,1,292,202Zm-32.87-1.7a.45.45,0,0,1-.48-.48.48.48,0,0,1,.22-.41c.93-.58,1.87-1.15,2.78-1.68a.51.51,0,0,1,.67.19.49.49,0,0,1,.06.25.47.47,0,0,1-.24.41c-1,.56-1.87,1.11-2.75,1.66A.58.58,0,0,1,259.17,200.29Zm96.65-1.69a.53.53,0,0,1-.39-.18.6.6,0,0,1-.1-.3.49.49,0,0,1,.2-.39c.84-.66,1.67-1.36,2.45-2a.5.5,0,0,1,.68,0,.5.5,0,0,1,0,.69c-.79.71-1.64,1.42-2.5,2.09A.49.49,0,0,1,355.82,198.6Zm-69-.4a.43.43,0,0,1-.3-.11c-.85-.7-1.67-1.42-2.45-2.15a.55.55,0,0,1-.16-.38.47.47,0,0,1,.14-.32.51.51,0,0,1,.68,0c.78.74,1.59,1.45,2.4,2.11,0,0,0,0,0,0a.5.5,0,0,1,.17.37.52.52,0,0,1-.12.31A.5.5,0,0,1,286.8,198.2Zm-22-1.14a.48.48,0,0,1-.42-.26.47.47,0,0,1,.2-.65c.89-.48,1.84-1,2.89-1.49a.5.5,0,0,1,.65.23.53.53,0,0,1,.05.2.5.5,0,0,1-.27.45c-.95.46-1.92,1-2.86,1.46A.53.53,0,0,1,264.76,197.06Zm5.8-2.86a.48.48,0,0,1-.43-.28.41.41,0,0,1-.05-.21.48.48,0,0,1,.29-.43c1-.44,2-.88,3-1.31h0a.49.49,0,0,1,.62.28.37.37,0,0,1,0,.18.49.49,0,0,1-.28.45h0l-.05,0c-.93.39-1.91.81-2.9,1.26A.52.52,0,0,1,270.56,194.2Zm11.54-.43a.48.48,0,0,1-.35-.16c-.75-.81-1.47-1.65-2.13-2.48a.52.52,0,0,1-.1-.31.54.54,0,0,1,0-.19c-.91.32-1.87.67-2.85,1.05a.49.49,0,0,1-.62-.28.33.33,0,0,1,0-.17.5.5,0,0,1,.31-.46l3-1.13a.52.52,0,0,1,.63.3,1,1,0,0,1,0,.17.46.46,0,0,1-.06.23.42.42,0,0,1,.39.18c.65.81,1.36,1.64,2.09,2.43a.54.54,0,0,1,.13.33.47.47,0,0,1-.15.35A.49.49,0,0,1,282.1,193.77Zm.52-4.22a.5.5,0,0,1-.47-.33.77.77,0,0,1,0-.15.48.48,0,0,1,.34-.47l3.08-1a.49.49,0,0,1,.6.32.61.61,0,0,1,0,.15.48.48,0,0,1-.33.46c-1,.32-2.06.66-3.07,1Zm-4.54-.84a.47.47,0,0,1-.4-.22c-.6-.88-1.18-1.82-1.73-2.78a.44.44,0,0,1-.07-.24.47.47,0,0,1,.25-.42.48.48,0,0,1,.66.18c.53.92,1.09,1.83,1.69,2.72a.42.42,0,0,1,.08.26.56.56,0,0,1-.2.42A.69.69,0,0,1,278.08,188.71Zm10.69-1.15a.49.49,0,0,1-.47-.33.89.89,0,0,1,0-.15.51.51,0,0,1,.34-.47c.85-.27,1.95-.62,3.07-1a.5.5,0,0,1,.61.31.57.57,0,0,1,0,.15.5.5,0,0,1-.33.46l-3.08,1Zm6.12-2.05a.5.5,0,0,1-.46-.34.39.39,0,0,1,0-.16.48.48,0,0,1,.32-.45c1.13-.41,2.12-.78,3-1.13a.48.48,0,0,1,.63.26.51.51,0,0,1,0,.17.49.49,0,0,1-.31.47c-1,.38-2,.76-3,1.14A.53.53,0,0,1,294.89,185.51Zm6-2.4a.5.5,0,0,1-.44-.29.65.65,0,0,1,0-.18.49.49,0,0,1,.28-.46c1-.46,2-.91,2.89-1.39a.48.48,0,0,1,.65.21.46.46,0,0,1,.06.23.49.49,0,0,1-.25.41s0,0,0,0h0c-.9.48-1.85.92-2.89,1.39A.46.46,0,0,1,300.89,183.11Zm-26,0h0a.49.49,0,0,1-.44-.28c-.36-.77-.68-1.55-1-2.34l-.06-.14-.2-.56a.3.3,0,0,1,0-.16.48.48,0,0,1,.94-.16c.1.27.17.48.25.68.3.78.61,1.55,1,2.28a.64.64,0,0,1,0,.2.47.47,0,0,1-.27.44A.52.52,0,0,1,274.9,183.07Zm31.72-2.95a.52.52,0,0,1-.41-.22.54.54,0,0,1-.07-.26.49.49,0,0,1,.24-.42c.92-.56,1.82-1.15,2.65-1.76h0a.49.49,0,0,1,.66.13.46.46,0,0,1-.09.66h0l0,0c-.86.62-1.76,1.21-2.7,1.78A.43.43,0,0,1,306.62,180.12ZM272.76,177a.48.48,0,0,1-.47-.34s0,0,0,0a.06.06,0,0,0,0,0c-.25-1-.46-2.09-.63-3.18v-.07a.48.48,0,0,1,.41-.48.49.49,0,0,1,.55.4c.16,1,.36,2.09.63,3.15a.41.41,0,0,1,0,.11.49.49,0,0,1-.37.47Zm39.08-.64a.52.52,0,0,1-.37-.17.49.49,0,0,1-.11-.33.46.46,0,0,1,.17-.36c.6-.53,1.21-1.09,1.76-1.67.19-.18.36-.36.52-.53a.49.49,0,0,1,.68,0,.51.51,0,0,1,.16.37.53.53,0,0,1-.13.31h0s0,0,0,0l-.5.53c-.58.59-1.2,1.18-1.84,1.72A.44.44,0,0,1,311.84,176.33Zm4.35-4.78a.46.46,0,0,1-.28-.08.48.48,0,0,1-.2-.41.38.38,0,0,1,.08-.25v0l0,0a24,24,0,0,0,1.61-2.67,0,0,0,0,1,0,0,.5.5,0,0,1,.64-.2.46.46,0,0,1,.26.45.39.39,0,0,1,0,.18v0l0,0a24.79,24.79,0,0,1-1.66,2.75.08.08,0,0,1,0,0,0,0,0,0,1,0,0A.51.51,0,0,1,316.19,171.55Zm-44.39-1a.48.48,0,0,1-.49-.46c0-.6,0-1.2,0-1.77s0-1,0-1.51a.49.49,0,0,1,.48-.47h0a.5.5,0,0,1,.46.48v0c0,.49,0,1,0,1.47s0,1.18,0,1.72v0a.47.47,0,0,1-.45.48Zm47.31-4.77-.15,0a.49.49,0,0,1-.33-.47.89.89,0,0,1,0-.15,17.11,17.11,0,0,0,.71-3.06.48.48,0,0,1,.95.06s0,0,0,.07a16.79,16.79,0,0,1-.74,3.24A.48.48,0,0,1,319.11,165.8Zm-47-1.69H272a.5.5,0,0,1-.42-.48s0,0,0-.08c.16-1.08.39-2.17.65-3.22a.49.49,0,0,1,.59-.34.48.48,0,0,1,.37.47.49.49,0,0,1,0,.12,29.74,29.74,0,0,0-.64,3.12A.49.49,0,0,1,272.1,164.11Zm47.8-4.69a.49.49,0,0,1-.48-.44,13,13,0,0,0-.67-3,.38.38,0,0,1,0-.16.46.46,0,0,1,.32-.45.48.48,0,0,1,.61.27s0,0,0,0,0,0,0,0a13.28,13.28,0,0,1,.7,3.23v.05a.48.48,0,0,1-.43.48Zm-46.17-1.56a.47.47,0,0,1-.17,0,.51.51,0,0,1-.31-.46.47.47,0,0,1,0-.17,29,29,0,0,1,1.36-3,.48.48,0,0,1,.66-.21.47.47,0,0,1,.25.42.32.32,0,0,1-.06.23c-.47.93-.92,1.9-1.31,2.89A.46.46,0,0,1,273.73,157.86Zm44-4.48a.48.48,0,0,1-.41-.22,19.25,19.25,0,0,0-1.95-2.46.52.52,0,0,1-.12-.34.54.54,0,0,1,.14-.36.51.51,0,0,1,.69,0,19.76,19.76,0,0,1,2,2.6.47.47,0,0,1,.08.27.45.45,0,0,1-.22.4A.42.42,0,0,1,317.75,153.38Zm-41-1.22a.51.51,0,0,1-.27-.09.51.51,0,0,1-.13-.69,29,29,0,0,1,2.07-2.56.51.51,0,0,1,.69,0,.48.48,0,0,1,.16.35.49.49,0,0,1-.13.33,23.26,23.26,0,0,0-2,2.46A.47.47,0,0,1,276.76,152.16Zm36.66-3.56a.49.49,0,0,1-.32-.12c-.81-.71-1.65-1.38-2.5-2a.48.48,0,0,1-.19-.39.41.41,0,0,1,.09-.28.48.48,0,0,1,.67-.12c.88.64,1.75,1.33,2.57,2.05a.46.46,0,0,1,.16.35.44.44,0,0,1-.12.33A.46.46,0,0,1,313.42,148.6Zm-32.3-1.19a.49.49,0,0,1-.36-.18.45.45,0,0,1-.11-.3.46.46,0,0,1,.17-.38,25.5,25.5,0,0,1,2.64-2,.5.5,0,0,1,.67.15.51.51,0,0,1,.08.28.46.46,0,0,1-.23.38,30,30,0,0,0-2.54,1.9A.53.53,0,0,1,281.12,147.41Zm27.06-2.59a.59.59,0,0,1-.23,0s0,0,0,0h0a27.21,27.21,0,0,0-2.81-1.4.46.46,0,0,1-.28-.45.54.54,0,0,1,0-.19.49.49,0,0,1,.64-.25,26,26,0,0,1,2.94,1.47.48.48,0,0,1,.24.43.55.55,0,0,1-.07.23A.47.47,0,0,1,308.18,144.82Zm-21.64-.93a.49.49,0,0,1-.44-.28.49.49,0,0,1-.05-.2.49.49,0,0,1,.28-.44,25.15,25.15,0,0,1,3-1.24.49.49,0,0,1,.62.3.89.89,0,0,1,0,.15.5.5,0,0,1-.33.47,25.47,25.47,0,0,0-2.94,1.19A.49.49,0,0,1,286.54,143.89Zm15.71-1.59a.17.17,0,0,1-.12,0c-.74-.2-1.51-.36-2.28-.5l-.82-.11a.49.49,0,0,1-.43-.49v0a.49.49,0,0,1,.55-.42l.86.11a23.1,23.1,0,0,1,2.33.53h.06a.49.49,0,0,1,.34.47s0,.09,0,.12A.49.49,0,0,1,302.25,142.3Zm-9.59-.43a.48.48,0,0,1-.48-.4s0-.06,0-.1a.5.5,0,0,1,.4-.47,24.34,24.34,0,0,1,3.28-.35h0a.48.48,0,0,1,.48.47v0a.48.48,0,0,1-.47.48,21.23,21.23,0,0,0-3.13.34h-.09Z" transform="translate(-1.76 -78.83)"/><polygon class="cls-16" points="1.38 299.11 51.23 295.64 41.93 302.81 1.38 299.11"/><polygon class="cls-17" points="41.93 302.81 41.93 311.97 1.38 299.11 41.93 302.81"/><polygon class="cls-16" points="41.28 303.55 1.38 299.11 24.86 312.67 41.28 303.55"/><path class="cls-16" d="M71,394.26l-1.59,0h0a.49.49,0,0,1,0-1c1,0,2.23,0,3.21,0h0a.48.48,0,0,1,.49.48.47.47,0,0,1-.47.49Zm-4.84-.16h-.06c-1-.07-2.11-.15-3.19-.26a.49.49,0,0,1-.43-.48v-.06a.47.47,0,0,1,.52-.42h.07c1,.1,2.09.19,3.1.25h.07a.48.48,0,0,1,.43.48v0a.5.5,0,0,1-.5.45Zm9.71,0a.47.47,0,0,1-.48-.45v0a.49.49,0,0,1,.45-.49C77,393,78,392.94,79,392.81a.51.51,0,0,1,.55.43v.05a.49.49,0,0,1-.43.49c-1,.13-2.12.23-3.23.31h0Zm-16.12-.63h-.11c-1.06-.15-2.13-.31-3.16-.49a.47.47,0,0,1-.4-.48v-.08a.48.48,0,0,1,.56-.39c1.07.18,2.14.34,3.18.48a.49.49,0,0,1,.42.48.17.17,0,0,1,0,.07A.49.49,0,0,1,59.74,393.46Zm22.53-.15a.49.49,0,0,1-.48-.4.19.19,0,0,1,0-.08.48.48,0,0,1,.4-.48c1.08-.19,2.14-.41,3.15-.65a.49.49,0,0,1,.58.37s0,.07,0,.1a.49.49,0,0,1-.38.48c-1,.24-2.09.46-3.19.65Zm-28.9-.93a.18.18,0,0,1-.09,0c-1-.2-2.05-.43-3.15-.68h0a.49.49,0,0,1-.37-.47.37.37,0,0,1,0-.11.48.48,0,0,1,.58-.37c1.06.24,2.12.48,3.15.69a.46.46,0,0,1,.38.46.41.41,0,0,1,0,.11A.48.48,0,0,1,53.37,392.38Zm35.18-.55a.49.49,0,0,1-.47-.35.66.66,0,0,1,0-.14.47.47,0,0,1,.34-.46c1-.31,2.06-.65,3-1a.49.49,0,0,1,.62.29.33.33,0,0,1,0,.17.53.53,0,0,1-.32.46c-1,.37-2.06.72-3.1,1A.22.22,0,0,1,88.55,391.83Zm6-2.25a.49.49,0,0,1-.44-.29.71.71,0,0,1,0-.21.48.48,0,0,1,.29-.43c.94-.43,1.9-.9,2.86-1.43a.49.49,0,0,1,.65.2.41.41,0,0,1,.07.22.51.51,0,0,1-.27.44c-1,.54-2,1-2.91,1.46A.78.78,0,0,1,94.6,389.58Zm5.68-3.09a.49.49,0,0,1-.41-.23.5.5,0,0,1-.08-.27.55.55,0,0,1,.21-.39s0,0,0,0h0c.9-.59,1.78-1.19,2.6-1.82a.51.51,0,0,1,.68.1.48.48,0,0,1,.09.29.5.5,0,0,1-.19.4c-.87.65-1.77,1.28-2.68,1.86h0A.47.47,0,0,1,100.28,386.49Zm5.16-3.89a.43.43,0,0,1-.36-.17.44.44,0,0,1-.12-.33.5.5,0,0,1,.15-.34h0c.82-.72,1.6-1.46,2.3-2.19a.52.52,0,0,1,.7,0,.5.5,0,0,1,.14.35.49.49,0,0,1-.14.34c-.77.79-1.57,1.54-2.38,2.24A.49.49,0,0,1,105.44,382.6ZM110,378a.43.43,0,0,1-.31-.12.47.47,0,0,1-.19-.37.54.54,0,0,1,.13-.3c.71-.85,1.36-1.7,2-2.54a.51.51,0,0,1,.68-.11.48.48,0,0,1,.2.41.5.5,0,0,1-.08.27c-.63.88-1.3,1.75-2,2.59A.46.46,0,0,1,110,378Zm3.73-5.27a.42.42,0,0,1-.24-.07.48.48,0,0,1-.24-.41.55.55,0,0,1,.07-.25c.31-.53.61-1.07.89-1.61l-.52-.07a.5.5,0,0,1-.41-.48.25.25,0,0,1,0-.08.48.48,0,0,1,.55-.4l.84.11c0-.09.09-.18.12-.27s0,0,0,0,0,0,0,0a.5.5,0,0,1,.63-.21.47.47,0,0,1,.28.43.52.52,0,0,1,0,.21h0l1.32.15a.49.49,0,0,1,.44.49v.05a.49.49,0,0,1-.54.43l-1.67-.19c-.35.65-.7,1.31-1.07,1.94h0A.46.46,0,0,1,113.71,372.72Zm12.93-1.57h0a.5.5,0,0,1-.49-.48.52.52,0,0,1,.14-.35.49.49,0,0,1,.34-.14c1,0,2-.06,3.17-.12h.08a.48.48,0,0,1,.48.45l-.06,0h.06a.51.51,0,0,1-.46.49c-1.08.05-2.17.1-3.24.12Zm-3.25,0h0c-1,0-2.12-.07-3.25-.15a.47.47,0,0,1-.45-.49v0a.51.51,0,0,1,.52-.45c1,.07,2.13.12,3.2.14a.47.47,0,0,1,.34.15.49.49,0,0,1,.14.34A.5.5,0,0,1,123.39,371.14Zm9.72-.37h0a.5.5,0,0,1-.49-.44v-.06a.5.5,0,0,1,.44-.48c1.06-.1,2.14-.24,3.19-.39a.48.48,0,0,1,.54.42v.08a.46.46,0,0,1-.41.46c-1.07.17-2.15.29-3.22.41Zm6.36-.92a.48.48,0,0,1-.48-.4.34.34,0,0,1,0-.1.48.48,0,0,1,.4-.46c1-.19,2.08-.42,3.14-.66a.5.5,0,0,1,.58.36s0,.07,0,.11a.48.48,0,0,1-.36.48h0l0-.05v.05c-1.11.26-2.15.48-3.16.66Zm-28.91-.09h-.09l-1.09-.23c-.74-.15-1.44-.32-2.09-.49h0a.48.48,0,0,1-.34-.46.43.43,0,0,1,0-.12.46.46,0,0,1,.57-.35h.07c.66.18,1.34.34,2,.47l1.07.22a.48.48,0,0,1,.4.47.34.34,0,0,1,0,.1A.48.48,0,0,1,110.56,369.76Zm35.2-1.36a.5.5,0,0,1-.47-.35.57.57,0,0,1,0-.13.47.47,0,0,1,.35-.47c1-.28,2.05-.59,3.08-.91a.47.47,0,0,1,.6.3.27.27,0,0,1,0,.15.48.48,0,0,1-.34.47c-1.1.35-2.13.65-3.12.93ZM104.35,368a.58.58,0,0,1-.19,0,16.24,16.24,0,0,1-2.94-1.57.49.49,0,0,1-.21-.4.44.44,0,0,1,.09-.27.49.49,0,0,1,.67-.13,15.5,15.5,0,0,0,2.76,1.48.46.46,0,0,1,.29.43.64.64,0,0,1,0,.2A.48.48,0,0,1,104.35,368Zm12.13-1.15a.32.32,0,0,1-.16,0,.47.47,0,0,1-.32-.45.27.27,0,0,1,0-.16c.36-1,.68-2.05.93-3.05a.52.52,0,0,1,.59-.36.49.49,0,0,1,.37.47s0,.08,0,.13c-.27,1-.6,2.09-1,3.13A.5.5,0,0,1,116.48,366.88Zm-17.33-2.56a.48.48,0,0,1-.39-.19,8,8,0,0,1-.66-1,9.82,9.82,0,0,1-.89-2h0a.59.59,0,0,1,0-.14.49.49,0,0,1,.34-.47.48.48,0,0,1,.6.32,9,9,0,0,0,.8,1.83,9.23,9.23,0,0,0,.6.89.51.51,0,0,1,.1.29.47.47,0,0,1-.48.49Zm18.92-3.71H118a.49.49,0,0,1-.42-.48v-.07c.1-.7.18-1.41.22-2.13,0-.36,0-.71.06-1a.5.5,0,0,1,.82-.33.5.5,0,0,1,.15.34c0,.37,0,.73-.06,1.1a21.53,21.53,0,0,1-.24,2.19A.46.46,0,0,1,118.07,360.61ZM97.2,358.26h0a.48.48,0,0,1-.49-.45v-.3a16.14,16.14,0,0,1,.3-3,.47.47,0,0,1,.57-.39.49.49,0,0,1,.38.47v.1a14.74,14.74,0,0,0-.28,2.86v.26h0a.48.48,0,0,1-.47.48Zm21-4.11a.48.48,0,0,1-.48-.41,17,17,0,0,0-.71-3.07.89.89,0,0,1,0-.14.49.49,0,0,1,.94-.18v0a18.81,18.81,0,0,1,.74,3.21s0,0,0,.07a.52.52,0,0,1-.43.48ZM98.42,352a.43.43,0,0,1-.19,0,.5.5,0,0,1-.29-.45.32.32,0,0,1,0-.19,15.34,15.34,0,0,1,1.64-2.89h0a.48.48,0,0,1,.66-.11.47.47,0,0,1,.21.38.49.49,0,0,1-.1.3,15.53,15.53,0,0,0-1.55,2.73A.46.46,0,0,1,98.42,352Zm17.63-3.88a.48.48,0,0,1-.41-.22,9.64,9.64,0,0,0-2-2.3.47.47,0,0,1-.18-.37.45.45,0,0,1,.1-.31.5.5,0,0,1,.69-.08,10.46,10.46,0,0,1,2.22,2.52s0,0,0,0a.55.55,0,0,1,.07.25.47.47,0,0,1-.22.42A.48.48,0,0,1,116.05,348.07Zm-13.88-1.35a.52.52,0,0,1-.37-.16.49.49,0,0,1-.12-.32.52.52,0,0,1,.16-.37,12.82,12.82,0,0,1,2.76-1.9.46.46,0,0,1,.69.42.47.47,0,0,1-.26.44,11.59,11.59,0,0,0-2.54,1.78A.48.48,0,0,1,102.17,346.72Zm8.9-2.55h-.13l0,0a7.23,7.23,0,0,0-3-.22.48.48,0,0,1-.54-.42.19.19,0,0,1,0-.08.5.5,0,0,1,.43-.47,8.46,8.46,0,0,1,3.39.27l0,0a.46.46,0,0,1,.33.44.68.68,0,0,1,0,.15A.49.49,0,0,1,111.07,344.17Z" transform="translate(-1.76 -78.83)"/><path class="cls-4" d="M401.5,493.52l-5.53,4.7s15.91,3.36,30,.84l-1.51-6.88Z" transform="translate(-1.76 -78.83)"/><path class="cls-4" d="M456.58,492.68l-5.53,4.7s15.91,3.36,30,.84l-1.51-6.88Z" transform="translate(-1.76 -78.83)"/><path class="cls-8" d="M424.15,284a9.14,9.14,0,0,0-11.59,5.74l-10.48,31-34.55-8.59c-.36,11.4-4.41,17.8-4.41,17.8l42.72,10.62a9.12,9.12,0,0,0,10.86-5.95l13.18-39A9.18,9.18,0,0,0,424.15,284Z" transform="translate(-1.76 -78.83)"/><path class="cls-18" d="M424.15,284a9.14,9.14,0,0,0-11.59,5.74l-9.12,27,16.88,7.18,9.56-28.27A9.18,9.18,0,0,0,424.15,284Z" transform="translate(-1.76 -78.83)"/><path class="cls-19" d="M414.21,354.29S393.59,447.91,399.54,495c0,0,14.54,5.53,25.78,0,0,0,2.76-91.81,17.3-120.78l13.1,119.39s7.71,6.92,24.23-1.38L467.83,349Z" transform="translate(-1.76 -78.83)"/><path class="cls-20" d="M442.62,374.47h0l-1.53-.24a.3.3,0,0,1-.22-.17c-2.94-6.3-3.22-15-3.23-15.1a.3.3,0,0,1,.3-.31.29.29,0,0,1,.31.29c0,.09.29,8.54,3.1,14.71l1,.15c-.2-2-1-10.61-.34-14.9a.32.32,0,0,1,.35-.25.31.31,0,0,1,.25.35c-.73,4.68.38,15,.39,15.13a.32.32,0,0,1-.1.26A.3.3,0,0,1,442.62,374.47Z" transform="translate(-1.76 -78.83)"/><path class="cls-21" d="M409.76,296.47l4.45,57.82s13,7.11,31.4,5S468,349,468,349s-3.18-56.73-3.71-57.29-2.71-19.21-29.3-15.4S409.76,296.47,409.76,296.47Z" transform="translate(-1.76 -78.83)"/><polygon class="cls-15" points="411.93 268.58 468.74 301.54 468.01 292.99 411.93 268.58"/><path class="cls-18" d="M446.51,297s9.73,33.19,2.95,53.82l10.91,1.81L468,314.72l-14.64-21Z" transform="translate(-1.76 -78.83)"/><path class="cls-22" d="M420.79,315a11.75,11.75,0,0,1-5.22-1.2.37.37,0,0,1-.16-.26L414.66,302a.33.33,0,0,1,.65,0l.73,11.43a11.08,11.08,0,0,0,10.3-.5l-1-12.09a.33.33,0,1,1,.65-.05L427,313a.31.31,0,0,1-.16.3A11.44,11.44,0,0,1,420.79,315Z" transform="translate(-1.76 -78.83)"/><polygon class="cls-8" points="439.39 181.21 439.39 197.26 432.02 203.99 424.86 199.61 424.86 189.96 439.39 181.21"/><path class="cls-9" d="M439.15,268.14l-12.53,4.16v5.14C433.61,276.5,439.15,268.14,439.15,268.14Z" transform="translate(-1.76 -78.83)"/><path class="cls-22" d="M430.19,290.1A.3.3,0,0,1,430,290l-6.27-8a.3.3,0,0,1,0-.3,8.79,8.79,0,0,1,2.82-3.76.3.3,0,0,1,.42.1.31.31,0,0,1-.1.42,8,8,0,0,0-2.51,3.3l5.87,7.53,3.37-6.55a.3.3,0,0,1,.48-.08l6,5.77,4-9.54a5.39,5.39,0,0,0-2.93-2.77.3.3,0,0,1-.19-.39.3.3,0,0,1,.39-.19,5.93,5.93,0,0,1,3.35,3.24.31.31,0,0,1,0,.23L440.43,289a.32.32,0,0,1-.22.19.36.36,0,0,1-.28-.08l-6.07-5.8-3.39,6.62a.31.31,0,0,1-.25.16Z" transform="translate(-1.76 -78.83)"/><path class="cls-22" d="M415.23,301.48a.28.28,0,0,1-.25-.28.29.29,0,0,1,.23-.33l9.41-.87c.14,0,.25.11.26.28a.29.29,0,0,1-.23.33l-9.4.87Z" transform="translate(-1.76 -78.83)"/><rect class="cls-8" x="412.24" y="156.9" width="27.15" height="38.94" rx="8.36"/><path class="cls-20" d="M449.16,376.82a.27.27,0,0,1-.18-.05c-5.08-3.61-15.8-2.73-15.91-2.72a.3.3,0,0,1-.33-.27.32.32,0,0,1,.28-.34c.45,0,11.05-.91,16.31,2.83a.31.31,0,0,1,.07.43A.3.3,0,0,1,449.16,376.82Z" transform="translate(-1.76 -78.83)"/><path class="cls-23" d="M410.33,239.05a4,4,0,0,0,.82,4.68,7.78,7.78,0,0,0,4.62,2c4.72.62,9.46-.88,13.84-2.75a2.61,2.61,0,0,0,.08,3.57,4.15,4.15,0,0,0,3.67,1c.18.51-.46.93-.65,1.44-.31.86.75,1.6,1.65,1.71s1.95,0,2.62.59a2.47,2.47,0,0,1,.46,2.35,9.15,9.15,0,0,0-.47,2.46c0,.84.67,1.73,1.51,1.67s1.6-1.16,2.45-.89a1.29,1.29,0,0,1,.76,1.11c.22,1.89-1.83,3.58-1.38,5.43.36,1.51,2.16,2.13,3.7,2.2a4.36,4.36,0,0,0,3.1-.84,1.79,1.79,0,0,0,.56-.89,2.87,2.87,0,0,0-.67-2c-2.15-3.56-2.37-7.93-2.3-12.08s.36-8.42-.93-12.37a6.21,6.21,0,0,0-2.18-3.33,2.85,2.85,0,0,0-3.69.26c-1.69-1.5-4.07-1.88-6.31-2.19a43.83,43.83,0,0,0-6.15-.58,22.6,22.6,0,0,0-10.79,2.73,10.25,10.25,0,0,0-3,2.31,5,5,0,0,0-1.26,3.52" transform="translate(-1.76 -78.83)"/><path class="cls-8" d="M444.31,258.2a3.33,3.33,0,1,1-3.33-3.34A3.34,3.34,0,0,1,444.31,258.2Z" transform="translate(-1.76 -78.83)"/><path class="cls-22" d="M438.12,297.05h-4a.32.32,0,0,1-.32-.3l-.92-12.11a.32.32,0,0,1,.29-.35.33.33,0,0,1,.35.3l.9,11.81h3.7a.32.32,0,0,1,.32.32A.32.32,0,0,1,438.12,297.05Z" transform="translate(-1.76 -78.83)"/><ellipse class="cls-24" cx="248.36" cy="192.64" rx="74.43" ry="74.64"/><path class="cls-24" d="M277.8,202.19a75.45,75.45,0,0,0-12.71-3.82L194.37,320.93a74.17,74.17,0,0,0,28.06,19.83c.84.34,1.69.64,2.54.95L296.2,212.87A74.23,74.23,0,0,0,277.8,202.19Z" transform="translate(-1.76 -78.83)"/><path class="cls-24" d="M304.83,220.86,239.72,345.39a72.85,72.85,0,0,0,10.19.72l62.17-116A73.53,73.53,0,0,0,304.83,220.86Z" transform="translate(-1.76 -78.83)"/><path class="cls-25" d="M325.2,301.65a80.92,80.92,0,1,1-45-105.47A80.9,80.9,0,0,1,325.2,301.65ZM187,246.12A68,68,0,1,0,275.4,208.2,68.31,68.31,0,0,0,187,246.12Z" transform="translate(-1.76 -78.83)"/><path class="cls-25" d="M321.6,293.23,492.4,356.3a11.64,11.64,0,0,1-8,21.86l-.61-.24-167-72.67a6.47,6.47,0,0,1,4.8-12Z" transform="translate(-1.76 -78.83)"/><path class="cls-8" d="M470.5,364.39a6.94,6.94,0,0,1-1.22,3.12,2.43,2.43,0,0,1-3,.71c-.49-.31-.85-.88-1.43-1s-1.28.61-1.91,1a2.82,2.82,0,0,1-3.53-1.05c-.26-.37-.47-.82-.89-1-.92-.36-1.88,1-2.8.61-.7-.28-.78-1.36-1.48-1.66a5.43,5.43,0,0,0-1.22-.11,1.74,1.74,0,0,1-1.29-1.45,5.29,5.29,0,0,1,.16-2.05c.23-1.06.46-2.12.68-3.18a5.29,5.29,0,0,1,.63-1.8c.77-1.14,2.29-1.46,3.66-1.61a22,22,0,0,1,7.84.27,11,11,0,0,1,5.64,3.27C471.61,360,470.89,362.6,470.5,364.39Z" transform="translate(-1.76 -78.83)"/><path class="cls-8" d="M470.89,360.84l8-38.38a9.24,9.24,0,0,0-.89-6.19l-17.15-32.18a9.15,9.15,0,1,0-16.13,8.64L460.27,322,453,357.11A48.62,48.62,0,0,1,470.89,360.84Z" transform="translate(-1.76 -78.83)"/><path class="cls-21" d="M448.06,279.7a9.52,9.52,0,0,0-3.89,12.87l12.15,22.81a77.21,77.21,0,0,0,17.37-7.78l-12.79-24A9.47,9.47,0,0,0,448.06,279.7Z" transform="translate(-1.76 -78.83)"/><path class="cls-22" d="M456.32,315.7a.32.32,0,0,1-.29-.17l-12.15-22.8a.33.33,0,0,1,.13-.44.32.32,0,0,1,.44.13l12,22.57a76.45,76.45,0,0,0,16.78-7.5l-12.65-23.73a.33.33,0,0,1,.14-.44.31.31,0,0,1,.43.13l12.79,24a.33.33,0,0,1-.11.43,76,76,0,0,1-17.45,7.81Z" transform="translate(-1.76 -78.83)"/><path class="cls-8" d="M358.62,328a12.08,12.08,0,0,1-1.9-1,7.18,7.18,0,0,1-2.83-6.61,5.46,5.46,0,0,1,.57-2.06A3.12,3.12,0,0,1,356,317a1.26,1.26,0,0,1,1.25.1,1.41,1.41,0,0,1,.35.66,6.92,6.92,0,0,1,0,2.9c.61-1.17,1.33-2.44,2.58-2.85a1.57,1.57,0,0,1,1.29.09,1.5,1.5,0,0,1,.62,1.11,4.46,4.46,0,0,1-.13,1.31l-.21,1.07a4.8,4.8,0,0,1,1.06-1.38,1.92,1.92,0,0,1,1.62-.47,2.38,2.38,0,0,1,1.53,2,5.38,5.38,0,0,1,0,2c-.1.57-.28,1.13-.36,1.71a3,3,0,0,0,.28,1.41,2.45,2.45,0,0,1-1.09,2.58,3.67,3.67,0,0,1-.86.49,3.54,3.54,0,0,1-2.63-.54Z" transform="translate(-1.76 -78.83)"/><path class="cls-26" d="M338.9,412.17c0,7.47-30.84,16.14-69.46,16.14s-70.4-8.5-70.4-16,31.78-11.07,70.4-11.07S338.9,404.7,338.9,412.17Z" transform="translate(-1.76 -78.83)"/><path class="cls-27" d="M256.15,398.73l25.45-10.41a2.57,2.57,0,0,1,3.31,1.45l7.39,16.66a3.07,3.07,0,0,1-.59,3.38L280.5,421a2.47,2.47,0,0,1-3.35.19l-21.64-17.42A3,3,0,0,1,256.15,398.73Z" transform="translate(-1.76 -78.83)"/><path class="cls-28" d="M313.21,412.55l-14.82,24.84a2.51,2.51,0,0,1-3.44,1l-15-8.63a3,3,0,0,1-1.35-3.1l2.94-16.24a2.71,2.71,0,0,1,2.59-2.31l26.9,0C313.1,408.1,314.35,410.63,313.21,412.55Z" transform="translate(-1.76 -78.83)"/><path class="cls-29" d="M265,405l17.9,10.32c.9.52,1,1.78.21,2.9l-9.77,14a3.39,3.39,0,0,1-2.8,1.52l-12.89-.88a1.56,1.56,0,0,1-1.46-2L261,407.43C261.32,405.6,263.63,404.24,265,405Z" transform="translate(-1.76 -78.83)"/><path class="cls-30" d="M236.31,404.43l-14.82,24.84a2.53,2.53,0,0,1-3.45,1l-15-8.63a3,3,0,0,1-1.36-3.1l3-16.24A2.7,2.7,0,0,1,207.2,400l26.9,0A2.89,2.89,0,0,1,236.31,404.43Z" transform="translate(-1.76 -78.83)"/><path class="cls-31" d="M329.14,419.17a3.79,3.79,0,0,0-.33-.74,7.54,7.54,0,0,1-.45-.7,1.46,1.46,0,0,1-.05-.72,3.29,3.29,0,0,0,0-.83,3.39,3.39,0,0,0-.64-1.52,4.81,4.81,0,0,0-3.73-1.93,5.53,5.53,0,0,1-1.52,0,10.15,10.15,0,0,1-1.22-.64,2.29,2.29,0,0,0-1.46-.13c-.48.11-.94.34-1.42.45a2,2,0,0,1-1.2-.21,2.36,2.36,0,0,0-2.53,0c-.38.3-.68.72-1.15.82a6.42,6.42,0,0,0-1.43.38,4.74,4.74,0,0,0-2.52,4.73.48.48,0,0,0,.15.3,1.57,1.57,0,0,0-.09.23,3.37,3.37,0,0,0,.24,2.69,5,5,0,0,0,2.16,2,1.58,1.58,0,0,1,.59.44,1.78,1.78,0,0,1,.23.75,3.84,3.84,0,0,0,.42,1.54,3.4,3.4,0,0,0,1.07,1c.5.31,1,.6,1.51.9l1.5.9a5,5,0,0,0,1.36.6,2.09,2.09,0,0,0,1.47-.19,4,4,0,0,1,.76-.41,2,2,0,0,1,.74,0,3.59,3.59,0,0,0,2.81-.85c.34-.29.59-.83,1-1a3.44,3.44,0,0,1,.78-.13,2.68,2.68,0,0,0,.67-.24,3.86,3.86,0,0,0,1.8-2.51,11.53,11.53,0,0,0,.72-3.33A5,5,0,0,0,329.14,419.17Z" transform="translate(-1.76 -78.83)"/><path class="cls-32" d="M291.64,395.37c-.39,2.28.66,4.37,1.87,6.13a3.88,3.88,0,0,0,2.72,2,11.28,11.28,0,0,0,3.07-.17,7.52,7.52,0,0,0,5.18-3.34,6.49,6.49,0,0,0,.71-1.59,2,2,0,0,0,.06-.26,4.34,4.34,0,0,0,.48,0,2,2,0,0,0,1.69-1.1.52.52,0,0,0,.26-.62v0c0-.06,0-.12.05-.18a.89.89,0,0,0-.34-.84,10.5,10.5,0,0,0-1.69-3.63,6.12,6.12,0,0,0-1.65-1.44c-.62-.38-1.3-.65-1.89-1.09s-1-1.23-1.56-1.77a2.56,2.56,0,0,0-1.59-.68,3.43,3.43,0,0,0-3.09,1.73,6.06,6.06,0,0,0-.75,3.24C293.4,391.79,292,393.49,291.64,395.37Z" transform="translate(-1.76 -78.83)"/><path class="cls-33" d="M315.49,414a5.81,5.81,0,0,0,2.95,3.9,4.31,4.31,0,0,0,3.33.29,5.87,5.87,0,0,0,3.55,3.24,5.5,5.5,0,0,0,5.11-1.16,8.35,8.35,0,0,1,2.23-1.57,24.07,24.07,0,0,0,2.4-1,4.67,4.67,0,0,0,2.4-4.38,4.37,4.37,0,0,0-2.08-3.48,7.14,7.14,0,0,0-1.64-8.74,5.9,5.9,0,0,0-4.13-1.21,4.76,4.76,0,0,0-5-.93,3.81,3.81,0,0,0-2.06,3.63,5.59,5.59,0,0,0-3.77,1.33A10.85,10.85,0,0,0,315.49,414Z" transform="translate(-1.76 -78.83)"/><path class="cls-34" d="M292.65,412.13A5.16,5.16,0,0,0,296.2,415a4.09,4.09,0,0,0,3.12-.58,5.27,5.27,0,0,0,4,2.09,5.4,5.4,0,0,0,4.45-2.36,8.81,8.81,0,0,1,1.72-2,21.23,21.23,0,0,0,2-1.55,4.6,4.6,0,0,0,1.28-4.64,3.92,3.92,0,0,0-2.65-2.68c.74-3-.57-6.43-3.38-7.64a5.48,5.48,0,0,0-4.06-.06,4.48,4.48,0,0,0-4.8.41,3.77,3.77,0,0,0-1.13,3.87,5.48,5.48,0,0,0-3.18,2.17A10.52,10.52,0,0,0,292.65,412.13Z" transform="translate(-1.76 -78.83)"/><path class="cls-35" d="M303.19,418.76c.81,1.34,2.29,2.47,3.61,2.34.88,1.22,1.7,1.21,2.92,1.92,2.25,1.3,3.94,1.8,5.8.62s2.16-4.34,3.21-4.8,4.68-.52,6.07-.89a8.52,8.52,0,0,0,6.05-6.71c.63-2.68-1.08-5.37-1.17-6.1s2.78-4.28,3.08-6.56a9.08,9.08,0,0,0-2.21-7.25,8.52,8.52,0,0,0-3.32-1.92c-.32-.11-.63-.18-1-.27s-.29-.18-.37-.47a11.31,11.31,0,0,0-.82-2,9.1,9.1,0,0,0-6-4.91,10.89,10.89,0,0,0-5.5.82c-1,.35-2.16-1.66-4.75-1.14s-2.92,2.78-3.95,3.15a7.66,7.66,0,0,0-7.66,6.07,6.38,6.38,0,0,0,.59,5.06c0,1.1-1.59,1.94-2.19,2.56-1.39,1.42-1.44,4.27-.35,6.59.75,1.61,2.21,2.49,2.6,3.33s-.4,3.67.63,5.39a9.8,9.8,0,0,0,4,3.26C303.3,417.17,302.82,418.16,303.19,418.76Z" transform="translate(-1.76 -78.83)"/><path class="cls-36" d="M316,417.81c-9.87,5.4-20.82,27.09-20.82,27.09l-6.8-7.18c13.38-11,9.45-21.2,10.25-24.93.2-.91,1.27-1.36,1.44.33a64.16,64.16,0,0,1,.31,10.11c4.79-6.54,5.92-11.6,7.13-17.32,0,0,.93-1.25,1.07.46a26.68,26.68,0,0,1-1.55,8.11c3.34-3.51,3.64-7.18,4.73-8.07.38-.3,1.19,0,1.19,0a75.59,75.59,0,0,1-10,18.71s7.38-8.93,10.85-10.53c.65-.29.94.33.29,1.2a30.85,30.85,0,0,0-3.84,4.07c3.2-1.92,3.77-2.43,4.9-3.08S316.58,416.94,316,417.81Z" transform="translate(-1.76 -78.83)"/><path class="cls-37" d="M295.83,404.84a5.33,5.33,0,0,0,2.21,1.48,2.94,2.94,0,0,0,1.35.08,2.8,2.8,0,0,0,.69-.23,2.75,2.75,0,0,1,.78-.36c.45,0,1,.28,1.42.31a3.59,3.59,0,0,0,1.22-.15,4.17,4.17,0,0,0,2.25-1.75,4.79,4.79,0,0,0,.54-1.39c.15-.51.59-.48,1-.74a4.12,4.12,0,0,0,1.46-3c.21-1.58-.17-3.68-1.48-4.57a2.81,2.81,0,0,0-1.43-2.86,4.21,4.21,0,0,0-1.25-.43A2.38,2.38,0,0,0,302.8,390a2.4,2.4,0,0,0-2.25,1,5.81,5.81,0,0,0-6.95,1.33,6.72,6.72,0,0,0-1.75,4.16,3.21,3.21,0,0,0,1.52,3C293.24,401.52,294.52,403.5,295.83,404.84Z" transform="translate(-1.76 -78.83)"/><path class="cls-38" d="M320.41,403.56a4,4,0,0,0-.51.77,8.42,8.42,0,0,1-.4.86,1.3,1.3,0,0,1-.64.45,3.63,3.63,0,0,0-.78.46,3.78,3.78,0,0,0-1.05,1.54,6.56,6.56,0,0,0-.27,3.54,6.76,6.76,0,0,0,.53,1.61,8.13,8.13,0,0,1,.83,1.67,13.73,13.73,0,0,1,.08,1.7,3.21,3.21,0,0,0,.67,1.67c.37.48.83.85,1.19,1.33a2.79,2.79,0,0,1,.47,1.42c.14,1.14.35,2.23,1.38,2.79a3.64,3.64,0,0,1,1.39.82,8.68,8.68,0,0,0,1.13,1.36,4.58,4.58,0,0,0,5.76.19.58.58,0,0,0,.19-.33l.26,0a3.35,3.35,0,0,0,2.37-1.74,6.47,6.47,0,0,0,.64-3.45,2.2,2.2,0,0,1,.09-.89,1.94,1.94,0,0,1,.57-.67,3.87,3.87,0,0,0,1.2-1.31,4.54,4.54,0,0,0,.33-1.72c0-.71,0-1.43,0-2.14s0-1.44,0-2.15a6.51,6.51,0,0,0-.18-1.82,2.77,2.77,0,0,0-1-1.52,4.27,4.27,0,0,1-.79-.61,2.88,2.88,0,0,1-.39-.83,4.59,4.59,0,0,0-2.32-2.62c-.45-.21-1.09-.2-1.48-.53a4,4,0,0,1-.55-.78,3.73,3.73,0,0,0-.58-.61,3.84,3.84,0,0,0-3.31-.61,10.2,10.2,0,0,0-3.48,1A4.74,4.74,0,0,0,320.41,403.56Z" transform="translate(-1.76 -78.83)"/><path class="cls-39" d="M304,390.25a6.52,6.52,0,0,0-.7,5.16,5.15,5.15,0,0,0,2.09,3,7,7,0,0,0,.18,5.23,6.09,6.09,0,0,0,4.34,3.47,8.67,8.67,0,0,1,2.66.79,24.9,24.9,0,0,0,2.38,1.29,4.1,4.1,0,0,0,4.75-1,4.77,4.77,0,0,0,1-4.14,6.92,6.92,0,0,0,5-7.43,7.25,7.25,0,0,0-2-4.29c-.21-2-1-3.93-2.8-4.84a3.35,3.35,0,0,0-4,.79,6,6,0,0,0-3.54-2.25A9.44,9.44,0,0,0,304,390.25Z" transform="translate(-1.76 -78.83)"/><path class="cls-40" d="M288.33,437.72c1.3-.74,7.63,4.26,6.8,7.18S285.77,439.19,288.33,437.72Z" transform="translate(-1.76 -78.83)"/><path class="cls-41" d="M251.35,433.26a53.49,53.49,0,0,0-12.49-7.74,60.09,60.09,0,0,0-6.79-2.49c-1.07-.32-2.15-.61-3.23-.87s-2.57-.8-3.8-.43a1.73,1.73,0,0,0-.63,3c1.75,1.26,4.45,1.2,6.49,1.72a59.88,59.88,0,0,1,6.61,2.14,73.54,73.54,0,0,1,12.73,6.38,1,1,0,0,0,1.11-1.67Z" transform="translate(-1.76 -78.83)"/><path class="cls-42" d="M256.28,446.57c-.95-5.36-3.12-10.61-5.22-15.54a138.23,138.23,0,0,0-7.68-15.11,158.4,158.4,0,0,0-9.17-14c-1.63-2.23-3.3-4.41-5-6.54-.86-1.06-1.72-2.11-2.6-3.14a13.25,13.25,0,0,0-2.91-3,1.47,1.47,0,0,0-2.12,1.88c1.11,2.34,3.38,4.24,5,6.19q2.63,3.17,5.1,6.47c3.22,4.29,6.24,8.77,9.07,13.38s5.42,9.51,7.82,14.47,4.26,10.28,6.6,15.3a.6.6,0,0,0,1.14-.38Z" transform="translate(-1.76 -78.83)"/><path class="cls-43" d="M256,447.14a6.51,6.51,0,0,0,.29-2.92c0-2.34,0-4.66-.1-7a70.71,70.71,0,0,0-1-8.46c-.4-2.2-.78-5.92-2.51-7.38a1.69,1.69,0,0,0-2.69,1.33,10.43,10.43,0,0,0,1,3.44c.4,1.19.71,2.4,1,3.63.62,2.69,1.07,5.41,1.54,8.14.38,2.16.82,4.32,1.11,6.49a6.9,6.9,0,0,0,.59,2.76.47.47,0,0,0,.78,0Z" transform="translate(-1.76 -78.83)"/><path class="cls-44" d="M216.14,396.16c1.77.6,4.74,9,6.35,12.55-.47-1.41-1.33-8,0-8.95s2,1.94,3.19,2,.38-4.13,1.93-3.09,1,3.21,1.79,4.09.88-2.72,2.41-1.45-.84,5.58.37,5.7,1.26-2.65,2.26-1.39-3.34,21-4.4,20.74c-2.53-.69-6.68,1.69-8.92,3.14a27.05,27.05,0,0,0-5.85,5.62c-.46.54-1,1.15-1.71,1a1.44,1.44,0,0,1-.83-1.59c.08-.67,1-1.42,0-1.6s-2.06.41-3.47.71a1.16,1.16,0,0,1-.78,0c-.68-.35-.26-1.52.37-2s1.9-1.09,2-1.9c-.46-.57-2.05-.3-2.74-.28a1.67,1.67,0,0,1-1.58-1.37c-.16-1.4,3.65-3.08,3.54-4.19s-3.92.17-2.67-2.66c1.35-3.06,3.6-2.23,11.36-1.18a6.37,6.37,0,0,1,.63.1c-3.91-2.43-6-4.12-10-6.26-.67-.36-3.23-1.8-3-3.65s3.19.83,2.79-.43c-.59-1.87-3.61-2.36-3.31-4.32s2.48-.09,2.54-1-2.23-3-1.87-4.66,3,.08,4-.31-.79-2.82-.67-3.35c.23-1,1-1.12,1.87-.78s1.77,1.89,2.83,2.64S214.36,395.57,216.14,396.16Z" transform="translate(-1.76 -78.83)"/><path class="cls-45" d="M241.08,400.06c-.71,1.86,3.32,9.75,4.76,13.36-.69-1.3-4.8-6.27-6.28-5.78s.11,2.89-.65,3.95-3.15-2.34-3.41-.38,1.61,2.91,1.73,4.13-2.48-1-2.56,1.08,4.46,2.88,3.76,4-2.66-.65-2.42,1,7.73,3.26,13,5.42c3.8,1.55,6,5.11,6.48,4a10.43,10.43,0,0,1,5.89-5.29,24.53,24.53,0,0,1,7.7-1.29c.68,0,1.49-.14,1.79-.81a1.48,1.48,0,0,0-.6-1.71c-.52-.35-1.64-.07-1.14-1s1.61-1.45,2.73-2.45a1.34,1.34,0,0,0,.49-.66c.18-.79-.91-1.19-1.62-.95s-2,.89-2.62.46c-.11-.75,1.1-1.91,1.56-2.48a1.88,1.88,0,0,0,0-2.19c-.88-1-4.51,1.07-5.21.27s2.63-3.17-.16-3.94c-3-.83-3.88,1.58-8.12,8.75a6.65,6.65,0,0,0-.33.58c.8-4.83,1-7.7,2-12.4.18-.79.82-3.86-.65-4.84s-1.46,3.21-2.09,2.06c-.94-1.69.65-4.53-.91-5.54s-1.66,2-2.31,1.53-.69-3.81-2.07-4.56-1.88,2.57-2.77,3.12-1.48-2.47-1.93-2.71c-.85-.45-1.42.11-1.75,1.06s.2,2.69,0,4.06S241.8,398.19,241.08,400.06Z" transform="translate(-1.76 -78.83)"/><path class="cls-46" d="M236.19,364.86c1.06,1.65-1.33,10.3-2,14.15.42-1.42,3.46-7.23,5-7.1s.46,2.85,1.41,3.71,2.62-3,3.26-1.16-1,3.21-.88,4.43,2.23-1.57,2.71.46-3.79,3.85-2.9,4.76,2.48-1.26,2.57.4-6.92,5-11.63,8.32c-3.4,2.41-4.86,6.4-5.53,5.46a10,10,0,0,0-6.79-3.8,24.6,24.6,0,0,0-7.78.54c-.67.13-1.48.21-1.9-.37a1.52,1.52,0,0,1,.24-1.81c.44-.47,1.59-.46.93-1.25s-1.87-1-3.15-1.76a1.26,1.26,0,0,1-.61-.53c-.34-.73.65-1.37,1.4-1.31s2.11.42,2.65-.15c0-.76-1.45-1.61-2-2.06a1.88,1.88,0,0,1-.47-2.13c.66-1.22,4.62,0,5.15-1s-3.19-2.48-.62-3.88c2.79-1.52,4.1.64,9.65,6.66.15.16.3.32.44.49-1.73-4.53-2.47-7.29-4.41-11.64-.33-.74-1.55-3.58-.31-4.88s2.05,2.79,2.45,1.52c.58-1.87-1.53-4.28-.2-5.62s2,1.58,2.55.95-.07-3.88,1.13-4.94,2.34,2.08,3.32,2.41,1-2.76,1.36-3.1c.73-.64,1.4-.23,1.91.63s.34,2.67.76,4S235.12,363.21,236.19,364.86Z" transform="translate(-1.76 -78.83)"/><g class="cls-47"><path class="cls-3" d="M253.48,426.85a.49.49,0,0,1-.46-.35c-4.18-11.92-3.81-17.69-3.79-17.93a.5.5,0,0,1,.52-.49.52.52,0,0,1,.45.57c0,.06-.35,5.82,3.73,17.47a.54.54,0,0,1-.28.69A.59.59,0,0,1,253.48,426.85Z" transform="translate(-1.76 -78.83)"/><path class="cls-3" d="M253.48,426.85a.46.46,0,0,1-.35-.16.56.56,0,0,1,0-.75c.18-.2,4.53-5,8-6.53a.48.48,0,0,1,.64.3.56.56,0,0,1-.28.69c-3.26,1.41-7.61,6.24-7.66,6.29A.47.47,0,0,1,253.48,426.85Z" transform="translate(-1.76 -78.83)"/><path class="cls-3" d="M253.48,426.85a.51.51,0,0,1-.34-.14s-4.49-4.5-8.45-6.18a.55.55,0,0,1-.28-.69.47.47,0,0,1,.64-.3c4.13,1.76,8.57,6.19,8.76,6.38a.56.56,0,0,1,0,.75A.44.44,0,0,1,253.48,426.85Z" transform="translate(-1.76 -78.83)"/><path class="cls-3" d="M228.49,393.25h-.1a.54.54,0,0,1-.38-.63c2.4-12.25,1.24-17.84,1.22-17.89a.53.53,0,0,1,.37-.64.48.48,0,0,1,.58.39c.06.24,1.24,5.88-1.21,18.36A.5.5,0,0,1,228.49,393.25Z" transform="translate(-1.76 -78.83)"/><path class="cls-3" d="M228.49,393.25a.46.46,0,0,1-.29-.1s-5-4.09-8.45-4.93a.52.52,0,0,1-.37-.63.49.49,0,0,1,.58-.41c3.63.89,8.61,4.94,8.82,5.11a.57.57,0,0,1,.1.75A.46.46,0,0,1,228.49,393.25Z" transform="translate(-1.76 -78.83)"/><path class="cls-3" d="M228.49,393.25a.45.45,0,0,1-.3-.11.57.57,0,0,1-.08-.75c.16-.22,3.92-5.35,7.75-7.78a.47.47,0,0,1,.67.19.56.56,0,0,1-.17.73c-3.68,2.33-7.45,7.47-7.49,7.52A.46.46,0,0,1,228.49,393.25Z" transform="translate(-1.76 -78.83)"/><path class="cls-3" d="M228.49,423.19a.45.45,0,0,1-.16,0C217.16,418.9,214,408,213.91,407.93a.53.53,0,0,1,.33-.66.48.48,0,0,1,.61.35c0,.1,3.11,10.45,13.8,14.53a.54.54,0,0,1,.3.68A.5.5,0,0,1,228.49,423.19Z" transform="translate(-1.76 -78.83)"/><path class="cls-3" d="M228.49,423.19a.5.5,0,0,1-.48-.48c0-.29-.61-7,.58-10.88a.48.48,0,0,1,.62-.33.54.54,0,0,1,.31.67c-1.12,3.63-.55,10.37-.54,10.43a.53.53,0,0,1-.44.59Z" transform="translate(-1.76 -78.83)"/><path class="cls-3" d="M218.54,426.3a.47.47,0,0,1-.43-.28.56.56,0,0,1,.19-.72c3.9-2.3,9.88-3.14,10.13-3.17a.51.51,0,0,1,.55.46.52.52,0,0,1-.43.59c-.06,0-6,.85-9.78,3.06A.53.53,0,0,1,218.54,426.3Z" transform="translate(-1.76 -78.83)"/></g><path class="cls-48" d="M260,406.8l-9.35,27.82a2.59,2.59,0,0,1-3.15,1.79l-16.42-4.74a2.83,2.83,0,0,1-2-2.69l-.46-16.55a2.85,2.85,0,0,1,2.05-2.89L256.91,403C259,402.5,260.7,404.66,260,406.8Z" transform="translate(-1.76 -78.83)"/><path class="cls-49" d="M252.52,412.41s-8.06,5-13.15-5.3S246.85,391.84,253,391c8.15-1.12,16.58.56,16.37,10.48-.11,5.37-5.38,7.8-5.38,7.8a12.5,12.5,0,0,0,1.31,3.95c1.38,2.65,3.71,5.79,3.69,6.52,0,1.33-11.83,7.82-13.37,6.39,0,0-.79-4.4-1.38-7.76A34.41,34.41,0,0,0,252.52,412.41Z" transform="translate(-1.76 -78.83)"/><path class="cls-50" d="M252.32,413.3a.47.47,0,0,1-.36-.18.57.57,0,0,1,0-.75,7.27,7.27,0,0,0,1.88-2.75,3.43,3.43,0,0,0-.26-3,1.71,1.71,0,0,0-2.35-.55.45.45,0,0,1-.68-.12.56.56,0,0,1,.11-.74,2.66,2.66,0,0,1,3.7.76,4.63,4.63,0,0,1,.4,4.06,8.28,8.28,0,0,1-2.15,3.16A.47.47,0,0,1,252.32,413.3Z" transform="translate(-1.76 -78.83)"/><path class="cls-50" d="M263.39,410a3.87,3.87,0,0,1-3.38-2.12,4.53,4.53,0,0,1,.83-5.09.47.47,0,0,1,.69.05.58.58,0,0,1,0,.76,3.36,3.36,0,0,0-.61,3.77,2.79,2.79,0,0,0,3.25,1.45.48.48,0,0,1,.6.36.53.53,0,0,1-.33.66A3.08,3.08,0,0,1,263.39,410Z" transform="translate(-1.76 -78.83)"/><path class="cls-51" d="M301.55,456c-8.32,2.24-18,3.59-31,3.64h-3.1c-74.43-.19-68.36-48.11-68.36-48.11.76,4.35,7.08,7.2,15.69,9.05,17.12,3.69,43.37,3.43,52.67,3.19v-.11h3.1v.11c14.27.36,66.14.77,68.41-12.24C338.93,411.5,343.23,444.77,301.55,456Z" transform="translate(-1.76 -78.83)"/></g></g></svg>