<svg id="Layer_1" data-name="Layer 1" xmlns="http://www.w3.org/2000/svg" viewBox="0 0 1040.81 1080"><defs><style>.cls-1{fill:#002318;}</style></defs><title>login</title><path class="cls-1" d="M187.5-.5c-13.59.6-65.68,4.51-106,46-39.07,40.21-49.44,97.55-39,142,16.52,70.33,75.55,67.61,97,133,27.6,84.14-56.56,130-32,199,32.45,91.13,200.43,70.19,223,155,16.33,61.34-64.49,102.79-44,150C316.21,893,500,838.4,563,936c19.08,29.54,8.16,43.71,30,73,42.83,57.45,130.33,64,196,61l290.5,9.5V-.5Z" transform="translate(-38.69 0.5)"/><path class="cls-1" d="M1167,851" transform="translate(-38.69 0.5)"/></svg>