<svg xmlns="http://www.w3.org/2000/svg" xmlns:xlink="http://www.w3.org/1999/xlink" viewBox="0 0 1082 1080"><defs><style>.cls-1{isolation:isolate;}.cls-2{fill:url(#Новый_образец_градиента_2);}.cls-3{fill:url(#Новый_образец_градиента_2-2);}.cls-4{fill:url(#Новый_образец_градиента_2-3);}.cls-5{fill:#2ba14c;}.cls-6{fill:#352e73;}.cls-7{fill:#7271b3;}.cls-8{fill:#fc008b;}.cls-14,.cls-9{fill:#ff7a03;}.cls-10{fill:#fcc13f;}.cls-11{fill:#8cd334;}.cls-12{fill:#fee2bf;}.cls-13{fill:#fae0b2;}.cls-14{opacity:0.68;}.cls-15{fill:#f3ffff;}.cls-16{fill:#d6007e;}.cls-17{fill:#ffa42f;}.cls-18{fill:#7f1ca0;}.cls-19{fill:#adeff7;}.cls-20{fill:#2d2861;}.cls-21{fill:#f7a491;}.cls-22,.cls-25{fill:#f47458;}.cls-22{opacity:0.5;mix-blend-mode:multiply;}.cls-23{fill:#f48c7f;}.cls-24{fill:#f79c8d;}</style><linearGradient id="Новый_образец_градиента_2" x1="446.79" y1="178.2" x2="442.77" y2="621.52" gradientUnits="userSpaceOnUse"><stop offset="0" stop-color="#8bf9fd"/><stop offset="0.99" stop-color="#fafee5"/></linearGradient><linearGradient id="Новый_образец_градиента_2-2" x1="312.05" y1="175.97" x2="308.02" y2="620.07" xlink:href="#Новый_образец_градиента_2"/><linearGradient id="Новый_образец_градиента_2-3" x1="754.69" y1="180.3" x2="750.66" y2="624.44" xlink:href="#Новый_образец_градиента_2"/></defs><title>think</title><g class="cls-1"><g id="Layer_1" data-name="Layer 1"><path class="cls-2" d="M606.54,654.43H279.34c-25.88,0-46.85-22.92-46.85-51.2h0c0-28.27,21-51.19,46.85-51.19h327.2c25.87,0,46.85,22.92,46.85,51.19h0C653.39,631.51,632.41,654.43,606.54,654.43Z" transform="translate(3 0)"/><path class="cls-3" d="M525.13,320.13h0c26.34,0,47.7-24.08,47.7-53.79h0c0-29.71-21.36-53.79-47.7-53.79H190.3c-23.67,0-42.85,21.64-42.85,48.33h0c0,32-23,57.91-51.36,57.91H87.47c-29.07,0-52.64,26.58-52.64,59.37h0c0,32.79,23.57,59.37,52.64,59.37h0c28.36,0,51.35,25.93,51.35,57.91v11c0,26.69,19.19,48.33,42.86,48.33H531.9c29.07,0,52.64-26.58,52.64-59.37v-.06c0-32.75-23.54-59.31-52.59-59.31h0C503.56,436.07,500.51,320.13,525.13,320.13Z" transform="translate(3 0)"/><path class="cls-4" d="M586.9,442.74v-8c0-29-19.26-52.42-43-52.42h0c-25.42,0-46-25.11-46-56.08h0c0-31,20.6-56.08,46-56.08H866.94c22.83,0,41.35,22.56,41.35,50.38h0c0,33.35,22.18,60.38,49.54,60.38h8.32c28.06,0,50.79,27.71,50.79,61.89h0c0,34.19-22.73,61.9-50.79,61.9h0c-27.36,0-49.54,27-49.54,60.37v11.52c0,27.82-18.51,50.38-41.35,50.38H537.35c-28.05,0-50.79-27.71-50.79-61.9V565c0-34.15,22.72-61.83,50.75-61.83h0C564.7,503.18,586.9,476.12,586.9,442.74Z" transform="translate(3 0)"/><path class="cls-5" d="M106.8,298.5c-9-10.38-24.1-10.07-24.21-10.1a26.4,26.4,0,0,0-16.88,6,21.91,21.91,0,0,0-3.9,4.09L65.26,301c.45-1.5,3.32-5.17,6.93-7.18A21.36,21.36,0,0,1,82.94,291c7-.12,15.75,3,20.87,8.78A10.06,10.06,0,0,0,106.8,298.5Z" transform="translate(3 0)"/><path class="cls-6" d="M19,421.64c17.79,8.65,38.79-.49,46.91-20.42,5.91-14.49,3.36-30.7-5.3-41.79,10.64-30.5,10.38-58.17-1.29-63.85-5.44-2.65-11.17.17-15,2.7-7.15,4.66-12.63,11.38-17.37,18.17a217.61,217.61,0,0,0-15.78,26.61c-4.47,8.87-8.87,18-11.73,27.66A51.88,51.88,0,0,0-2.2,395.21,35,35,0,0,0,8.53,414.63,44.15,44.15,0,0,0,19,421.64Z" transform="translate(3 0)"/><path class="cls-7" d="M60.2,315s-12.79,42.92-12.79,47.63,10.85,8.8,8.22,25.87S43.32,412,33.25,409.32,20,392.08,27.9,391.18s15.52,1.43,17.84-8.09S42,362.5,42,362.5Z" transform="translate(3 0)"/><path class="cls-5" d="M60.69,318.33l-.51-3.53a.86.86,0,0,0-1.06-.66l-2.95,1a.84.84,0,0,1-1.07-.77l.09-3.13a.84.84,0,0,0-1.14-.74l-4.37,2.22-.18.09L48.41,307a.85.85,0,0,0-1.07-.63l-3.86,1.47a.84.84,0,0,1-1.08-.69L42,302.36a.84.84,0,0,0-.62-.7l-2.56-.74a.76.76,0,0,1-.53-1.06c7.67-11.74,20.32-9,21.14-8.83l.08,0A23.14,23.14,0,0,1,64,293.1c12.41,7.35,8.48,23.14,6.53,28.87-.21.62-1.22.44-1.39-.25l-.2-.81a.8.8,0,0,0-1.27-.45h0a.81.81,0,0,1-1.26-.38l-.7-1.89a.85.85,0,0,0-1.07-.5L61.8,319A.85.85,0,0,1,60.69,318.33Z" transform="translate(3 0)"/><path class="cls-8" d="M225.85,253.18l-78.29-70.4c-17.79,23.63-14.69,58.54,6.93,78S208.06,276.81,225.85,253.18Z" transform="translate(3 0)"/><path class="cls-9" d="M187.86,261.16l-5.37-35.39-20,26.49A36.92,36.92,0,0,0,187.86,261.16Z" transform="translate(3 0)"/><path class="cls-9" d="M188.25,226.28l5.2,34.26a38.48,38.48,0,0,0,20.45-11.2Z" transform="translate(3 0)"/><path class="cls-9" d="M178.75,221.09c-11.36.19-21.31.51-31.33,1.49a44.45,44.45,0,0,0,11,25.56Z" transform="translate(3 0)"/><path class="cls-9" d="M147.22,216.45c9.22-.9,18.34-1.23,28.5-1.44l-22.41-20.15A46.23,46.23,0,0,0,147.22,216.45Z" transform="translate(3 0)"/><path class="cls-10" d="M195.32,241.57a2.65,2.65,0,0,0,1.35-3.3c-.4-1.45-2.94-4.87-4.06-4.41s-.48,4.31-.08,5.76A2.35,2.35,0,0,0,195.32,241.57Z" transform="translate(3 0)"/><path class="cls-10" d="M207,250.23a2.73,2.73,0,0,0-.1-3.62c-.93-1.12-4.58-3-5.4-2s1.28,4.11,2.22,5.23A2.22,2.22,0,0,0,207,250.23Z" transform="translate(3 0)"/><path class="cls-10" d="M179,260.06a2.48,2.48,0,0,0,2.24-2.67c0-1.51-1.38-5.63-2.57-5.58s-1.71,3.92-1.75,5.43A2.53,2.53,0,0,0,179,260.06Z" transform="translate(3 0)"/><path class="cls-10" d="M173.78,248.71a2.23,2.23,0,0,0,3.29-.46c.93-1.12,2.28-5.27,1.34-6.07s-3.62,1.78-4.55,2.91A2.75,2.75,0,0,0,173.78,248.71Z" transform="translate(3 0)"/><path class="cls-10" d="M159,239.22a2.21,2.21,0,0,0,3.28-.45c.93-1.13,2.29-5.27,1.34-6.07s-3.61,1.78-4.55,2.9A2.75,2.75,0,0,0,159,239.22Z" transform="translate(3 0)"/><path class="cls-10" d="M165.23,228.79a2.33,2.33,0,0,0,2.94,1.67c1.35-.35,4.63-2.92,4.27-4.16s-3.9-.78-5.25-.44A2.58,2.58,0,0,0,165.23,228.79Z" transform="translate(3 0)"/><path class="cls-10" d="M152.1,211.14a2.54,2.54,0,0,0,2.14,2.77c1.36.24,5.29-.78,5.39-2.08s-3.34-2.35-4.71-2.59A2.36,2.36,0,0,0,152.1,211.14Z" transform="translate(3 0)"/><path class="cls-10" d="M160.07,207.69a2.73,2.73,0,0,0,.73,3.53c1.12.9,5,2,5.67.86s-2-3.76-3.1-4.66A2.21,2.21,0,0,0,160.07,207.69Z" transform="translate(3 0)"/><path class="cls-5" d="M247.6,532.28c5.41,1.89,7.86,9,5.49,15.91s-8.67,10.95-14.07,9.06-7.86-9-5.49-15.91S242.2,530.4,247.6,532.28Z" transform="translate(3 0)"/><path class="cls-11" d="M246.39,533.44a3,3,0,0,1,2.84,3.11,2.94,2.94,0,0,1-3.09,2.81,3,3,0,0,1-2.84-3.11A2.94,2.94,0,0,1,246.39,533.44Z" transform="translate(3 0)"/><path class="cls-5" d="M236.73,150.12l.53-.31a3.3,3.3,0,0,1,3.65.15,0,0,0,0,0,0,0,3.27,3.27,0,0,0,3.18.49l.56-.19a3.93,3.93,0,0,0,2.25-2.53s0,0,0-.07a3.57,3.57,0,0,1,2.8-2.54l.6-.11a3.3,3.3,0,0,1,3.37,1.51v0a3.62,3.62,0,0,0,2.86,1.67h.59a3.43,3.43,0,0,0,2.89-1.51s0,0,0-.05a3.31,3.31,0,0,1,3.43-1.38l.59.13a3.63,3.63,0,0,1,2.7,2.67l0,.06a3.86,3.86,0,0,0,2.15,2.62l.54.23a3.37,3.37,0,0,0,3.2-.37l0,0a3.28,3.28,0,0,1,3.65,0l.49.32a3.84,3.84,0,0,1,1.71,3.52s0,0,0,.07a4.05,4.05,0,0,0,1.2,3.24l.46.44a3.37,3.37,0,0,0,3.11.84s0,0,.06,0a3.33,3.33,0,0,1,3.43,1.37l.37.5a4.08,4.08,0,0,1,.49,4v0a4.25,4.25,0,0,0,.09,3.51l.31.57a3.57,3.57,0,0,0,2.67,2h0a3.55,3.55,0,0,1,2.81,2.58l.2.59a4.2,4.2,0,0,1-.77,3.91l0,0a4.16,4.16,0,0,0-1,3.35l.09.63a3.93,3.93,0,0,0,1.89,2.87h0a3.92,3.92,0,0,1,1.83,3.45l0,.65a3.78,3.78,0,0,1-1.93,3.37l-.05,0a4,4,0,0,0-2,2.77l-.12.65a4.1,4.1,0,0,0,.9,3.38v0a4.1,4.1,0,0,1,.64,3.94l-.21.59a3.56,3.56,0,0,1-2.9,2.47h0a3.45,3.45,0,0,0-2.73,1.86l-.32.55a4.23,4.23,0,0,0-.23,3.5l0,0a4.1,4.1,0,0,1-.64,3.93l-.38.49a3.32,3.32,0,0,1-3.5,1.22h0a3.4,3.4,0,0,0-3.15.74l-.45.4a4.11,4.11,0,0,0-1.33,3.21l0,.06a4,4,0,0,1-1.82,3.46l-.54.31a3.35,3.35,0,0,1-1.88.48l-3.13-6.45-29.21-59.88-4.7-9.69A2,2,0,0,1,236.73,150.12Z" transform="translate(3 0)"/><path class="cls-11" d="M240.94,160.19c14-8.13,31.53-2,39.16,13.68s2.46,34.89-11.48,43Z" transform="translate(3 0)"/><path class="cls-12" d="M274.09,204.75a3.37,3.37,0,0,1-.12,4.47,2.72,2.72,0,0,1-4.09-.13c-1.1-1.28-3.83-7-2.67-8.2S273,203.48,274.09,204.75Z" transform="translate(3 0)"/><path class="cls-12" d="M276.17,190a3,3,0,0,1,3.11,2.9,3.08,3.08,0,0,1-2.65,3.4c-1.59.14-7.4-1.1-7.52-2.85S274.57,190.16,276.17,190Z" transform="translate(3 0)"/><path class="cls-12" d="M271.36,175.48a2.73,2.73,0,0,1,4.08.3,3.36,3.36,0,0,1-.28,4.46c-1.2,1.15-6.55,3.92-7.6,2.6S270.16,176.62,271.36,175.48Z" transform="translate(3 0)"/><path class="cls-12" d="M259.88,166.9a2.8,2.8,0,0,1,3.85-1.53,3.31,3.31,0,0,1,1.4,4.2c-.68,1.58-4.54,6.48-6,5.75S259.21,168.48,259.88,166.9Z" transform="translate(3 0)"/><path class="cls-12" d="M247.06,165.07a3.09,3.09,0,0,1,2.64-3.42,3,3,0,0,1,3.13,2.88c.13,1.74-1,8.09-2.57,8.24S247.2,166.81,247.06,165.07Z" transform="translate(3 0)"/><path class="cls-8" d="M929.4,186.39c-16.67-17.82-43.25-17.33-59.38,1.09s-15.68,47.8,1,65.62,43.25,17.33,59.38-1.09S946.07,204.21,929.4,186.39ZM889,232.55a19.15,19.15,0,0,1-.37-25.19,15.07,15.07,0,0,1,22.8-.42,19.18,19.18,0,0,1,.38,25.2A15.07,15.07,0,0,1,889,232.55Z" transform="translate(3 0)"/><path class="cls-13" d="M896.4,191.43h0a2.51,2.51,0,0,1,0-3.32l2.95-3.38a2,2,0,0,1,3-.06h0a2.54,2.54,0,0,1,.05,3.33l-3,3.37A2,2,0,0,1,896.4,191.43Z" transform="translate(3 0)"/><path class="cls-13" d="M923.85,237.83h0a2,2,0,0,1-3-.51l-2.5-3.8a2.51,2.51,0,0,1,.46-3.28h0a2,2,0,0,1,3,.51l2.51,3.8A2.51,2.51,0,0,1,923.85,237.83Z" transform="translate(3 0)"/><path class="cls-13" d="M885.34,198l-.07.42a2,2,0,0,1-2.28,1.68l-3-.66a2.13,2.13,0,0,1-1.52-2.51l.07-.41a2,2,0,0,1,2.28-1.69l3,.66A2.13,2.13,0,0,1,885.34,198Z" transform="translate(3 0)"/><path class="cls-13" d="M907.59,250l-.07.41a2,2,0,0,1-2.28,1.68l-3-.65a2.14,2.14,0,0,1-1.52-2.52l.07-.41a2,2,0,0,1,2.28-1.68l3,.65A2.14,2.14,0,0,1,907.59,250Z" transform="translate(3 0)"/><path class="cls-13" d="M917.65,198.63l-.3.26a1.81,1.81,0,0,1-2.72-.34l-1.91-2.64a2.3,2.3,0,0,1,.31-3l.3-.26a1.81,1.81,0,0,1,2.72.34l1.91,2.64A2.31,2.31,0,0,1,917.65,198.63Z" transform="translate(3 0)"/><path class="cls-13" d="M893.07,251.26h0a2,2,0,0,1-3-.37l-1.67-2.32a2.52,2.52,0,0,1,.34-3.3h0a2,2,0,0,1,3,.38l1.67,2.31A2.52,2.52,0,0,1,893.07,251.26Z" transform="translate(3 0)"/><path class="cls-13" d="M930.73,214.37l0,.42a2.06,2.06,0,0,1-1.82,2.25l-3.06.2a2,2,0,0,1-2-2l0-.42a2.06,2.06,0,0,1,1.82-2.25l3-.2A2,2,0,0,1,930.73,214.37Z" transform="translate(3 0)"/><path class="cls-13" d="M879,234.86l0,.42a2.07,2.07,0,0,1-1.82,2.26l-3,.2a2,2,0,0,1-2.05-2l0-.42a2.08,2.08,0,0,1,1.82-2.26l3.06-.19A2,2,0,0,1,879,234.86Z" transform="translate(3 0)"/><path class="cls-13" d="M875.89,218.37h0a2,2,0,0,1-2.95-.62l-2.4-3.88a2.5,2.5,0,0,1,.56-3.26h0a2,2,0,0,1,3,.62l2.39,3.88A2.5,2.5,0,0,1,875.89,218.37Z" transform="translate(3 0)"/><polygon class="cls-10" points="934.81 386.81 855.77 447.24 853.8 441.59 833.01 382.14 887.88 340.19 934.81 386.81"/><polygon class="cls-14" points="887.88 422.69 864.27 440.75 841.13 375.93 850.46 368.8 887.88 422.69"/><polygon class="cls-14" points="918.44 399.33 900.41 413.12 862.5 359.59 871.97 352.35 918.44 399.33"/><path class="cls-15" d="M860.51,353.14s-10.66,6.42-18,9.79-19.66,10.23-19.29,17.75,7.13,13.29,10.41,11.47,5-4.49,6.33-8.31.5-6.21.07-8.53c0,0-.29-2.46,3,.61s6.22,19.55,10.78,25.43,10.78-.1,8.17-5.5c-2-4.22-18.23-17.82-17.34-22.14s4.26-5.57,6.63-2.87,4,12.85,7.45,16.35c3.61,3.66,7.86-1.85,5.36-6s-12.11-10.64-10.89-13,7.18,1.22,13.63.63,7.94-10.41,7.71-14.75,3.44-13.73,11.45-8.4,14.69,28.15,19,32.86,13.46-.05,9.91-8.09c-3-6.8-18.39-18.91-24.45-25.1-1.19-1.21-2.23-3-1.76-4.69.76-2.71-.22-5.58-2.84-7.77-4.78-4-12.88-2.22-17.78,5A66.89,66.89,0,0,0,860.51,353.14Z" transform="translate(3 0)"/><path class="cls-15" d="M870.52,345s-7.25,3.81-7.67,4.13-11.34,3.12-16.19,7.7-10.75,12.72-10.75,12.72,26-12.43,26.34-12.67S870.52,345,870.52,345Z" transform="translate(3 0)"/><path class="cls-9" d="M850.43,320.12c3.75.57,7.82,2.74,9.52,6.45,2.78,5.91-.58,13.34-2.41,17.08-.38.78-1,1.25-1.12,1.68,1.88-4.66,4.36-9.72,3.76-14.81-.6-5.4-5-8.33-9.95-8.9Z" transform="translate(3 0)"/><path class="cls-8" d="M865,348c.78,4.06-2.48,8.24-7.28,9.33s-9.31-1.31-10.09-5.38,2.48-8.24,7.28-9.33S864.22,343.89,865,348Z" transform="translate(3 0)"/><path class="cls-16" d="M858.8,342.45c4.74,4,1.83,11.49-5.07,13.06a10.12,10.12,0,0,1-3.9.13,9.1,9.1,0,0,0,7.88,1.65c4.8-1.09,8.06-5.27,7.28-9.33A7.19,7.19,0,0,0,858.8,342.45Z" transform="translate(3 0)"/><path class="cls-5" d="M923.06,283.53c.09.21.17.42.26.62.54,1.3,1.09,2.6,1.63,3.89l.45,1.07,36.07-9.75,20.7-16.6L980,256.25l-1.95.68-1,2.23-2.28.07-1.07,2.21h-2.29l-1.11,2.18-2.28,0-1.16,2.15-2.28-.09-1.2,2.12-2.28-.14-1.24,2.09-2.28-.2-1.29,2.06-2.27-.26-1.33,2-2.27-.33L949,275l-2.25-.4-1.45,1.93L943.1,276l-1.5,1.88-2.22-.57-1.57,1.81-2.2-.68L934,280.22l-2.16-.79-1.73,1.64-2.12-.92-1.81,1.53-2.06-1.06-1.93.75C922.46,282.09,922.76,282.81,923.06,283.53Z" transform="translate(3 0)"/><path class="cls-11" d="M925.25,288.57c-.48.05,11.54,24.12,13.31,31.13s9.72,31.14,9.72,31.14l58.28-24.9s-15.36-32.17-18.86-42.8-5.05-20.43-5.53-20.38S941,286.7,925.25,288.57Z" transform="translate(3 0)"/><path class="cls-9" d="M971.7,348.05s7.42,12.6,26.2,7.71c17.3-4.51,15.64-24.93,6.49-25.68s-18.76,1.27-24.18-.66C970.26,325.88,966.39,342.14,971.7,348.05Z" transform="translate(3 0)"/><path class="cls-10" d="M993.74,322.26a15.16,15.16,0,0,0-.62,6.21,15.64,15.64,0,0,0,7.08,11.72c9.84,6.33,31.52.15,27-12.18s-14.33-1.62-20.34-4.73c-2.7-1.39-4.45-4.17-7.43-4.7C997.08,318.15,994.46,320.24,993.74,322.26Z" transform="translate(3 0)"/><path class="cls-10" d="M1008,279.44a13.1,13.1,0,0,0,17.41,3.06c10-6,16.19-29.55,4.21-31.63s-8.58,12.64-14.1,16.71c-2.47,1.82-5.55,2.05-7.49,4.58C1006.46,274.2,1006.77,277.72,1008,279.44Z" transform="translate(3 0)"/><path class="cls-10" d="M970.45,336.43a16.47,16.47,0,0,1-12.32,1.83c-3.07-.78-10.13-1.21-14,2.87-7.06,7.4-3.63,18.57,6.5,23,8.88,3.85,34.09,1.32,34-18.65C984.62,331.47,976.91,332.7,970.45,336.43Z" transform="translate(3 0)"/><path class="cls-12" d="M989.41,297.55c2.56,7.86-5.91,18.35-18.92,23.42s-25.65,2.8-28.21-5.06,5.9-18.35,18.92-23.42S986.84,289.68,989.41,297.55Z" transform="translate(3 0)"/><path class="cls-9" d="M947.64,356.61c1.64-1.36,2.54-3.83,3.47-5.79a27.66,27.66,0,0,0,2.36-7,.51.51,0,0,0-1-.32c-1.15,2.09-2.09,4.36-3.07,6.55-.86,1.94-2.27,3.91-2.64,6a.55.55,0,0,0,.85.56Z" transform="translate(3 0)"/><path class="cls-9" d="M953.72,358.6c3-1.36,5.44-9.84,6.16-13.4.17-.86-1.14-1.31-1.38-.44a48.3,48.3,0,0,1-2.64,7c-.87,1.9-2.66,4.12-2.79,6.25,0,.38.29.72.65.56Z" transform="translate(3 0)"/><path class="cls-9" d="M962.81,357a13.74,13.74,0,0,0,.94-4.33c.24-1.63.66-3.23.89-4.86a1.19,1.19,0,0,0-2.25-.73c-1,2.7-2,7.11-.88,9.89a.69.69,0,0,0,1.3,0Z" transform="translate(3 0)"/><path class="cls-9" d="M969.36,355.09c.3-1.95.48-4.63-.5-6.39-.71-1.26-2.52,1.64-.6,6.52a.57.57,0,0,0,1.1-.13Z" transform="translate(3 0)"/><path class="cls-9" d="M971.44,348.7c.87,4.53,3,3.3,2.77,2.18a5.83,5.83,0,0,0-1.65-2.84.7.7,0,0,0-1.12.66Z" transform="translate(3 0)"/><path class="cls-9" d="M999.9,324.86a13.58,13.58,0,0,0-1.75,4.25c-.34,1.39-.86,3-.1,4.26a.65.65,0,0,0,1,.16c.91-.94.9-2.25,1.15-3.53.3-1.55.65-3,.85-4.6.09-.64-.73-1.12-1.11-.54Z" transform="translate(3 0)"/><path class="cls-9" d="M1003.36,326.9c-.64,1.84-1.8,7.14-1.25,9.13a.73.73,0,0,0,1.37,0,14.07,14.07,0,0,0,.6-4.17c.15-1.54.39-3.05.48-4.6,0-.73-.93-1.17-1.2-.39Z" transform="translate(3 0)"/><path class="cls-9" d="M1008.09,327.45c-.14,1.66-.48,7.3,0,9a.7.7,0,0,0,1.31,0c.75-2.69.15-6.27-.15-9a.61.61,0,0,0-1.21,0Z" transform="translate(3 0)"/><path class="cls-9" d="M1012.44,328.1a11.72,11.72,0,0,0,0,3.24c.21,2.53.22,3.91,1.2,4,.78.06,1.2-.44,1.2-1.25a26.93,26.93,0,0,0-1.06-6.14.7.7,0,0,0-1.36.16Z" transform="translate(3 0)"/><path class="cls-9" d="M1017.3,328.28c-.75,1.74-.57,4.33.64,4.47a.94.94,0,0,0,1.08-.56c.51-1.06-.67-1.9-.53-3.52.07-.77-.88-1.12-1.19-.39Z" transform="translate(3 0)"/><path class="cls-9" d="M1014.25,275.12c.84,1.79,1.87,1.72,2.76,5.45.27,1.16,2,.67,1.87-.51-.31-2.2-1.79-5.42-4.07-5.7a.56.56,0,0,0-.56.76Z" transform="translate(3 0)"/><path class="cls-9" d="M1016.86,272.68c4.86,4.72,4.13,6.39,5.9,7.31a.66.66,0,0,0,.91-.53c.31-1.66-1.23-3.45-2.16-4.58a11.83,11.83,0,0,0-4.08-3.22c-.58-.29-1,.57-.57,1Z" transform="translate(3 0)"/><path class="cls-9" d="M1020.27,268.34c5.49,4.15,5.64,6.68,7.33,6.48a.61.61,0,0,0,.49-.39c.48-1.6-1.48-3.09-2.45-4a16.81,16.81,0,0,0-4.76-3.16.64.64,0,0,0-.61,1.09Z" transform="translate(3 0)"/><path class="cls-9" d="M1023.23,263.29c1.94,1.51,4.08,2.7,5.92,4.36,1.2,1.08,2.72-1,1.51-2-2.05-1.78-4.27-3.32-6.92-3.57a.72.72,0,0,0-.51,1.25Z" transform="translate(3 0)"/><path class="cls-9" d="M1029.27,260a1,1,0,0,0,1.14.36h0a.57.57,0,0,0,.47-.38l0,.06a1.17,1.17,0,0,0-.15-1.49,4.39,4.39,0,0,0-4.07-1.19c-.58.12-.72,1.18,0,1.24A4,4,0,0,1,1029.27,260Z" transform="translate(3 0)"/><path class="cls-10" d="M1022.24,298.39a18.18,18.18,0,0,0,4.18,7.54c4.76,5.26,11.89,7.94,19.44,7.71,18.91-.56,44.2-24.68,27.92-35.15s-21.35,9.45-32.29,10.67c-4.9.55-9.62-1.23-14.21.52C1023.58,291.08,1021.61,295.51,1022.24,298.39Z" transform="translate(3 0)"/><path class="cls-9" d="M1035.1,294.58c-.84,1.09-.1,2.82,0,4,.08,1.45-.6,3.33.18,4.65a.62.62,0,0,0,.88.18c1.37-1.12,1.07-3.26.93-4.76-.12-1.29-.18-3.56-1.76-4.16a.19.19,0,0,0-.19.05Z" transform="translate(3 0)"/><path class="cls-9" d="M1040.92,293.69a55.92,55.92,0,0,0,.81,6c.24,2-.13,4.15.7,6a.68.68,0,0,0,1.17,0c.92-1.75.45-4,.21-5.9a14.63,14.63,0,0,0-1.86-6.23c-.24-.36-1-.37-1,.16Z" transform="translate(3 0)"/><path class="cls-9" d="M1047.91,291.92c2.45,9.05,1.58,11.19,3.2,13.19,1,1.18,4,0-2.18-13.47-.22-.49-1.16-.25-1,.28Z" transform="translate(3 0)"/><path class="cls-9" d="M1053.46,289.19c-.32,2,1.47,4.47,2.35,6.23a34.74,34.74,0,0,0,3.7,6.41c.52.63,1.75.14,1.57-.62a33.24,33.24,0,0,0-2.93-6.72c-.9-1.77-1.82-4.61-3.69-5.7a.66.66,0,0,0-1,.4Z" transform="translate(3 0)"/><path class="cls-9" d="M1059,285c2.33,3.34,4.31,6.94,6.77,10.2,1.09,1.43,3.3-.07,2.72-1.49-1.53-3.84-5-7.14-8.71-9.43a.54.54,0,0,0-.78.72Z" transform="translate(3 0)"/><path class="cls-9" d="M1065.08,282.4c.94,1.45,2.86,4.76,4.77,4.71.68,0,1.31-.35,1.37-1,.17-1.79-3.49-3.72-5-4.54-.61-.34-1.61.2-1.19.85Z" transform="translate(3 0)"/><path class="cls-17" d="M785,270a52.06,52.06,0,0,1-17.6,4.64c-12.55,1-24.09-5-31.66-16.45-7.27-11-9.67-25-6-34.86,4.34-11.6,16.44-17.72,26.14-17.77a21.64,21.64,0,0,1,9.31,2c2.41-5.94,6.74-10.85,11.88-13.2,6.83-3.13,16.3-2,24.13,2.9,8.35,5.22,13.67,13.93,15,24.52,1.23,10-2,20.79-9.13,30.36A57.62,57.62,0,0,1,785,270Zm-36-49.25a14.57,14.57,0,0,0-7.78,7.71c-1.73,4.63-.73,13.84,4.53,21.78,2.94,4.43,9.54,11.74,20.73,10.87,11.69-.91,23.54-7.64,30.93-17.57,4.94-6.64,7.23-13.73,6.46-20-1-8.09-5.37-12.38-8.85-14.56-4.91-3.07-10.44-3.41-13.16-2.16-2.87,1.32-5.39,4.95-6.12,8.83-.39,2.09-.17,4,.56,4.78a7.24,7.24,0,0,1-.14,9.59,6,6,0,0,1-2.47,1.61,31.42,31.42,0,0,1-1.5,2.94,5.91,5.91,0,0,1-8.56,2.15,7.18,7.18,0,0,1-2-9.36c1.55-2.7,1.6-4.08,1.49-4.36-1.3-3.4-5.09-3.89-7.24-3.88A17.27,17.27,0,0,0,749.08,220.79Z" transform="translate(3 0)"/><path class="cls-9" d="M810.57,218.36a56.11,56.11,0,0,1-6.75,4.44c0,.26.09.52.13.79.77,6.25-1.52,13.34-6.44,20a50.16,50.16,0,0,0,8.71-3.09,64.67,64.67,0,0,0,9.09-5.13,36.76,36.76,0,0,0,.94-13.55,40.2,40.2,0,0,0-.8-4.37A5.17,5.17,0,0,0,810.57,218.36Z" transform="translate(3 0)"/><path class="cls-9" d="M756.4,259.5a25.15,25.15,0,0,1-10.57-9.22c-.41-.63-.79-1.27-1.16-1.9-3.69,3.45-7.25,6.4-9.82,8.39.3.49.61,1,.93,1.46A38.9,38.9,0,0,0,746,268.85C748.86,266.51,752.59,263.28,756.4,259.5Z" transform="translate(3 0)"/><path class="cls-17" d="M804.38,233.37c-10.74,4.93-26.22,8.61-36.91-3.44a7.24,7.24,0,0,1,.13-9.6,5.84,5.84,0,0,1,8.78.15c10.14,11.43,33-5.29,33.26-5.46a5.88,5.88,0,0,1,8.63,1.73,7.17,7.17,0,0,1-1.59,9.43A71.55,71.55,0,0,1,804.38,233.37Z" transform="translate(3 0)"/><path class="cls-17" d="M740.75,264.58a5.94,5.94,0,0,1-7.66-2.68,7.16,7.16,0,0,1,2-9.34h0c5.58-3.8,21.26-15.73,26.67-25.15a5.91,5.91,0,0,1,8.56-2.14,7.17,7.17,0,0,1,2,9.35c-8,14-29.72,28.83-30.64,29.46A6.41,6.41,0,0,1,740.75,264.58Z" transform="translate(3 0)"/><path class="cls-11" d="M224.73,313.9s-1.82,6.89,3.53,11,18.71-6.55,23.21-8.77,6.2-.47,6.2-.47-10.16-22.55-25.88-19C222.41,298.69,222,306.08,224.73,313.9Z" transform="translate(3 0)"/><path class="cls-5" d="M246.05,315.3c-1.57-.27-5.42-1.18-6.9-2.42a124.73,124.73,0,0,1,14.78,1c-2.45-.61-5.59-1.26-9-1.76.27-2.28,4.33-3.07,4.37-3.07.28-.06.2-.52-.08-.47s-4.41.86-4.72,3.48c-1.53-.22-3.11-.41-4.69-.55.51-4.07,6.18-6.11,6.24-6.14a.24.24,0,0,0,.14-.29A.22.22,0,0,0,246,305c-.26.09-6,2.17-6.53,6.54-1.67-.14-3.34-.23-4.95-.24,0-5.19,6.58-8.95,6.65-9,.25-.14,0-.56-.2-.41s-6.9,3.94-6.88,9.4a37.59,37.59,0,0,0-5.69.39c-.7-5.22,4.34-10.14,4.4-10.19a.25.25,0,0,0,0-.33.21.21,0,0,0-.3,0c-.23.22-5.3,5.16-4.55,10.61a18.81,18.81,0,0,0-2.12.49c-7.36,2.23-9.05-3.49-9.49-4.05a.84.84,0,0,0-1-.5c-1.78.61.9,4.65,2.89,6.06,3.4,2.27,6.05,1.22,9.61.31a10.7,10.7,0,0,0,7.14,6.73h0a.22.22,0,0,0,.21-.2.24.24,0,0,0-.17-.27,10.26,10.26,0,0,1-6.8-6.38,28,28,0,0,1,4.26-.72c1.66,3.4,7.68,4.4,8,4.45h0a.23.23,0,0,0,.22-.2.25.25,0,0,0-.18-.27c-.07,0-5.87-1-7.56-4,1.8-.17,3.68-.25,5.59-.26,1.53,1.82,7.2,2.84,7.46,2.89a.21.21,0,0,0,.24-.2A.24.24,0,0,0,246.05,315.3Z" transform="translate(3 0)"/><path class="cls-15" d="M154.26,306.59s-26.81-6.54-35.94,20.88-4.28,52.36,12.27,56.41,20-10,37.64-11.53,30.23-37.09,16-52.67S154.26,306.59,154.26,306.59Z" transform="translate(3 0)"/><path class="cls-10" d="M165.38,345.26c0,11.19-8.3,20.26-18.54,20.26s-18.54-9.07-18.54-20.26S136.6,325,146.84,325,165.38,334.07,165.38,345.26Z" transform="translate(3 0)"/><path class="cls-17" d="M146.84,325a16.13,16.13,0,0,0-2.42.18c9.09,1.29,16.11,9.79,16.11,20.08s-7,18.79-16.11,20.09a17.56,17.56,0,0,0,2.42.17c10.24,0,18.54-9.07,18.54-20.26S157.08,325,146.84,325Z" transform="translate(3 0)"/><path class="cls-17" d="M173,432.7c-1.85-3.74-2.19-7.68.42-11.66,5.81-8.85,18.87-12.73,30.42-14.56,39.41-6.24,86.43,17.76,89.45,44.88S269,501.53,247.13,501.53s-42-31.78-45.57-38.95c-3.36-6.68-10-11-16-16C181,442.63,175.52,437.86,173,432.7Z" transform="translate(3 0)"/><path class="cls-9" d="M293.25,451.36c-3-27.12-50-51.12-89.45-44.88-11.55,1.83-24.61,5.71-30.42,14.56l-.13.21a73,73,0,0,1,18.51-5.15c39.4-6.23,86.43,17.76,89.45,44.88,1.44,13-4.07,25.06-12.61,34.1C283.34,486.37,295.3,469.8,293.25,451.36Z" transform="translate(3 0)"/><path class="cls-12" d="M259.31,467.72c0,7.06-7.16,12.79-16,12.79s-16-5.73-16-12.79,7.16-12.78,16-12.78S259.31,460.66,259.31,467.72Z" transform="translate(3 0)"/><path class="cls-9" d="M253.06,467.72c0,4.3-4.37,7.79-9.75,7.79s-9.75-3.49-9.75-7.79,4.37-7.78,9.75-7.78S253.06,463.42,253.06,467.72Z" transform="translate(3 0)"/><path class="cls-12" d="M258,478.9a3.75,3.75,0,1,1-3.73-3.39A3.57,3.57,0,0,1,258,478.9Z" transform="translate(3 0)"/><path class="cls-12" d="M223.31,426s-25.36,5.76-28.09,20.88C195.22,446.84,209.07,430.16,223.31,426Z" transform="translate(3 0)"/><path class="cls-12" d="M238,431.57s-34.86,10.53-31.48,27.27C206.54,458.84,219.57,439.05,238,431.57Z" transform="translate(3 0)"/><path class="cls-17" d="M103.41,471.6s14.94-16.3-3.72-23.86-23.14,12-23.14,12-29.56-19-34.09,10.11,17,21.76,17,21.76-13.26,27,7.77,27,19.6-18.38,19.6-18.38,20.64,20.21,29.47-2.45S103.41,471.6,103.41,471.6Zm5.61,23c-7,18.07-23.5,1.95-23.5,1.95s1.13,14.66-15.64,14.66-6.19-21.49-6.19-21.49S46.48,495.6,50.1,472.38s27.18-8.06,27.18-8.06,3.58-15.61,18.46-9.58,3,19,3,19S116.06,476.55,109,494.62Z" transform="translate(3 0)"/><path class="cls-5" d="M301.27,320.37s-5.07-25.67-18.42-23.27-9.8,13.67-5.58,13.67,3.11-8.2,10.09-5.67,11,15.27,11,15.27Z" transform="translate(3 0)"/><path class="cls-8" d="M286.23,330.53a14.94,14.94,0,0,0-17.41,7.2c-6.42,10.89,1.36,35.64,18.59,51s28.56,22.35,33.3,19.95,3.88-5.73,3.88-5.73,16.56,7.94,17.75-9.42c0,0,12.33,8.13,14.19-10.34s-9.63-81.26-31.6-77.94c0,0-10.83-.18-13.27,12.19C311.66,317.41,289.78,304.12,286.23,330.53Z" transform="translate(3 0)"/><path class="cls-10" d="M283.19,336.44c-2.82-2.08-11-2.59-9.74,10.34s37.12,57.06,43.2,55.22S297.43,346.93,283.19,336.44Z" transform="translate(3 0)"/><path class="cls-10" d="M307.13,323.69c-2.28-2.62-10.59-6.65-13,3s33.3,78.49,38.54,70.92S319.57,338,307.13,323.69Z" transform="translate(3 0)"/><path class="cls-10" d="M330.51,314.83c-1.74-2.36-7.7-5.71-11-1.48-7.09,9.14,22.31,83.48,26.54,75.35S341.38,329.59,330.51,314.83Z" transform="translate(3 0)"/><path class="cls-5" d="M185.06,505.05s-2,5.93-27.09,15.59c-28,10.77-41.07,12.78-49.34,42.07A179.83,179.83,0,0,1,135.72,558C162.46,555.7,182.28,531,185.06,505.05Z" transform="translate(3 0)"/><path class="cls-5" d="M185.06,504.66s2.51,4.06,6.13,29.22c5.85,40.68-21,56.88-40.64,49.09,0,0,21.25-12,24.54-30.85C178.05,535.19,185.06,504.66,185.06,504.66Z" transform="translate(3 0)"/><path class="cls-12" d="M158.54,537.47c0,5.25-3.9,9.5-8.7,9.5s-8.7-4.25-8.7-9.5,3.9-9.51,8.7-9.51S158.54,532.22,158.54,537.47Z" transform="translate(3 0)"/><path class="cls-12" d="M142,544.48a6,6,0,1,1-6-6.54A6.28,6.28,0,0,1,142,544.48Z" transform="translate(3 0)"/><path class="cls-12" d="M129.84,550.09a6,6,0,1,1-6-6.55A6.28,6.28,0,0,1,129.84,550.09Z" transform="translate(3 0)"/><ellipse class="cls-12" cx="167.53" cy="529.05" rx="5.99" ry="6.55"/><path class="cls-11" d="M152.41,529.05c12.15-1.95,25.26-15.52,30.4-21.35-2.95,2.63-9.68,7.1-24.84,12.94-28,10.77-41.07,12.78-49.34,42.07C108.63,562.71,136.86,531.55,152.41,529.05Z" transform="translate(3 0)"/><path class="cls-11" d="M184.89,506.47c-2.8,12.47-39.58,39.58-52.61,43.13-13.55,3.7-23.65,13.11-23.65,13.11A179.83,179.83,0,0,1,135.72,558C162,555.74,181.55,531.89,184.89,506.47Z" transform="translate(3 0)"/><path class="cls-7" d="M185,504.51s-9.91-.32-7.91,3,6.09-.18,6.09-.18-3.17,2-2.7,4.82,3.4,1.52,4.07,0a6,6,0,0,0,.45-3s.05,4.28,1.92,4.67,0-5.14,0-5.14,1.54,2.38,2.51,1.33S185,504.51,185,504.51Z" transform="translate(3 0)"/><path class="cls-7" d="M184.56,506.77a19.78,19.78,0,0,0,1.07-7c0-6.4-1.46-7.84.07-8.16a.85.85,0,0,1,1,.74C186.9,493.46,187.05,502.16,184.56,506.77Z" transform="translate(3 0)"/><path class="cls-11" d="M177.93,567.54a12.19,12.19,0,0,1-1.39,8.2c-2.53,3.84-9.26,4.22-12,2.16a9.8,9.8,0,0,0,4.92.49c5.11-.79,6.6-2.6,7.59-5.49A18.63,18.63,0,0,0,177.93,567.54Z" transform="translate(3 0)"/><path class="cls-11" d="M183.92,548.22c7.07,6.18,3.79,19-6,19.32C187.11,565.42,189.56,555.29,183.92,548.22Z" transform="translate(3 0)"/><path class="cls-11" d="M185.06,530.22c5.77,3.67,5.07,10.23,5.08,10.28a9.74,9.74,0,0,1-.23,1.46,8.94,8.94,0,0,1-6,6.26C191.43,543.67,190.49,535.57,185.06,530.22Z" transform="translate(3 0)"/><path class="cls-7" d="M761.83,285.6c-3.68-1.73-8.49,1.51-10.75,7.25s-1.1,11.78,2.58,13.51,8.49-1.51,10.75-7.25S765.51,287.33,761.83,285.6Zm-1.15,2.93c2,.93,3.15,2.76,2.63,4.09s-2.55,1.65-4.53.72-3.15-2.76-2.63-4.09S758.7,287.6,760.68,288.53Zm-5.49,13.94c-2.78-1.31-4.39-4-3.59-6.08s3.72-2.65,6.51-1.34,4.39,4,3.59,6.08S758,303.78,755.19,302.47Z" transform="translate(3 0)"/><path class="cls-18" d="M737.71,301.47a27.53,27.53,0,0,0-6.26,9.53l-29.92,76a9.42,9.42,0,0,0,4.41,11.92l39.77,18.7a8.08,8.08,0,0,0,11-4.7l29.92-76a29.63,29.63,0,0,0,2-11.52Z" transform="translate(3 0)"/><path class="cls-18" d="M737.71,301.47a27.53,27.53,0,0,0-6.26,9.53l-29.92,76a9.42,9.42,0,0,0,4.41,11.92l39.77,18.7a8.08,8.08,0,0,0,11-4.7l29.92-76a29.63,29.63,0,0,0,2-11.52Z" transform="translate(3 0)"/><path class="cls-8" d="M786.59,336.92l-29.92,76c-1.81,4.58-6.72,6.69-10.95,4.69l-39.78-18.69A9.44,9.44,0,0,1,701.53,387l29.92-76a27.58,27.58,0,0,1,6.26-9.52l50.9,23.92A29.63,29.63,0,0,1,786.59,336.92Z" transform="translate(3 0)"/><path class="cls-10" d="M712.08,392,742,316a27.53,27.53,0,0,1,6.26-9.53l-10.54-5a27.53,27.53,0,0,0-6.26,9.53l-29.92,76a9.42,9.42,0,0,0,4.41,11.92l10.55,5A9.41,9.41,0,0,1,712.08,392Z" transform="translate(3 0)"/><path class="cls-16" d="M786.59,336.92l-29.92,76c-1.81,4.58-6.72,6.69-10.95,4.69L729.45,410a8.12,8.12,0,0,0,11-4.66l29.92-76a29.48,29.48,0,0,0,2-11.53l16.2,7.61A29.63,29.63,0,0,1,786.59,336.92Z" transform="translate(3 0)"/><path class="cls-6" d="M788.61,325.4l-50.9-23.93h0A4.27,4.27,0,0,1,743.5,299l42.78,20.11a5,5,0,0,1,2.33,6.31Z" transform="translate(3 0)"/><polygon class="cls-6" points="765.58 397.93 710.44 372.01 706.72 381.45 761.86 407.37 765.58 397.93"/><polygon class="cls-19" points="791.42 540.59 766.57 561.52 723.06 499.83 747.91 478.9 791.42 540.59"/><polygon class="cls-6" points="743.53 466.53 741.07 466.69 740.82 468.17 739.18 468.28 738.94 469.76 737.3 469.87 737.06 471.34 735.42 471.45 735.17 472.93 733.53 473.04 733.29 474.52 731.65 474.63 731.4 476.1 729.77 476.21 729.52 477.69 727.88 477.8 727.64 479.28 726 479.39 725.75 480.86 724.11 480.97 723.87 482.45 722.23 482.56 721.99 484.04 720.35 484.15 720.1 485.62 718.46 485.73 718.22 487.21 716.58 487.32 716.33 488.8 714.7 488.9 714.45 490.38 712.81 490.49 712.41 492.88 712.32 492.96 712.4 492.98 712.39 493.05 712.59 493.04 719.79 495.18 723.06 499.83 747.91 478.9 744.64 474.25 743.6 466.62 743.5 466.7 743.53 466.53"/><polygon class="cls-6" points="801.14 548.22 794.48 544.93 791.42 540.59 766.57 561.52 769.63 565.87 769.86 574.25 769.8 574.46 769.86 574.47 769.87 574.56 769.96 574.48 772.22 574.73 772.71 572.99 774.1 573.14 774.59 571.4 775.98 571.55 776.47 569.82 777.87 569.97 778.36 568.23 779.75 568.38 780.24 566.64 781.64 566.79 782.12 565.05 783.52 565.21 784.01 563.47 785.4 563.62 785.89 561.88 787.29 562.03 787.78 560.29 789.17 560.45 789.66 558.71 791.05 558.86 791.54 557.12 792.94 557.27 793.43 555.54 794.82 555.69 795.31 553.95 796.71 554.1 797.2 552.36 798.59 552.51 799.08 550.78 800.47 550.93 801.21 548.32 801.05 548.3 801.14 548.22"/><polygon class="cls-12" points="781.25 538.04 766.89 550.13 733.12 502.23 747.47 490.15 781.25 538.04"/><polygon class="cls-7" points="723.06 499.83 733.12 502.23 747.47 490.15 747.91 478.9 723.06 499.83"/><polygon class="cls-7" points="766.57 561.52 766.89 550.13 781.25 538.04 791.42 540.59 766.57 561.52"/><path class="cls-8" d="M642.19,112.75c1.57-6.75,3.4-13.45,9.88-16.35,5.61-2.51,12.27.1,16,5.13,10.68,14.58-10.85,41.39-23.95,53.56-3.7,3.44-9,6.18-10.86,11.2.39-.74.78-1.48,1.18-2.22l-1.71,2.14c-2.44,3-.14,8.35,3.77,7.08,5-1.64,5.27-1.09,13.81-8.72A119,119,0,0,0,661.5,153c7.1-8.35,13.74-17.8,17.62-28.46,9.78-26.88-11.88-46.32-29.75-39.29-9.48,3.73-18.9,15.86-15.71,27.48,1.22,4.45,7.43,4.74,8.53,0Z" transform="translate(3 0)"/><path class="cls-8" d="M635.73,205.53c6.84,0,6.85-11.62,0-11.62s-6.86,11.62,0,11.62Z" transform="translate(3 0)"/><path class="cls-8" d="M568.49,49.88c-4-11.83-1.08-26.92,8.85-34.27,9.65-7.15,23.52-4.9,31.56,4.09,10.41,11.63,8.64,32.52,4.42,46.7a67.36,67.36,0,0,1-10.75,21.49c-5.24,6.85-11.6,12.53-17.61,18.54-12.42,12.44-26.56,32.26-18.08,51.5,2.16,4.9,8.43,1.26,7.59-3.49-5.15-29.24,26-42.56,40.43-66.32a81.9,81.9,0,0,0,10-25.6c3.67-17.64,2.85-40.35-10.73-52.94C602.91-.87,585.45-3.57,572.74,5.49,558.65,15.55,552.58,37,560.54,53.54c2.25,4.68,9.68,1.45,8-3.66Z" transform="translate(3 0)"/><path class="cls-8" d="M589.33,187.5c0,5.74-4.25,10.38-9.5,10.38s-9.5-4.64-9.5-10.38,4.25-10.38,9.5-10.38S589.33,181.77,589.33,187.5Z" transform="translate(3 0)"/><path class="cls-8" d="M846.54,561.57c-3.36,5.43-8.27,8.23-11,6.24s-2.14-8,1.22-13.44,8.27-8.23,11-6.24S849.9,556.13,846.54,561.57Z" transform="translate(3 0)"/><path class="cls-10" d="M902.36,577.42c0,5.56-4.12,10.06-9.21,10.06S884,583,884,577.42s4.12-10.06,9.2-10.06S902.36,571.86,902.36,577.42Z" transform="translate(3 0)"/><path class="cls-11" d="M951,564.21c0,5.56-4.12,10.06-9.2,10.06s-9.21-4.5-9.21-10.06,4.12-10.06,9.21-10.06S951,558.65,951,564.21Z" transform="translate(3 0)"/><path class="cls-7" d="M861.24,591.69c-1.62,2.63-6.6,2.06-11.11-1.28s-6.85-8.16-5.22-10.79,6.6-2.06,11.11,1.28S862.87,589.06,861.24,591.69Z" transform="translate(3 0)"/><path class="cls-11" d="M880,548.78c0,4.25-3.15,7.69-7,7.69s-7-3.44-7-7.69,3.15-7.69,7-7.69S880,544.53,880,548.78Z" transform="translate(3 0)"/><path class="cls-8" d="M839.19,471c0,2.46-4.2,4.46-9.37,4.46s-9.37-2-9.37-4.46,4.19-4.46,9.37-4.46S839.19,468.52,839.19,471Z" transform="translate(3 0)"/><ellipse class="cls-10" cx="796.76" cy="430.73" rx="9.98" ry="5"/><path class="cls-20" d="M644,264.41c-12.51-22-34.55-38.45-59-38.51-44.1-.09-70.3,22.89-84.79,48.85-.47.83-.94,1.68-1.41,2.53C465.36,337.41,447,380,388.2,406.31c-138,61.81-106.66,228-20.82,288.63C503.57,791.17,590,696.26,637,582,709.69,405.1,652.86,280,644,264.41Z" transform="translate(3 0)"/><path class="cls-8" d="M492.79,809.37s-32.85,60.84-45.69,115.46c-8.87,37.74-13.34,151.51-13.34,151.51H713.61s-31.23-227.52-89.9-256.64S492.79,809.37,492.79,809.37Z" transform="translate(3 0)"/><path class="cls-10" d="M657.17,495.45c-40.63-4.17-150.69,6.71-200.61,15.53-7.13,1.26,34.6,271.89,23.19,319.46l-23.24,52s139.94,32.85,210.29-8.7l-39.32-65.56C634.49,773.11,688.34,498.64,657.17,495.45Z" transform="translate(3 0)"/><path class="cls-21" d="M524.6,425.21s-6.07,161.51,29,164.83,35.94-95.11,36.39-107.2l2.44-65.79Z" transform="translate(3 0)"/><path class="cls-22" d="M524.23,459.55c22.41,28.66,54.92,24.21,66.46,5.5l1.78-48-67.87,8.16S524.07,439.45,524.23,459.55Z" transform="translate(3 0)"/><path class="cls-21" d="M660,846.77c17.34-6.13,81.14-329-7.36-351.65,0,0,2,7.11-1,66.59-3.57,69.34-22.3,222.14-22.3,222.14s-79.83-21.74-142.72-14l-52.8,33.58-8.05,37.51s19.11,20.88,23.1,20.88-6.56-18.38-6.56-18.38,9.84,10.75,12.27,8.1-4.44-17.14-4.44-17.14l38.09-22.13S642.62,852.89,660,846.77Z" transform="translate(3 0)"/><path class="cls-17" d="M652.48,495.05s-2.6.65-3.25,66.66c-.35,35.5-5.46,92.76-10.56,140.25,19.62-1.27,47.32-.06,66.36,2.91C719.61,605.74,711.52,497.2,652.48,495.05Z" transform="translate(3 0)"/><path class="cls-23" d="M412,579.77c-.75,67.34,6.85,169.83,46.2,227.9,10.28,15.18,29.95-28.31,29.95-28.31S473,508.18,456.49,511C441.41,513.57,412.64,524.33,412,579.77Z" transform="translate(3 0)"/><path class="cls-17" d="M484.25,718.11C478.68,638.3,467.88,509.05,456.49,511c-15.08,2.58-49.41,13.34-50,68.78-.49,44.5,2.71,106.68,16.26,158.92,12.27-7.7,30.47-17.16,44.92-18.24A120.51,120.51,0,0,0,484.25,718.11Z" transform="translate(3 0)"/><path class="cls-23" d="M527.34,441.36a110.38,110.38,0,0,0-3.13,13.87c-1.29,7.94,1.56,15.74-4,23.53S535,533.16,535,533.16s4.3-17.16,2.45-32,.5-51.35,3.28-54.39S527.34,441.36,527.34,441.36Z" transform="translate(3 0)"/><path class="cls-24" d="M507.81,408l-15,17.77-10.66,16s2.57,29.14,1.14,34.28-.71,8.73,1,15.43,12.83,39.74,13.55,52.36c0,0-20.47,69.26-25.17,81.42s-25.1,96.52-29.31,119c-2.81,15,9.11,65.19,22.29,71.42,12.85,6.06,28.09,8.1,40.6-71.42,3.16-20.12,24.38-177.18,24.38-183.73s6-13.72,6.42-27.36c.53-16.11-14.12-34.35-14.12-34.35l9.63-17.06,8.55-1.17s9.31,10.17,12,7.25-4.92-12.39-4.92-12.39,3,3.89,5.49,1.17-11.48-20.11-11.48-20.11L521,445.75l-4.28.7-18.28,18.7-1-22,7.7-15.66S519.43,411.08,507.81,408Z" transform="translate(3 0)"/><path class="cls-25" d="M546.45,474.5c-.67-.31-1.34-.65-2-1s-1.31-.7-2-1.05-1.3-.73-1.94-1.09-1.29-.73-1.93-1.12l.42.13c-1.31.08-2.62.15-3.93.19s-2.61.08-3.92.1l.66-.26q-4.12,3.72-8.44,7.2c-1.44,1.14-2.89,2.28-4.37,3.38s-3,2.18-4.53,3.17c1.22-1.44,2.51-2.8,3.81-4.15s2.63-2.64,4-3.94q4-3.84,8.24-7.45l.3-.26h.36c1.31,0,2.62.05,3.92.1s2.62.11,3.93.19l.26,0,.15.11c.6.45,1.2.9,1.78,1.37s1.19.92,1.77,1.41,1.17.94,1.74,1.44S545.89,474,546.45,474.5Z" transform="translate(3 0)"/><path class="cls-25" d="M546.45,471.85c-.65-.81-1.28-1.65-1.9-2.49l-1.84-2.55-1.79-2.57-1.75-2.61.46.38c-1.19-.34-2.37-.73-3.56-1.09s-2.37-.75-3.55-1.13c-2.36-.79-4.71-1.6-7-2.45l.9-.15-3.56,2.58-3.61,2.52c-1.22.81-2.42,1.64-3.66,2.43s-2.47,1.56-3.74,2.3c1.06-1,2.14-2.08,3.25-3.07s2.21-2,3.32-2.95l3.39-2.86,3.42-2.79.39-.32.51.17c2.37.76,4.72,1.56,7.07,2.38,1.17.42,2.34.84,3.51,1.28s2.33.87,3.49,1.33l.33.13.14.25,1.53,2.77,1.48,2.8,1.44,2.83C545.54,469.93,546,470.88,546.45,471.85Z" transform="translate(3 0)"/><path class="cls-21" d="M511.74,287.07s-9.24,22.74-9.24,70.1,10.4,74.52,30.62,90.31,43.55,8.75,54.9,0c20.5-15.81,40.45-74.52,34.67-116.2S599.58,207.5,511.74,287.07Z" transform="translate(3 0)"/><path class="cls-20" d="M542.37,239.4c-2,0-28.6,11.36-41.32,41s0,70.1,0,70.1,9.67-26.52,17.84-28.73,39.37,8.84,51.8-4.74,27.73-41.68,27.73-41.68-3,35.84-12.42,46.1,28.31,16.1,37.41,3.47,13.44,39.47,13.44,39.47,4.63-66.94-24.56-101.35S542.37,239.4,542.37,239.4Z" transform="translate(3 0)"/><path class="cls-5" d="M413.72,160.39s24.56,23.58,10.8,54.43-60.11,58.82-68.45,58c-6.83-.65-11.43-5-15.91-10.24-3.88-4.54-.44-3.32,6.87-24.13s13.36-18.42,17.51-41.37S396.63,145.14,413.72,160.39Z" transform="translate(3 0)"/><path class="cls-11" d="M355.42,262.08a15,15,0,0,1-12.32,1.76l-.06,0c-5.51-1.53-10.1-6.82-2.78-27.62s11.78-22.14,15.93-45.09,40.29-46.5,57.38-31.24a15.34,15.34,0,0,1,2.22,2.78c4,11.21,5.35,25.67-2.41,41.89C402.69,226.88,376.65,248.51,355.42,262.08Z" transform="translate(3 0)"/><path class="cls-12" d="M414.92,170.88c-1.25-5.95-5.55-10.58-11-11.65-16.66-3.25-41.52,15-44.68,32.54-2.68,14.83-5.5,20.93-9.07,28.65s-19.14,37.9-4.84,41.52c7.72,1.95,16.79-8.14,22.61-12.47a209.58,209.58,0,0,0,16.54-13.61c5.26-4.82,12.18-10.44,15.89-16.84C403,214.46,420.34,196.63,414.92,170.88Z" transform="translate(3 0)"/><path class="cls-9" d="M369.1,192c-7.29,13-6.59,28,1.56,33.46s20.68-.54,28-13.5,6.59-27.95-1.57-33.46S376.39,179,369.1,192Z" transform="translate(3 0)"/><path class="cls-5" d="M390.3,327c-2.32,9.38-12.34,14.09-22.38,10.53s-16.3-14.05-14-23.42,12.34-14.1,22.38-10.53S392.62,317.6,390.3,327Z" transform="translate(3 0)"/><path class="cls-11" d="M388.55,325c0,2.8-1.9,5.08-4.24,5.08s-4.24-2.28-4.24-5.08,1.9-5.08,4.24-5.08S388.55,322.18,388.55,325Z" transform="translate(3 0)"/><path class="cls-11" d="M427.15,280s4.23,9,13.21,7.66,13.07-26,15.64-32.88,5.83-6.86,5.83-6.86-30.08-12.74-42.81,7C411.43,266.75,417.46,274.82,427.15,280Z" transform="translate(3 0)"/><path class="cls-5" d="M449.83,259.52c-1.83,1.33-6.5,4.35-9.08,4.6A189.22,189.22,0,0,1,456.52,250c-3,1.88-6.73,4.45-10.58,7.42-1.72-2.62,1.66-7.61,1.7-7.66.23-.34-.25-.74-.48-.4s-3.69,5.43-1.7,8.43c-1.73,1.35-3.48,2.78-5.2,4.25-3.07-4.69.83-12.63.88-12.71a.35.35,0,0,0-.12-.44.28.28,0,0,0-.41.12c-.18.35-4.15,8.42-.81,13.44-1.8,1.57-3.55,3.19-5.19,4.84-4.57-5.33-1.25-16-1.22-16.08.13-.4-.44-.63-.56-.23s-3.48,11.15,1.35,16.75A57.61,57.61,0,0,0,428.8,274c-5.3-4.65-4.55-14.9-4.54-15a.33.33,0,0,0-.27-.36.3.3,0,0,0-.33.28c0,.47-.78,10.75,4.77,15.59a31.11,31.11,0,0,0-1.7,2.67c-5.45,9.87-12.18,5.73-13.12,5.61a1.11,1.11,0,0,0-1.47.54c-1.26,2.45,5,3.86,8.24,3.27,5.41-1.16,7.16-5,9.93-9.57a13.52,13.52,0,0,0,13.12-.43l0,0a.38.38,0,0,0,0-.42.29.29,0,0,0-.42-.1,12.93,12.93,0,0,1-12.45.43,42.77,42.77,0,0,1,3.65-5.12c4.66,1.8,11.6-3.38,11.92-3.62l0,0a.35.35,0,0,0,0-.42.28.28,0,0,0-.41-.09c-.08.06-6.76,5-11.15,3.63,1.67-2,3.48-4.05,5.39-6,3.14.3,9.75-4.49,10-4.71a.34.34,0,0,0,.08-.45A.28.28,0,0,0,449.83,259.52Z" transform="translate(3 0)"/><path class="cls-17" d="M969.39,420.57c-7.45,6.92-12.32,16.47-18.77,24.38a45.56,45.56,0,0,1-5.52,5.75c-8.51,7.29-22.6,13.06-27.35,22.26,0,0-9.19,14.64,11.81,24.47s75.5-44.21,68.25-72.68c-1-3.87-2.74-7.91-6.08-9.94-7.61-4.64-16.31.19-22.28,5.71Z" transform="translate(3 0)"/><path class="cls-8" d="M930.76,511.6a9.67,9.67,0,0,1-6.48-.32c-5.4-2.2-8.13-8.84-6.11-14.74.35-1,9-25.54,38.13-39.2,21.12-9.91,30.75-32.57,31.89-41.39.82-6.24,6.1-10.58,11.82-9.7s9.68,6.67,8.87,12.91c-2,15.8-15.91,45.83-44.34,59.16C944,488,938,504,937.7,504.64A10.75,10.75,0,0,1,930.76,511.6Z" transform="translate(3 0)"/><path class="cls-12" d="M925.94,495.93c-.36-2.79-1.58-11,1.31-12.65,1.9-1.11,2.34,3.26,4.06,4.35,3.77,2.4,6.82-2.13,7.42-5.6.52-3.06-.43-7.65,1.11-10.29,4-6.84,5.35-.32,9,.48,4.95,1.1,5.63-4.83,6.48-8.57,1.72-7.56,5.12-3.45,6.3-3a5.3,5.3,0,0,0,5.12-.52c2.53-1.83,2.14-4.5,3.09-7.22,2.67-7.68,12.78-1.75,14.58-15,.61-4.47-.5-2.43,2.25-3.63,1.91-.84,3.48-.58,4.89-2.62,1.3-1.87.27-8.13,1.42-8.94,3-2.09.3-6.92-2.82-5.13a7.35,7.35,0,0,0-3.85,5.74c-.24,2.71,1.57,3.24-.83,5.18-1.37,1.1-4.16-1.07-6,5.77-.91,3.34-1,6.1-4.06,7.73-1.62.86-3.57.94-5.23,1.76-7.08,3.52-4.47,9.47-6,10.8-1.7,1.52-1.94,0-3.48-.35-4.78-1.07-7.5.31-9.44,5.78-.48,1.36-.52,3.12-1.11,4.42-1.48,3.21-2.73,1.46-4.95,1.07-1.75-.3-2.68-1.15-4.52-.06-5.34,3.18-3.83,16.82-6.46,17.64-2.14.66-3.32-4-5.15-4.7-5.89-2.32-11.31,8.82-8.17,18.33.91,2.74,5.46,2.58,5-.76Z" transform="translate(3 0)"/><path class="cls-10" d="M990.71,432.85c-8.33,7.87-13.75,18.77-21,27.79a49.79,49.79,0,0,1-6.17,6.55c-9.52,8.29-25.31,14.79-30.6,25.29,0,0-10.24,16.71,13.42,28.11s84.59-50.09,76.27-82.75c-1.12-4.44-3.13-9.08-6.89-11.43-8.58-5.37-18.33.1-25,6.39Z" transform="translate(3 0)"/><path class="cls-12" d="M925.23,1080H232.49a3.67,3.67,0,0,1,0-7.32H925.23a3.67,3.67,0,0,1,0,7.32Z" transform="translate(3 0)"/></g></g></svg>