<svg id="Layer_1" data-name="Layer 1" xmlns="http://www.w3.org/2000/svg" viewBox="0 0 658 539.17"><defs><style>.cls-1{fill:#51a8ce;}.cls-2{fill:#fff;}.cls-3{fill:#232323;}</style></defs><title>recipeLogo</title><path class="cls-1" d="M425.15,108.25a268.6,268.6,0,0,1,73.36,51.62c8.81,8.68,15.44,19.18,23.89,28.2,12,12.76,17.33,28.54,24.08,43.6,12,26.64,24,53.33,33.78,80.72,9.56,26.8,16.74,54.4,20,82.74,1.85,16.18,4.38,32.32,5.17,48.57a127.66,127.66,0,0,1-2.68,31.92c-5.16,24.69-12.93,48.79-25.57,71.48-6,10.69-16.09,16.85-27.39,22.21-7,3.3-12.87,8.49-19.66,12.19-25.1,13.64-51.33,25-79.66,31.41-11.06,2.5-22.67,2.75-33.72,5.28-43.23,9.94-86.05,5-128.52-.42-29.65-3.81-59.29-9.19-86.68-20.69a154.26,154.26,0,0,1-22.93-12.31c-20.55-13.1-41.64-25.65-59.15-42.21-2.84-2.69-4.25-6.59-6.66-9.71-1.15-1.5-3.57-2.23-4.58-3.78-7.24-11-14.83-21.9-21.08-33.41-2.63-4.83-1.84-11.17-3.33-16.65-4.43-16.26-.72-32.78-.65-49.16,0-12,.41-24.27,3-36,3.78-16.91,9.44-33.54,15-50.13,2.27-6.83,7.7-13,9.22-19.87,9.59-43.14,34.39-80.81,53.9-120.4,11-22.29,28.55-39.77,46.52-57.28,13.65-13.3,27.26-26.42,44-36.74,21-12.94,42.93-21.94,68.48-24.07,29.61-2.47,56.8,3.08,83,13.9C408.14,100,420.73,106.14,425.15,108.25Z" transform="translate(-25.33 -84.75)"/><path class="cls-1" d="M74.71,341.93c-.89,4.71-5.39,8.26-10.62,8.47a36.31,36.31,0,0,1-4.31,0c-15.68-1.23-21.62-12.12-27.9-23.08S25.22,304.88,25.35,293c.21-19.4,1.37-38.76,6.71-57.76,3.09-11,6.79-22,16.74-30,1.51-1.2,5.37-2.2,6.23-1.46C68.15,215.13,81.92,226,93.39,238.54c5.53,6.06,7.51,15.36,9.24,23.56.79,3.74-2.88,8.38-4.56,12.59-6.78,17-13.82,33.93-20.23,51-1.92,5.12-2.1,10.73-3.11,16.12Z" transform="translate(-25.33 -84.75)"/><path class="cls-1" d="M635.9,420.42a3.92,3.92,0,0,0,3-.69c5-4.91,8.1-1.32,11.4,1.72,15.66,14.45,27.83,31.13,32.15,51.24A44.35,44.35,0,0,1,679.36,500c-3.47,7.16-14.13,9.58-23.16,10.81-16.21,2.19-25.66-8.23-35.7-16.55-2.43-2-1.21-8-1-12.24C620.5,460.84,631.68,419.56,635.9,420.42Z" transform="translate(-25.33 -84.75)"/><path class="cls-1" d="M119.25,217.54c-8.55,4.53-12.31-.83-16.7-5.79A37.44,37.44,0,0,0,93,203.64c-7.91-4.37-9.91-11.61-11.5-18.94-.88-4.11.74-7.71,5.24-10.47,6.55-4,12.61-7.57,21.19-6.41,9.36,1.27,13.23,7.17,17.07,13.56C132.24,193.44,128.38,214.83,119.25,217.54Z" transform="translate(-25.33 -84.75)"/><path class="cls-2" d="M359.62,593.55c-3.27,0-6.45-.17-9.52-.33-2.14-.12-4.28-.24-6.38-.28-7.07-.15-14.19-.42-21.08-.68-7.37-.27-15-.56-22.42-.69-19.9-.35-38.44-5.46-55.51-10.94a17.5,17.5,0,0,1-11.3-12.15c-2.81-11.66-5.66-24-8.7-37.75-1.07-4.84.43-9.93,4.23-14.33a24.69,24.69,0,0,1,5.32-4.58,26.08,26.08,0,0,1-4.33-7.89c-6.66-20.69-13-41.8-19.06-62.21l-2-6.77c-1.55-5.22-3-10.51-4.48-15.62-1.73-6.15-3.51-12.51-5.41-18.65-1.44-4.7-3.09-9.52-4.69-14.19-2.59-7.55-5.26-15.37-7.36-23.4-2.25-8.63-4.15-17.37-6-25.82-2-9.19-4-18.68-6.52-27.76-4.6-16.87-3.2-33.12-1-48.17C176,243.69,185,228.71,191.6,219q16.1-23.82,32.27-47.58l3.18-4.68a29.73,29.73,0,0,1,3.56-4.27c.86-.88,1.69-1.8,2.52-2.72a49.17,49.17,0,0,1,10-9.07A64.15,64.15,0,0,1,263,141.9c11.31-2.68,23.56-5,36.41-6.83a379.92,379.92,0,0,1,54.52-4.19c3.57,0,7.16.06,10.66.18,10,.35,21.42,2.06,30.91,12.13,11.61,12.33,23.83,24.38,35.64,36,1.6,1.58,3.54,3.16,5.58,4.85a75.69,75.69,0,0,1,10.47,9.82c5.13,6.13,9.63,12.56,14,18.78,1.68,2.41,3.36,4.81,5.08,7.19a25.59,25.59,0,0,1,1.69,2.74c7.83,6.47,8.14,15.06,8.32,19.82l0,.67a282.56,282.56,0,0,1-2.48,48.23c7.7-8.09,18.11-17.3,34.41-17.3.57,0,1.15,0,1.74,0,18.11.74,28.89,13.48,32.43,17.66,11.81,14,9,28.29,5.19,39.21-2.92,8.43-5.55,17.23-8.1,25.75-2.93,9.79-6,19.92-9.53,29.86a114.21,114.21,0,0,1-26,42.18c-8.16,8.25-16.63,16.39-24.81,24.26q-4.68,4.5-9.33,9l-.21.21a18.81,18.81,0,0,1-5.7,4.12q-.66,3.79-1.35,7.59c-1.33,7.51-2.71,15.27-3.92,22.87,0,.23-.07.46-.12.68,1.05.75,1.92,1.47,2.59,2,7,5.8,9.64,14.07,7,22.11-3.39,10.48-6.41,21.39-9.33,31.95l-.5,1.83c-1.57,5.68-5.79,13.16-17,16.56-6.19,1.88-12.37,3.82-18.55,5.75-15.78,4.94-32.1,10-48.56,14.27A57.37,57.37,0,0,1,359.62,593.55Z" transform="translate(-25.33 -84.75)"/><path class="cls-3" d="M461.38,324.08c6.43-7.2,12.77-14.47,19.32-21.57,7.67-8.3,15.63-16.73,28.66-16.19,9.8.4,16.82,6,22.8,13.05,7.43,8.79,6.48,17.74,3,27.77-6.36,18.35-11,37.22-17.59,55.49a102.28,102.28,0,0,1-23.25,37.75c-11.09,11.21-22.59,22.07-33.94,33.06-.78.76-1.83,1.95-2.65,1.89-5.94-.48-5.83,3.61-6.46,7.2-1.89,10.81-3.9,21.6-5.61,32.43-.57,3.62-2.86,5-6.1,6.24-4.41,1.69-8.58,3.9-12.85,5.89.19.56.39,1.11.59,1.67,4.9-1,10-1.41,14.65-3.08s8,1,10.46,3c2.28,1.88,4.53,5.11,3.16,9.31-3.67,11.33-6.81,22.81-10,34.28-1.19,4.3-4.11,6.68-8.36,8-22.14,6.73-44.1,14.1-66.53,19.86-8.34,2.14-17.77.75-26.7.57-14.52-.3-29-1.12-43.55-1.37-17.91-.31-34.8-4.92-51.53-10.28a5.16,5.16,0,0,1-2.8-3.26q-4.51-18.74-8.65-37.54c-.7-3.16,4.86-8.08,8.92-7.82,8.42.52,16.89.87,25.22,2,12.06,1.69,24,1.12,36-.39a266,266,0,0,0,28.08-4.67c-6.93-.54-13.86-1.18-20.8-1.58-13.27-.79-26.58-1-39.79-2.29a124.77,124.77,0,0,1-25-4.91c-3.24-1-6.63-5-7.68-8.22-7.35-22.82-14.15-45.8-21-68.75-3.42-11.43-6.41-23-9.92-34.36-3.83-12.41-8.64-24.58-11.92-37.11-4.65-17.79-7.69-36-12.53-53.7-4-14.59-2.82-29-.72-43.45,2-13.62,8.48-25.9,16.29-37.46q17.67-26.15,35.43-52.23a19,19,0,0,1,2.12-2.53c3.38-3.42,6.32-7.45,10.32-10a51.53,51.53,0,0,1,15.68-7c11.59-2.75,23.38-4.9,35.2-6.6a353.39,353.39,0,0,1,62.72-3.87c8.37.29,15.64,1.64,21.63,8,11.67,12.39,23.82,24.38,36,36.36,4.86,4.8,10.92,8.63,15.23,13.79,6.72,8,12.42,16.8,18.53,25.28,1.07,1.48,1.67,3.48,3.09,4.47,4.6,3.21,4.53,7.76,4.71,12.34.8,20-1.07,39.78-4.37,59.54-1.11,6.63.32,13.63.59,20.46Z" transform="translate(-25.33 -84.75)"/><path class="cls-2" d="M412.51,422.23c-1.05,7.09-1.72,14.26-3.34,21.24-.55,2.36-3.15,5.35-5.45,6-1.72.47-5.13-2-6.6-3.89-2.81-3.69-4.76-8-7.08-12l-2.4.79q4,21.38,8,42.76c.5,2.68,1.5,5.43,1.22,8-.19,1.85-2.22,5-3.32,5-2.09-.08-5.3-1.63-5.92-3.28a103.13,103.13,0,0,1-4.42-16.58c-4.36-22.45-8.77-44.89-12.62-67.42-.88-5.14-4.14-12.61,3.74-14.6,2.35-.59,7.85,6.54,10.49,10.89,5.44,9,9.93,18.5,14.81,27.79l2.32-.43c.39-5.23,1-10.45,1.14-15.69.28-8.69-.11-17.42.66-26.06a7.11,7.11,0,0,1,.55-2.14c1.62-4,7.4-4.94,10.41-1.74a6,6,0,0,1,1.57,2.6c5.72,23.25,10.17,46.77,15.25,70.15.68,3.14,1.09,6.32,1.53,9.49.56,4,3,10.4-3.51,10.84-2.27.16-6.47-4.67-7.18-7.76-2.85-12.35-4.65-24.92-6.9-37.4-.39-2.18-1.11-4.31-1.67-6.46Z" transform="translate(-25.33 -84.75)"/><path class="cls-2" d="M295.51,427.11c-1.29-9.45-2.54-18.26-3.67-27.07-.28-2.21-.78-4.65-.07-6.64a9.23,9.23,0,0,1,1.16-2.16,5.3,5.3,0,0,1,7.46-1.27,5,5,0,0,1,2.12,2.46c2.7,10.09,4.5,20.4,6.79,30.59,3.7,16.49,8.82,32.73,11.32,49.42,1.25,8.29-1.24,11.09-3.86,12.4-4.48,2.25-8-1.34-9.18-5.59-2.73-9.57-5.15-19.23-7.6-28.87-.73-2.88-1.16-5.83-1.8-9.18H281.36c2.25,9.22,4.4,18.07,6.6,26.9.66,2.66,2.44,5.42,2,7.88-.56,3.19-2,7.75-4.5,8.82-4.86,2.09-7.8-1.86-8.82-6-6.84-28.28-13.66-56.57-20-85a5.52,5.52,0,0,1,9-5,7.25,7.25,0,0,1,2,2.77A195.25,195.25,0,0,1,276,420.3c1.53,7.89,5.9,9.6,13.19,8.2C291,428.16,292.76,427.72,295.51,427.11Z" transform="translate(-25.33 -84.75)"/><path class="cls-2" d="M388.09,251.16c-.74,13-3.39,25.3-11.36,36.06-7.35,9.92-16.87,13.45-27.08,10.53-11-3.14-17.11-10.82-16.35-23.36.7-11.52,1.83-23.35,5.43-34.28,2.21-6.67,8.41-13.18,14.61-17.48,12.16-8.44,27-3.23,31.5,10.35C386.78,238.79,387.06,245.09,388.09,251.16Zm-40.5,17.75c.4.09-.22,13.87,6.69,15.54,6.6,1.6,9.64-3.45,11.73-7.82,5.13-10.72,7.77-22,6-33.9-.65-4.33-1.78-8.2-7.6-8.9-6.08-.73-8.16,3.36-9.37,7.22C352.11,250.22,350,259.61,347.59,268.91Z" transform="translate(-25.33 -84.75)"/><path class="cls-2" d="M368.84,449c-.2,7.66-.83,15.51-3.12,22.74-1.45,4.6-5.6,10-10,11.83-6.35,2.57-13.65-.54-17.12-6.25-4.37-7.18-8.36-15-10.15-23-3.75-16.71-6.92-33.77-3-50.86a39.65,39.65,0,0,1,7.69-15.89c4-4.91,10.65-3.91,14.77.08,4.84,4.67,10.05,10.17,11.9,16.18C364.28,418.37,369,442.43,368.84,449Zm-29-51.46c-.37.34-1,.64-1.07,1-3.14,22.86-1.75,45.4,6.05,67.34.66,1.84,2.22,3.39,3.93,5.05a2.75,2.75,0,0,0,4.41-.79C361.91,448.36,354.06,405.67,339.82,397.49Z" transform="translate(-25.33 -84.75)"/><path class="cls-2" d="M318.17,292.44c-5.19,10.24-15.37,14.28-24.62,12.39-8.68-1.77-16.36-11.26-17.35-21.89-1.56-16.76,16.83-40.71,27.31-54.21,6.08-7.83,0,0,8.35,5.85,10.42,7.3,14.36,17.38,13.33,29.39C325.84,264.13,322.57,283.74,318.17,292.44Zm-14.3-43.88c-.91-.78-6.33-.73-6.66.06-4.83,11.68-7.54,23.79-3.79,36.18,1.76,5.81,6.21,6.41,9.24.94C306.43,278.93,313.14,256.45,303.87,248.56Z" transform="translate(-25.33 -84.75)"/><path class="cls-2" d="M411.61,277.36c7.21-2,12.89-4.39,18.78-5a9.19,9.19,0,0,1,4.87,1.29,4.41,4.41,0,0,1,1.53,6.79,12,12,0,0,1-3.15,2.9c-3.47,2-7.78,2.79-10.79,3.79,5.7,16,11.37,31.39,16.66,46.93l.06.18c2.39,7.19-8.84,11-12,4-6.55-14.45-13.15-29-20.12-44.34-2.13,4.65-2.93,8.52-5.33,11-2.1,2.19-6.2,4.1-9.06,3.72-1.88-.24-4.06-4.67-4.39-7.41-.37-3,1.13-6.27,2-9.39,3-11.05,6-22.14,9.3-33.11a41,41,0,0,1,5.44-11.47c1.13-1.61,4.73-3,6.56-2.5s3.67,3.68,3.6,5.62c-.21,5.67-1.35,11.31-2.19,17C412.94,270.25,412.36,273.13,411.61,277.36Z" transform="translate(-25.33 -84.75)"/><path class="cls-2" d="M288.19,322.85c-3.21,14.29-7.55,26-19,33.64-9.63,6.44-23.57,2.06-28.59-9.82A83.78,83.78,0,0,1,234,319.32,124.47,124.47,0,0,1,236.78,287c1.13-5.35,5.65-10.61,10-14.58,2.3-2.09,7.76-2.27,11.37-1.51,2.11.43,5.34,5.34,4.65,6.59-1.5,2.77-5.32,4.35-7.9,6.68-1.94,1.76-4.38,3.72-5,6-4.31,16.26-3,32.5,1.75,48.45a10.75,10.75,0,0,0,6.57,6.36c1.78.44,5.6-2.6,6.84-4.88,3.24-5.91,5.07-12.51,8.45-18.33,1.49-2.55,5.73-5.67,8.09-5.26C284.36,316.93,286.41,321,288.19,322.85Z" transform="translate(-25.33 -84.75)"/><path class="cls-2" d="M438.53,383.46C439.71,389,440.8,394,442,399.7c4.62-2,8.4-4.37,12.52-5.25,2.58-.54,7.4.4,8.16,2,1.09,2.27.18,6.16-1.32,8.54a14.93,14.93,0,0,1-7.33,5.42c-7.28,2.57-7.85,6.73-4.84,12.65,1.8,3.51,3,7.29,4.64,11.34,4.68-3.55,8.56-6.95,12.95-9.59a5.45,5.45,0,0,1,2-.65c3.15-.43,6.23,1.87,5.95,4.85a1.78,1.78,0,0,1-.37,1c-6.5,7.69-13,15.5-20.53,22.22-3.42,3.05-8.29,1.16-9.67-3.85q-7.8-28.41-15.3-56.89a22.38,22.38,0,0,1-.43-5.19c-.53-15.74,8.08-23,24.65-20.18,2.67.46,6.44,3.43,6.77,5.63s-2.22,6.34-4.62,7.4C450.4,381.28,444.77,382,438.53,383.46Z" transform="translate(-25.33 -84.75)"/><path class="cls-2" d="M315.17,359.57c-.45,2.23-.35,4.65-1.43,6.45a29.61,29.61,0,0,1-2.82,3.82,3.75,3.75,0,0,1-6.1-.7,11,11,0,0,1-1.45-4.52,57.32,57.32,0,0,1,1.91-15.42c2.2-9.17,4.63-18.31,7.73-27.23.89-2.56,4.39-6,6.77-6,2.88-.07,7.57,2.42,8.49,4.82q8.69,22.61,15.67,45.78c.34,1.11-.55,2.54-1.7,4a5.91,5.91,0,0,1-7.46,1.46c-1.73-1-3.18-1.95-3.31-3.08C330.33,358.9,323,359.65,315.17,359.57Zm10.18-13-4.16-12L317,347.81Z" transform="translate(-25.33 -84.75)"/><path class="cls-2" d="M367.55,331.65c2,11,3.83,21.38,5.69,31.76.22,1.22,1,2.61.64,3.61-.18.48-.39.94-.61,1.41-1.47,3-6.11,3.61-7.78.69a3.34,3.34,0,0,1-.31-.73c-2.89-10.52-5.33-21.16-7.65-31.81-1-4.58-3.37-6.37-8.47-7-1.71-.22-3.27-1.48-4.8-2.92a4.26,4.26,0,0,1,0-6.28c1.56-1.5,3.14-2.81,4.81-2.93,8.6-.61,17.33,0,26,.48,4.71.27,9.3,1.76,8.85,7.38-.49,6-5.49,6.43-10.51,6.37Z" transform="translate(-25.33 -84.75)"/></svg>