<svg id="Layer_1" data-name="Layer 1" xmlns="http://www.w3.org/2000/svg" xmlns:xlink="http://www.w3.org/1999/xlink" viewBox="0 0 1921 946.12"><defs><style>.cls-1{fill:url(#linear-gradient);}</style><linearGradient id="linear-gradient" x1="203.66" y1="49.43" x2="1923.98" y2="890.35" gradientUnits="userSpaceOnUse"><stop offset="0" stop-color="#1c2e4c"/><stop offset="0.85" stop-color="#6cd0ff"/></linearGradient></defs><title>calculatorbg</title><path class="cls-1" d="M-.5,715.49C78.48,878,162.26,927.76,226,942c112.83,25.21,157.77-62,331-40,59.17,7.5,112.45,25.09,213,24,66.35-.72,100.54-9,118-14,72.41-20.71,108.27-56.73,150-85,146.73-99.41,237.27-15.83,343-103,76.39-63,29.77-107.13,122-228,64.22-84.17,109.7-92.73,244-207a2020.39,2020.39,0,0,0,173.5-166.28V.5H.5Z" transform="translate(0.5 -0.5)"/></svg>