<svg id="Layer_1" data-name="Layer 1" xmlns="http://www.w3.org/2000/svg" viewBox="0 0 1920 1081"><defs><style>.cls-1,.cls-3{fill:#4b086d;}.cls-1{opacity:0.36;}.cls-2{fill:#acc0fe;}</style></defs><title>calculator</title><path class="cls-1" d="M0,1080.5c352.89-106.41,628.22-111.94,817.5-96,132.93,11.19,322.66,41.33,593.12,8.56,173.31-21,265.24-33.16,342.88-92.56,264.71-202.51,116.87-765.54,103-816H0Z" transform="translate(0 0.5)"/><path class="cls-2" d="M0,996c339.43-43.36,614.86-47.62,809.17-42.66,191.5,4.9,367.55,20.37,601.45-44.78,143.21-39.89,285.19-79.44,387.18-195.15C2021.21,460,1873.24,44.88,1856.53,0H0Z" transform="translate(0 0.5)"/><path class="cls-3" d="M.5,933.5c312.09-40.66,565.33-44.66,744-40,176.07,4.59,337.94,19.1,553-42,131.68-37.41,262.22-74.49,356-183,205.41-237.66,69.36-626.91,54-669H.5Z" transform="translate(0 0.5)"/></svg>