<svg id="Layer_1" data-name="Layer 1" xmlns="http://www.w3.org/2000/svg" viewBox="0 0 1063.71 647.58"><defs><style>.cls-1{fill:#e8f2fa;}.cls-2{fill:#90b9f8;}.cls-3{fill:#f9924f;}.cls-4{fill:#ff9f00;}.cls-5,.cls-6{fill:#ffb600;}.cls-6{opacity:0.5;}.cls-7{fill:#ffae73;}.cls-8{fill:#1e3865;}.cls-9{fill:#1d2f57;}.cls-10{fill:#25468f;}.cls-11{fill:#a8cfff;}.cls-12{fill:#6b98f6;}.cls-13{fill:#a8ccff;}.cls-14{fill:#f99352;}.cls-15{fill:#2a3967;}.cls-16{fill:#ff912b;}.cls-17{fill:#fc7600;}.cls-18{fill:#81b7f1;}.cls-19{fill:#ffd498;}.cls-20{fill:#5d83e1;}.cls-21{fill:#4178ce;}.cls-22{fill:#7fb2ff;}.cls-23{fill:#132d52;}.cls-24{fill:#152f54;}.cls-25{fill:#c9e4ff;}.cls-26{fill:#ee8c4d;}.cls-27{fill:#a6d1f4;}.cls-28{fill:#f8571d;}.cls-29{fill:#ff7536;}.cls-30{fill:#ffe4bc;}.cls-31{fill:#f69171;}.cls-32{fill:#b6d8f6;}.cls-33{fill:#d44b40;}.cls-34{fill:#7fc67a;}.cls-35{fill:#9bd399;}.cls-36{fill:#fbb093;}.cls-37{fill:#0b3563;}.cls-38{fill:#ffa05e;}</style></defs><title>cooking</title><path class="cls-1" d="M1010,862.16c-60.8,0-946.46.22-947-1.33l-.08-.19a1,1,0,0,1-.09-.29C62.51,859.58-73.61,642.8,138,491.89c14.57-10.39,23.85-20.16,29.61-29.57,27-44-23.21-80,31-134.18,75.67-75.54,158.25,8,242.4-26.23,14.86-6.05,29.78-15.78,44.72-30.72a164.92,164.92,0,0,1,27.48-22.08c1.51-1,3-1.93,4.58-2.85a185.9,185.9,0,0,1,18.34-9.64q6.35-2.9,13-5.36h0a219.39,219.39,0,0,1,21.46-6.77,250.92,250.92,0,0,1,32-6.07q7.14-.9,14.39-1.43c44-3.2,90.67,3.54,133.41,17.4,48.5,15.72,92,40.59,121,70.49,11,11.32,61,69.92,21.58,150.46-24.88,50.86,79.34,99.43,116.38,157.5C1103.54,760.48,1010.84,860.24,1010,862.16Z" transform="translate(-8.15 -216.21)"/><path class="cls-2" d="M871.62,669.82c-.56-3.22.84-4,.84-4s28-10.18,30.29-11.42,20.38-29.24,20.38-29.24S930,613.65,936.74,615c5.89,1.16,8.67,5.94,10,10.68a15.82,15.82,0,0,1-4.14,15.55c-9,8.34-27,24.81-31.48,27-9.87,5-37.75,5.82-37.75,5.82A10.9,10.9,0,0,1,871.62,669.82Z" transform="translate(-8.15 -216.21)"/><path class="cls-3" d="M870.75,665.55c-1.4-.86-4.57-2.74-4.67-2.2a2.49,2.49,0,0,0,.58,1.59c-1.85-.5-3.7-.74-7.83.82a3.38,3.38,0,0,0-1.91,1.89,1.73,1.73,0,0,0,.77,2.45c2.33,1.23,1.6.4,4.86,2.21s7,1.85,9,0l2.88-1-.25-5.65S872.49,665.62,870.75,665.55Z" transform="translate(-8.15 -216.21)"/><path class="cls-4" d="M798.87,858.47,687.78,807.56c-12-5.49-17.84-21.14-13.07-35L746,565.78c4.77-13.81,18.34-20.56,30.33-15.07l20.85,9.55c-.37,6.64,2.41,13.39,7.81,15.87,5.7,2.61,13.61,2.28,16.82-4.58l64.42,29.52a15.33,15.33,0,0,0,1,7.38,9.72,9.72,0,0,0,12,5.26,30.52,30.52,0,0,1,1.21,22.87L829.2,843.4C824.43,857.22,810.86,864,798.87,858.47Z" transform="translate(-8.15 -216.21)"/><path class="cls-5" d="M838.55,757.85,718.85,703c-9.61-4.4-14.3-17-10.48-28l46.27-134.21,42.55,19.5c-.37,6.64,2.41,13.39,7.81,15.87,5.7,2.61,13.61,2.28,16.82-4.58l13.14,6a22.61,22.61,0,0,0-.52,7.6c.75,8,5.31,16.16,12.3,19.37,8.24,3.77,17.5-2.57,21.37-11.77l18.13,8.3a15.33,15.33,0,0,0,1,7.38,9.72,9.72,0,0,0,12,5.26,9.61,9.61,0,0,0,1.61-.71,9.89,9.89,0,0,0,3.64-3.54l4.59,2.1L862.86,745.77C859,756.84,848.16,762.25,838.55,757.85Z" transform="translate(-8.15 -216.21)"/><path class="cls-4" d="M822,662.8c-7-3.2-11.55-11.33-12.3-19.37a21.85,21.85,0,0,1,1-9.16,18.59,18.59,0,0,1,8.06-10.18l0,0a14.88,14.88,0,0,1,13.89-.72c8.68,4,14.75,16.16,11.3,26.17S830.67,666.78,822,662.8Z" transform="translate(-8.15 -216.21)"/><path class="cls-6" d="M820.09,658.36c-5.52-2.53-9.29-8.6-10.4-14.93a21.85,21.85,0,0,1,1-9.16,18.59,18.59,0,0,1,8.06-10.18l0,0a12.84,12.84,0,0,1,10.56.12c7.52,3.45,12.78,14,9.79,22.66S827.61,661.81,820.09,658.36Z" transform="translate(-8.15 -216.21)"/><path class="cls-4" d="M868.41,622.35a10.28,10.28,0,0,1,11.57,1.5,10.5,10.5,0,0,1,2.9,3.93,12.41,12.41,0,0,1,.58,7.68v0a10.63,10.63,0,0,1-5,6.86c-4.71,2.61-11.36.88-13.62-4.55S863.7,625,868.41,622.35Z" transform="translate(-8.15 -216.21)"/><path class="cls-6" d="M870.71,623.13a8.8,8.8,0,0,1,9.27.72,10.5,10.5,0,0,1,2.9,3.93,12.41,12.41,0,0,1,.58,7.68v0a9,9,0,0,1-4.05,5,8.45,8.45,0,0,1-11.79-3.94C865.66,631.8,866.63,625.39,870.71,623.13Z" transform="translate(-8.15 -216.21)"/><path class="cls-4" d="M832.84,709.4a18.58,18.58,0,0,1,1.2-16.5,12.46,12.46,0,0,1,4.11-4.26,10.26,10.26,0,0,1,8.19-1.09h0a12.08,12.08,0,0,1,7.51,6.86c3,6.61,1.34,16.11-4.39,19.52S835.8,716,832.84,709.4Z" transform="translate(-8.15 -216.21)"/><path class="cls-6" d="M833.6,706.1a16.06,16.06,0,0,1,.44-13.2,12.46,12.46,0,0,1,4.11-4.26,10.26,10.26,0,0,1,8.19-1.09h0a10.67,10.67,0,0,1,5.45,5.57c2.56,5.71,1.16,14-3.8,16.9S836.16,711.82,833.6,706.1Z" transform="translate(-8.15 -216.21)"/><path class="cls-4" d="M773.82,688.73c-4.89-5.13-6.46-13.45-4.91-20.32a17.91,17.91,0,0,1,3.26-7.18,14.21,14.21,0,0,1,9.36-5.5h0a13.61,13.61,0,0,1,11.61,4.36c6.07,6.37,7.79,18.55,2.27,25.55S779.89,695.1,773.82,688.73Z" transform="translate(-8.15 -216.21)"/><path class="cls-6" d="M773.45,684.4c-3.86-4-5.33-10.39-4.54-16a17.91,17.91,0,0,1,3.26-7.18,14.21,14.21,0,0,1,9.36-5.5h0a11.89,11.89,0,0,1,8.65,3.87c5.26,5.51,6.75,16.06,2,22.12S778.71,689.92,773.45,684.4Z" transform="translate(-8.15 -216.21)"/><path class="cls-4" d="M750.78,649.11c-4-.78-7.13-4.44-8.3-8.54a11.72,11.72,0,0,1-.37-4.91,10.77,10.77,0,0,1,3.22-6.35h0a8.15,8.15,0,0,1,7.18-2.16c4.92,1,9.27,6.53,8.44,12.21S755.7,650.07,750.78,649.11Z" transform="translate(-8.15 -216.21)"/><path class="cls-6" d="M749.36,647c-3.13-.61-5.68-3.3-6.88-6.46a11.72,11.72,0,0,1-.37-4.91,10.77,10.77,0,0,1,3.22-6.35h0a7,7,0,0,1,5.53-1.3,9.78,9.78,0,0,1,7.3,10.58C757.45,643.49,753.62,647.86,749.36,647Z" transform="translate(-8.15 -216.21)"/><path class="cls-4" d="M816.43,732.81a8.62,8.62,0,0,1-9.57-1.85,8.86,8.86,0,0,1-2.26-3.42,10.32,10.32,0,0,1-.18-6.42v0a8.69,8.69,0,0,1,4.43-5.44A8.21,8.21,0,0,1,820,720.15C821.68,724.78,820.45,730.89,816.43,732.81Z" transform="translate(-8.15 -216.21)"/><path class="cls-6" d="M814.54,732a7.33,7.33,0,0,1-7.68-1.08,8.86,8.86,0,0,1-2.26-3.42,10.32,10.32,0,0,1-.18-6.42v0a7.4,7.4,0,0,1,3.56-3.92,7.12,7.12,0,0,1,9.66,3.9C819.09,725.09,818,730.37,814.54,732Z" transform="translate(-8.15 -216.21)"/><path class="cls-4" d="M756.33,580.47a19.2,19.2,0,0,1,13.79-13.87,12.79,12.79,0,0,1,7,.3,15.28,15.28,0,0,1,8.34,7.37v0a19.36,19.36,0,0,1,1.59,14c-2.37,9.06-11.16,16.1-19,13.37S754,589.53,756.33,580.47Z" transform="translate(-8.15 -216.21)"/><path class="cls-6" d="M759.56,578.22a16.83,16.83,0,0,1,10.56-11.62,12.79,12.79,0,0,1,7,.3,15.28,15.28,0,0,1,8.34,7.37v0a16.86,16.86,0,0,1,.7,10.66c-2.05,7.85-9.67,13.95-16.47,11.58S757.51,586.07,759.56,578.22Z" transform="translate(-8.15 -216.21)"/><path class="cls-7" d="M944.54,610.33s-7,9.59-15.94,5.58c0,0-1.92-5.36-2-9.31,0-.48,0-1,0-1.4,0-4.45-.18-6.94-.18-6.94h0c.41-.2,13.65-6.47,13.64-6C939.88,604.34,944.54,610.33,944.54,610.33Z" transform="translate(-8.15 -216.21)"/><path class="cls-3" d="M938.78,595.18a21.3,21.3,0,0,1-12.14,10c0-4.45-.18-6.94-.18-6.94h0C926.84,598.14,939.16,594.38,938.78,595.18Z" transform="translate(-8.15 -216.21)"/><path class="cls-7" d="M923.69,597.8s14.89,4,16.93-6.7,5.33-17.44-4.09-20.47-12.06.6-13.49,4S919.87,596.47,923.69,597.8Z" transform="translate(-8.15 -216.21)"/><path class="cls-8" d="M940.11,594c.2.15,1.4,2.59,7.46-11.34,1-2.19,3.62-8.24,1.4-12.42s-9.17-6.58-15.71-8-4.82,6.17-9.87,5.87a1.07,1.07,0,0,0-1.21.79c-1.09,2.92.74,6.83,3.49,7.05,2.39.2,4-.6,5.51-.07,2.35.86,3.18,5.13,3.36,6.5s.45,2.51,3.41,1.29,1.34,4.84.86,6C938.81,589.68,938.41,592.77,940.11,594Z" transform="translate(-8.15 -216.21)"/><path class="cls-9" d="M956.18,861.83h9.21c1.93,0,4.08-2.23,4.61-6.31s4.51-6.31,5.37-9.65-3.54-8-3.54-8l-.74-1.09-.76-1.13-7.3,2s-.18,2-.29,4.56c-.08,1.84-.12,4,0,5.84.21,4.45-1.08,9.25-4.52,10.11S956.18,861.83,956.18,861.83Z" transform="translate(-8.15 -216.21)"/><path class="cls-9" d="M915.7,861.83h23.9a2,2,0,0,0,.51-.17c1.59-.92,1.09-8,.9-10.14,0-.4-.06-.64-.06-.64s-8.41-7.75-9.56-1.81c0,.18-.08.36-.13.54h0c-1.46,5.56-8,8.08-11.75,8.78A4.34,4.34,0,0,0,915.7,861.83Z" transform="translate(-8.15 -216.21)"/><path class="cls-10" d="M920.51,702.72s1.28,18.36,2.78,40.43c2,30,4.49,66.81,4.73,73.79.42,12.12,2.11,31.5,2.11,31.5s4,4.6,12,2.66a360,360,0,0,0,9.15-56.94c0-.48.07-1,.1-1.44,1.89-29.8,4.83-92.55,4.83-92.55Z" transform="translate(-8.15 -216.21)"/><path class="cls-8" d="M920.51,702.72s1.28,18.36,2.78,40.43l28,51c0-.48.07-1,.1-1.44,1.89-29.8,4.83-92.55,4.83-92.55Z" transform="translate(-8.15 -216.21)"/><path class="cls-10" d="M928.47,698.8s12.92,61.43,22.78,95.36,10.28,50.37,10.28,50.37,11.19-2.52,12.4-5c0,0,3.83-58.12-3.78-74.73-4.29-9.39-3.57-31.14-3.57-41,0-18.35-5-36.58-5-36.58Z" transform="translate(-8.15 -216.21)"/><path class="cls-11" d="M972.7,727.55c.15,1.13-47.76,11.59-54.19,3.64-.12-.16-.8-23.09-1.35-41-.24-8.31-.47-15.52-.59-18.84,0-.83-.06-1.42-.08-1.71s0-.77-.07-1.15c-.39-6.5-.67-12.89-.76-18.58-.08-4.93,0-9.33.26-12.8.05-.72.11-1.38.18-2a38.29,38.29,0,0,1,7.93-19l2.78-3.54A13.21,13.21,0,0,0,936.3,610c3.34-2.47,6.58-1.75,7.25-1.31,5.17,3.49,9.69,9,12.5,20.66C957.56,635.57,972.54,726.31,972.7,727.55Z" transform="translate(-8.15 -216.21)"/><path class="cls-12" d="M931.45,558.87s-1.54-8.81,3.85-14.42,12.65-4.4,16.71.75c1.26,1.59,8.42,0,12.49,5s3.36,12.93,2,16.56c-1.28,3.33,3,10.47-2.79,15.83-6.8,6.28-17.18.95-17.18.95S939.37,559,931.45,558.87Z" transform="translate(-8.15 -216.21)"/><path class="cls-13" d="M922.67,568.27s22.33,2.27,21.12,22.23l9-14.82s-.66-19-21.57-19.31Z" transform="translate(-8.15 -216.21)"/><path class="cls-2" d="M946.05,644.48s-7.16,38.25-28.89,45.75c-.24-8.31-.47-15.52-.59-18.84Z" transform="translate(-8.15 -216.21)"/><path class="cls-3" d="M879,684c-1.51-.56-4.91-1.78-4.93-1.23a2.39,2.39,0,0,0,.81,1.45c-1.89-.12-3.75,0-7.58,2.38a3.59,3.59,0,0,0-1.6,2.24,1.67,1.67,0,0,0,1.12,2.26c2.49.75,1.64.07,5.12,1.21s7.17.42,8.88-1.86l2.69-1.57-1.1-5.51S880.72,683.77,879,684Z" transform="translate(-8.15 -216.21)"/><path class="cls-11" d="M880.49,686.85c-1-3.05.23-4.08.23-4.08s26-15.62,28.11-17.3,15.67-32.88,15.67-32.88,5-12.73,11.87-12.77c6,0,9.43,4.1,11.42,8.52a16.2,16.2,0,0,1-1.74,16.14c-7.61,10-22.9,29.85-26.93,32.93-9,6.87-36.3,13.3-36.3,13.3A10.44,10.44,0,0,1,880.49,686.85Z" transform="translate(-8.15 -216.21)"/><path class="cls-2" d="M941.23,602.63s3.34,3.72,2.32,6c0,0-7.77,6.94-18.62,6.18a8.26,8.26,0,0,1,2.85-3.05C929.54,610.8,939.24,606,941.23,602.63Z" transform="translate(-8.15 -216.21)"/><rect class="cls-13" x="597.92" y="404.02" width="3.71" height="139.16"/><rect class="cls-13" x="676.61" y="404.02" width="3.71" height="178.89"/><path class="cls-14" d="M557,407.37c1.22,2.54,6.32-1,7.22-1.61a6.77,6.77,0,0,1,3.23-.16s1-6-.3-5.9c-1.68.12-7.42-2.73-8.81-2S555.66,404.65,557,407.37Z" transform="translate(-8.15 -216.21)"/><path class="cls-15" d="M623.31,312.75c.18-.72,25.6,8,25.82,9.23,2,11,0,13.46-3.25,11.39-2.1-1.32-8,8.85-8,8.85l-17.5-26.66Z" transform="translate(-8.15 -216.21)"/><path class="cls-14" d="M565.84,399.77l-.84,5s.27.11.76.27c1.54.49,5.27,1.75,9.56,2.92a75.62,75.62,0,0,0,14,2.88,12.71,12.71,0,0,0,3.74-.19c5.44-1.33,15.74-8,23.49-15.68.2-.18.38-.38.56-.57,4.06-4.1,7.36-8.48,8.74-12.48a23.92,23.92,0,0,0,1.4-6.69,19.77,19.77,0,0,0-.74-6.86,3.06,3.06,0,0,0-.27-.86A14.86,14.86,0,0,0,624,363c-.69-.73-1.73-.62-3,.15v0a16.85,16.85,0,0,0-3.59,3.06s-.1.05-.11.08l-.91,1c-.09,0-.16.15-.22.21-.65.76-1.32,1.55-2,2.38-7.44,8.84-16.82,23-22,26.25a19.65,19.65,0,0,1-5.7,1.59c-3.53.6-8,1.09-11.87,1.44C569.75,399.58,565.84,399.77,565.84,399.77Z" transform="translate(-8.15 -216.21)"/><path class="cls-11" d="M586.47,397.73a22.22,22.22,0,0,0,2.89,13.12,12.71,12.71,0,0,0,3.74-.19c5.44-1.33,15.74-8,23.49-15.68.2-.18.38-.38.56-.57,4.06-4.1,7.36-8.48,8.74-12.48a23.92,23.92,0,0,0,1.4-6.69,19.77,19.77,0,0,0-.74-6.86,3.06,3.06,0,0,0-.27-.86c-.95-2.92,2.87-7.36,2.87-7.36-.7-.73-6.87,2.22-8.14,3v0a16.85,16.85,0,0,0-3.59,3.06s-.1.05-.11.08l-.91,1c-.09,0-.16.15-.22.21-.65.76-1.32,1.55-2,2.38-7.44,8.84-16.82,23-22,26.25A19.65,19.65,0,0,1,586.47,397.73Z" transform="translate(-8.15 -216.21)"/><path class="cls-16" d="M624.64,604.25l4.79,2s20.8-33.25,23.36-62.51a51.34,51.34,0,0,0-.68-15l.55-3.7c.17-1.11.37-2.44.6-4l2.67-17.54c2.45-16,5.62-36.48,8.08-51.52l-1.29-.48-14-5.19-2.88-10.57-10.4-3.15s-2.32,5.23-4.39,30c-.39,3.25-.73,6.82-1,10.7a244.66,244.66,0,0,0,1,43.34c.48,4.3,1.08,8.74,1.83,13.3a68.09,68.09,0,0,1,.4,13.13C632.26,567.08,624.64,604.25,624.64,604.25Z" transform="translate(-8.15 -216.21)"/><path class="cls-17" d="M630.09,473.39l22.57,51.74c.17-1.11.37-2.44.6-4l2.67-17.54c2.45-16,5.62-36.48,8.08-51.52l-1.29-.48-14-5.19-2.88-10.57-10.4-3.15s-2.32,5.23-4.39,30C630.7,465.94,630.36,469.51,630.09,473.39Z" transform="translate(-8.15 -216.21)"/><path class="cls-16" d="M640,439.36l.53-5.17c8.75,2.68,32.14-7.49,32.14-7.49s8.48,8.59,7.36,29.19c-.54,10.06-1.53,52.79-2.57,65.43-.37,4.58-.7,7.84-.84,9.15h0a2,2,0,0,0,.26,1.12,64,64,0,0,1,3.82,9.28c10.18,31.26-1.56,69.76-1.56,69.76l-3-1.41s-6.68-42.85-12.11-61.78a41.45,41.45,0,0,0-2.62-7.24c-2.36-4.39-4.55-11.57-6.54-20.11C651.08,504,648.06,483,646,466.75,645.76,466.77,640,439.36,640,439.36Z" transform="translate(-8.15 -216.21)"/><path class="cls-7" d="M623.3,376.7a24.31,24.31,0,0,0,10.08,2.72c15,.95,18.47-14.26,19.09-24.35a11.14,11.14,0,0,0-5.17-.76c-1.06.07-2.18.2-3.09.33-1.85-1.11-5.15-6.5-7.06-15.5l-.65.34-10.86,5.89s1.15,4.07,2,8c.67,3.05,1.14,6,.75,6.82-.86.4-1.37.66-1.37.66h0A96.2,96.2,0,0,0,623.3,376.7Z" transform="translate(-8.15 -216.21)"/><path class="cls-11" d="M619.54,388.08c.11.35.23.69.37,1,3.81,9.47,5.73,96.85,5.73,96.85-1,7.05,48.12,7.87,59.23-3.45,0,0-4.52-68.82-21.87-120.79l-5,4.9c-.83-.71-1.88-1-1.8-1.89,0-.42.08-.84.13-1.26a40.11,40.11,0,0,1,2.18-8.39c-4-1.89-14.31-.44-14.31-.44l-7.71,6.71-8.11-1.19a34.87,34.87,0,0,0-10,6.61C622.27,369.67,616.53,378.9,619.54,388.08Z" transform="translate(-8.15 -216.21)"/><path class="cls-14" d="M625.64,345.37s1.15,4.07,2,8c6.35-2,8.28-9.73,8.86-13.85Z" transform="translate(-8.15 -216.21)"/><path class="cls-7" d="M623.14,346.41s15.58.27,15.58-10.92,2-18.7-8-19.34-11.88,3.63-12.67,7.36S619.08,346.06,623.14,346.41Z" transform="translate(-8.15 -216.21)"/><path class="cls-15" d="M618.56,317.29c2.4-3.37,4.22-2.64,5.24-1.63,8.51-5.41,14,2.56,14,2.56a22.1,22.1,0,0,0,6.09,12.62s-2.84,2-9.39.1a11.2,11.2,0,0,1-5.31-4.21,40.58,40.58,0,0,0,6.27,8.8c-7.83-4.15-11-16.69-11.3-18a14.11,14.11,0,0,0-3.4,5.23c-.77,2.85-1.11,8.72-2.59,8.52C618.18,331.26,615,322.34,618.56,317.29Z" transform="translate(-8.15 -216.21)"/><path class="cls-10" d="M661.44,613.51h24.11a17.47,17.47,0,0,0-.68-7.45c-1.21-3.08-3.1-4.49-2.64-8.22-1.54,1.82-4,3.86-7.52,3.32-.43.8-2.76,5.07-4.18,6.25C669,608.72,661.92,608.25,661.44,613.51Z" transform="translate(-8.15 -216.21)"/><path class="cls-10" d="M609.66,613.51h24.12s.9-4.43-.69-7.45c-1.4-2.67-.86-4.19.18-6.4a8.2,8.2,0,0,1-4.06.88,7.7,7.7,0,0,1-3.59-1.45c-1,1.36-5.48,7.17-6.87,8.32C617.17,608.72,610.15,608.25,609.66,613.51Z" transform="translate(-8.15 -216.21)"/><path class="cls-8" d="M644.88,384.73c-.15-.9-.83-1.51-1.5-1.36a1.61,1.61,0,0,0-.94,1.93c.16.9.83,1.52,1.51,1.36A1.61,1.61,0,0,0,644.88,384.73Z" transform="translate(-8.15 -216.21)"/><path class="cls-8" d="M630.11,386.42c-.15-.91-.83-1.52-1.5-1.36a1.6,1.6,0,0,0-.94,1.93c.16.9.83,1.51,1.51,1.36A1.61,1.61,0,0,0,630.11,386.42Z" transform="translate(-8.15 -216.21)"/><path class="cls-8" d="M646.71,404.66c-.15-.91-.83-1.52-1.5-1.37a1.61,1.61,0,0,0-.94,1.93c.16.91.83,1.52,1.51,1.36A1.6,1.6,0,0,0,646.71,404.66Z" transform="translate(-8.15 -216.21)"/><path class="cls-8" d="M631.94,406.35c-.15-.91-.83-1.52-1.5-1.37a1.61,1.61,0,0,0-.94,1.93c.16.91.83,1.52,1.51,1.36A1.6,1.6,0,0,0,631.94,406.35Z" transform="translate(-8.15 -216.21)"/><path class="cls-2" d="M662.8,378.53s-1.73,57.46-38.65,61.38l-.56-12.28,20.07-18.41Z" transform="translate(-8.15 -216.21)"/><path class="cls-7" d="M608.44,430.4l1.26,5.34s1.59-.32,4.12-.86c.75-.16,1.17-.27,1.17-.27,2.07-.49,4.5-1.08,7.12-1.78h0c3.65-1,7.73-2.21,11.38-3.51.84-.27,1.69-.59,2.48-.92.57-.21,1.08-.43,1.6-.65L629.94,416c-.57.48-1.18.91-1.79,1.35-3.13,2.32-6.69,4.69-9.92,6.8-2,1.35-3.94,2.54-5.53,3.56C610.12,429.37,608.44,430.4,608.44,430.4Z" transform="translate(-8.15 -216.21)"/><path class="cls-11" d="M628.16,417.37c1.4,5.69,3.41,9.47,5.4,12,.84-.3,1.67-.6,2.47-.92a35.88,35.88,0,0,0,7.39-3.8,3.77,3.77,0,0,0,.51-.42c4.24-3.55,9.27-14,13.18-25.19.55-1.54,1.06-3.09,1.56-4.59a128.35,128.35,0,0,0,4.13-15.88,50.14,50.14,0,0,0,1-7.56,19.27,19.27,0,0,0,0-2.13c-.07-12.11-5.29-13.78-5.29-13.78a2.49,2.49,0,0,0-.36-.13c-.91-.16-1.85.54-2.83,1.92a39.65,39.65,0,0,0-3.88,7.9c-2.06,5.39-4.24,12.36-6.27,19.3-1.12,3.8-2.21,7.6-3.29,11.11-.62,2.13-1.24,4.13-1.81,6a62.67,62.67,0,0,1-3.05,8.14c-.58,1.17-2.25,2.8-4.46,4.64C631.28,415,629.77,416.17,628.16,417.37Z" transform="translate(-8.15 -216.21)"/><path class="cls-12" d="M633.73,306s.38-8.83,6.76-12.78,13.17-.77,16,5.34c.88,1.89,8.15,2.31,11.06,8.27s.56,13.45-1.54,16.58c-1.94,2.88.74,11-6,14.56-7.89,4.21-16.83-3.82-16.83-3.82S641.38,308.21,633.73,306Z" transform="translate(-8.15 -216.21)"/><path class="cls-11" d="M623.31,312.75s21.16,8.37,15.84,27.37L651,328.26s3.31-18.63-16.88-24.66Z" transform="translate(-8.15 -216.21)"/><path class="cls-18" d="M645.6,354.47a22.9,22.9,0,0,0-4.39-3.64s-5.41,7.11-5.41,8.47a12,12,0,0,0,1.24,3.8S641.21,362.21,645.6,354.47Z" transform="translate(-8.15 -216.21)"/><path class="cls-12" d="M628.11,355.65s-2.39,2.6-1.37,4.88c0,0,8,7.21,18.86,6.45a8.3,8.3,0,0,0-2.84-3C641,363,630.1,359,628.11,355.65Z" transform="translate(-8.15 -216.21)"/><path class="cls-19" d="M601.15,231.6,543.57,364l-.52,1.18-.84,1.94-3.27,7.52-7.38,17L517.49,423.9l-3,6.85-3,6.95L501.79,460,493,480.22,484.81,499l-3.35,7.71-4.31.4,3.35-7.68,17.93-41.23,9.17-21.09,3-7,5.71-13.12,11.84-27.22,8.41-19.33,3.85-8.84,1.7-3.91,55.71-128.06Z" transform="translate(-8.15 -216.21)"/><path class="cls-19" d="M606,237.63c-1.57,2.68-27.57,61.46-57.19,128.72q-3,6.81-6,13.72c-7.53,17.1-15.19,34.55-22.67,51.56l-3,6.92-.69,1.57-13.86,31.56c-4.08,9.31-8,18.25-11.71,26.69-1.16,2.63-2.29,5.22-3.4,7.75l-4.33.45c.83-1.91,2-4.51,3.38-7.72,2.1-4.77,4.77-10.88,7.92-18l1.83-4.17c4.79-10.93,10.52-24,16.77-38.2.07-.17.15-.33.22-.5,1-2.29,2-4.6,3-6.94h0c3.37-7.69,6.89-15.67,10.47-23.82,4.43-10.06,9-20.39,13.51-30.72l1.29-2.93q2-4.49,3.86-8.77c56.62-128.58,57.41-129.45,57.89-130l2.53,3.09A2.69,2.69,0,0,0,606,237.63Z" transform="translate(-8.15 -216.21)"/><path class="cls-19" d="M549.71,309.46,548,312,470.84,425.68l-4.73,7-47.85,70.51-5.06,7.45-4.73.09,5-7.43,48.16-71,4.74-7,80.4-118.48,2.24,2Z" transform="translate(-8.15 -216.21)"/><path class="cls-19" d="M531.23,321.86,445,423.91l-6,7-61.2,72.39-6.11,7.22c-1.69,0-3.37-.08-5.05-.12l6.08-7.2L434,430.73l6-7.07,88.58-104.78Z" transform="translate(-8.15 -216.21)"/><path class="cls-19" d="M629.56,395.86l-1.75,2.58L550.69,512.08l-4.73,7-47.85,70.51L493.05,597l-4.74.08,5-7.42,48.16-71,4.74-7,80.4-118.47,2.24,2Z" transform="translate(-8.15 -216.21)"/><path class="cls-19" d="M603.38,426,518.81,529.89,513,537.07l-60,73.72-6,7.37H442l6-7.33L508,537l5.86-7.2L600.69,423Z" transform="translate(-8.15 -216.21)"/><polygon class="cls-19" points="486.53 264.77 483.09 263.23 557.56 43.44 561 44.99 486.53 264.77"/><path class="cls-19" d="M507.25,507.13l-6.75,6.51c36.43-88.13,112.62-273.06,114.13-278.44l3.56,1.13C617,241.54,518.12,480.83,507.25,507.13Z" transform="translate(-8.15 -216.21)"/><polygon class="cls-19" points="509.11 305.1 500.05 318.02 613.68 25.21 617.05 26.95 509.11 305.1"/><path class="cls-19" d="M497,501.35l-3.46-1.46c26.47-83.93,76.8-244.23,77.75-250.14l3.63.77C573.74,258.18,500.17,491.42,497,501.35Z" transform="translate(-8.15 -216.21)"/><polygon class="cls-19" points="489.01 299.63 483.77 302.46 590.46 41.79 593.8 43.6 489.01 299.63"/><path class="cls-7" d="M607.87,429.68a22.23,22.23,0,0,0-5.39-1.84c-2-.41-4.53-.78-4.36,0s4.33,2.22,4.45,2.56S607.87,429.68,607.87,429.68Z" transform="translate(-8.15 -216.21)"/><path class="cls-7" d="M593.79,435.05c.81.71,7.23,3.61,9.68,2.72,1.37-.49,6.12-1.85,8-2.39l3.5-.78L613,427.66a1.27,1.27,0,0,0-.26.08,17.46,17.46,0,0,1-4.27,1.52c-2.44.42-5.49-1.35-7.07-.35-3.35,2.12-8,0-9,1.1C591.5,430.86,591.79,433.29,593.79,435.05Z" transform="translate(-8.15 -216.21)"/><path class="cls-7" d="M556.34,400.53c.51-1.37,1.56-3.64,4.14-3.31,3.09.38,8.67,4.07-2.18,10.84C555.07,410.07,555.31,403.34,556.34,400.53Z" transform="translate(-8.15 -216.21)"/><path class="cls-20" d="M221.84,605H167.51c-5.88,0-10.69-5.55-10.69-12.33h0c0-6.79,4.81-12.33,10.69-12.33h54.33c5.88,0,10.69,5.54,10.69,12.33h0C232.53,599.47,227.72,605,221.84,605Z" transform="translate(-8.15 -216.21)"/><path class="cls-12" d="M601.64,605H547.31c-5.88,0-10.69-5.55-10.69-12.33h0c0-6.79,4.81-12.33,10.69-12.33h54.33c5.88,0,10.7,5.54,10.7,12.33h0C612.34,599.47,607.52,605,601.64,605Z" transform="translate(-8.15 -216.21)"/><path class="cls-20" d="M565.78,501.86V808.73c0,28.61-20.12,51.81-44.94,51.81H255.36c-24.82,0-44.94-23.2-44.94-51.81V501.86Z" transform="translate(-8.15 -216.21)"/><path class="cls-12" d="M565.78,502.09V809c0,28.61-20,51.81-44.75,51.81H317.28c-24.71,0-44.75-23.2-44.75-51.81V502.09Z" transform="translate(-8.15 -216.21)"/><path class="cls-21" d="M567.21,514.94H209c-3.58,0-6.52-3.38-6.52-7.51h0c0-4.13,2.94-7.51,6.52-7.51H567.21c3.59,0,6.52,3.38,6.52,7.51h0C573.73,511.56,570.8,514.94,567.21,514.94Z" transform="translate(-8.15 -216.21)"/><path class="cls-22" d="M547.28,640.32v-80.9s2.15-27-14.78-29.08-23.09,9.22-20,29.08S510,689.22,518,697.73s24,8.51,27.07,0S547.28,640.32,547.28,640.32Z" transform="translate(-8.15 -216.21)"/><path class="cls-19" d="M479.72,656.89c0-.55-.9-56-2.21-97.45-1.43-45.07-10-72.34-23.61-74.82-5.85-1.07-11,1.32-15.35,7.11a25.79,25.79,0,0,0-4.37,8.19h-6.07c2.6-8.37,11.8-24,26.62-21.34,22.34,4.08,27.18,52.27,28.08,80.63,1.31,41.48,2.2,97,2.21,97.57Z" transform="translate(-8.15 -216.21)"/><path class="cls-23" d="M412.8,856.07c0,2.27.29,4.42,1,5.26h28.63a5.14,5.14,0,0,0-4.34-3.54c-3.34-.62-8-5-11-8.68-1.08-1.31-2.43-.37-2.78-2.18-1.35-6.91-11.14,2.12-11.14,2.12A65.59,65.59,0,0,0,412.8,856.07Z" transform="translate(-8.15 -216.21)"/><path class="cls-24" d="M369.1,856.07c0,2.27.28,4.42,1,5.26h28.62a5.11,5.11,0,0,0-4.33-3.54c-3.34-.62-8.55-2.47-11.59-6.18a10.53,10.53,0,0,1-2.24-4.68c-1.34-6.91-11.13,2.12-11.13,2.12A62.73,62.73,0,0,0,369.1,856.07Z" transform="translate(-8.15 -216.21)"/><path class="cls-8" d="M424.25,852a15.67,15.67,0,0,1-11.31-.65c-2.51-1.09-17.55-43.44-18.46-63.9a60.1,60.1,0,0,0-.72-6.1c-.83-5.28-2.28-12.54-4-20.54-4.49-21.46-10.56-48.31-10.43-56.89.21-13.32,34.43-2.79,34.43-2.79a163.36,163.36,0,0,1,2.82,26.74c.93,31.39,3.49,84.43,10.43,121.25C427.35,850.68,425.58,851.5,424.25,852Z" transform="translate(-8.15 -216.21)"/><path class="cls-10" d="M407.6,709.75l-23,143.08s-9.88,3.36-16.75,0c0,0-4-77.66-3.55-97.1s-3.81-52,1-55.6S407.6,709.75,407.6,709.75Z" transform="translate(-8.15 -216.21)"/><path class="cls-25" d="M395.08,608s15.73,3.09,19.32,9.48c5.13,9.12,17.59,39.53,17.81,54.8.29,20.56-19.14,27.48-21.51,19.36-2-6.74-6.8-48.94-10.31-62Z" transform="translate(-8.15 -216.21)"/><path class="cls-25" d="M421.33,752.25s-7.28,6.8-22,8.33c-1.65.5-29.83.5-41.77-4.23-.25-.1.63-29.22,1.64-59.26V697c.1-3.05.21-6.12.31-9.16.05-1.31.09-2.62.13-3.92.31-9,.62-17.63.9-25.24.55-14.93,1-25.75,1.12-26.61.43-2.92.84-5.41,1.29-7.57,1.3-6.3,2.91-9.75,6.44-12.71.34-.31,3.16-2,5.64-3.37l3.89-2.21h0s27.12.89,29.73,8.74S421.33,752.25,421.33,752.25Z" transform="translate(-8.15 -216.21)"/><path class="cls-7" d="M392.72,610.05c-1.42.32-3.25,1.83-5,1.69-3.39-.29-6.92-2.92-9.91-5.19A55.5,55.5,0,0,0,381,593.63c0-.16,0-.3,0-.45a15.24,15.24,0,0,0,.06-3H392s3,1.57,3,2.65c0,.58,0,1.13,0,1.66,0,1.44.07,2.7.14,3.78a39.66,39.66,0,0,0,.56,5.17S397,609.09,392.72,610.05Z" transform="translate(-8.15 -216.21)"/><path class="cls-26" d="M395.08,598.31A13.92,13.92,0,0,1,381,593.63c-.15-.19-.23-.31-.23-.31l.27-.14c3.07-1.43,10-.29,13.9,1.35C395,596,395,597.23,395.08,598.31Z" transform="translate(-8.15 -216.21)"/><path class="cls-7" d="M378.31,588.16c1.47,9.13,11.69,8.83,16.1,8.26,1.24-.16,2-.35,2-.35,1.4-.43,2.19-3,2.55-6.3.72-6.59-.19-16.27-1.16-18.75-1.45-3.72-4.19-7.75-14.47-4.84S376.43,576.47,378.31,588.16Z" transform="translate(-8.15 -216.21)"/><path class="cls-8" d="M398.21,565.93a24.7,24.7,0,0,0-7.1-6.67c-5.81-3.63-13.26.11-13.29.13-8.4,4.26-3.29,25.48-.72,24.49,2-.77.68-1.89,1.55-2.79,1.06-1.09,2.54.23,3,1.25a1.21,1.21,0,0,0,1.85.47c2.61-1.91.91-5.72,3.41-8s7.57-.37,11.32-2.23C403.14,570.42,399.26,567.62,398.21,565.93Z" transform="translate(-8.15 -216.21)"/><path class="cls-25" d="M392,590.22a4,4,0,0,0,3.52,1c1.29-.26,2-2.19,2-2.19A8.55,8.55,0,0,0,392,590.22Z" transform="translate(-8.15 -216.21)"/><path class="cls-8" d="M380.77,631.14a1.42,1.42,0,1,1,1.41,1.63A1.53,1.53,0,0,1,380.77,631.14Z" transform="translate(-8.15 -216.21)"/><path class="cls-8" d="M397.49,629.52a1.42,1.42,0,1,1,1.41,1.62A1.53,1.53,0,0,1,397.49,629.52Z" transform="translate(-8.15 -216.21)"/><path class="cls-8" d="M382.57,650.49a1.42,1.42,0,1,1,1.41,1.62A1.53,1.53,0,0,1,382.57,650.49Z" transform="translate(-8.15 -216.21)"/><path class="cls-8" d="M399.28,648.86a1.42,1.42,0,1,1,1.41,1.63A1.52,1.52,0,0,1,399.28,648.86Z" transform="translate(-8.15 -216.21)"/><path class="cls-8" d="M383.59,669.38A1.42,1.42,0,1,1,385,671,1.53,1.53,0,0,1,383.59,669.38Z" transform="translate(-8.15 -216.21)"/><path class="cls-8" d="M400.31,667.76a1.42,1.42,0,1,1,1.41,1.62A1.53,1.53,0,0,1,400.31,667.76Z" transform="translate(-8.15 -216.21)"/><path class="cls-27" d="M387.87,695.79s-6.39,5.33-28.63,1.16c.1-3.05.21-6.12.31-9.16.05-1.31.09-2.62.13-3.92.31-9,.62-17.63.9-25.24,3.53-6.6,6.49-11.39,6.49-11.39s-.29,18.14,6.34,23.77C390.94,685.9,387.87,695.79,387.87,695.79Z" transform="translate(-8.15 -216.21)"/><path class="cls-27" d="M390.31,557.68s1.43-8.64-3.78-14.06-12.24-4.25-16.17.73c-1.21,1.54-8.14,0-12.08,4.81s-3.25,12.51-1.9,16c1.24,3.23-2.91,10.12,2.7,15.31,6.58,6.08,16.62.92,16.62.92S382.65,557.75,390.31,557.68Z" transform="translate(-8.15 -216.21)"/><path class="cls-25" d="M398.75,566.66s-21.61,2.19-20.44,21.5l-8.74-14.33s.64-18.43,20.87-18.68Z" transform="translate(-8.15 -216.21)"/><path class="cls-27" d="M412.79,699.15s.4-54.77,1.64-54.77,4.72,12.51,4.72,22.36C419.15,679.13,415,699.62,412.79,699.15Z" transform="translate(-8.15 -216.21)"/><path class="cls-28" d="M767.25,861H446.82c-9.74,0-18.65-6.33-23-16.35L404.94,801.5H805.76l-17.15,43.59C784.81,854.76,776.45,861,767.25,861Z" transform="translate(-8.15 -216.21)"/><ellipse class="cls-29" cx="597.2" cy="580.48" rx="289.86" ry="26.2"/><path class="cls-30" d="M806.41,795.68l-.25.08a220.7,220.7,0,0,1-23.42,6c-2,.41-4,.82-6.11,1.21-7.18,1.36-15,2.63-23.36,3.8-2.06.29-4.15.58-6.27.85q-11.37,1.49-23.91,2.7h0q-4.64.45-9.43.86h0c-11.78,1-24.21,1.87-37.17,2.53l-4.19.2q-5.07.24-10.25.44l-1,0q-9.91.38-20.15.6-6.39.13-12.88.22l-2.55,0q-6.86.06-13.82.07h-6.53c-40.71-.2-78.6-2.22-110.72-5.57l-1.37-.15h0q-7.38-.78-14.33-1.65l-.22,0h0l-1.19-.15q-5.58-.72-10.84-1.49l-1.77-.26c-43.2-6.46-70.27-15.73-70.27-26a12.93,12.93,0,0,1,2.91-8.79C408,757.07,439.38,729,499.38,725.93c45.41-2.3,78.61,8.86,98.72,18.82,15.06,7.47,22.78,14.28,22.78,14.28h0s.3-.26.77-.63a111.14,111.14,0,0,1,22.28-13.32c20.58-9.49,54.08-18.58,97-8.11,25.64,6.26,42.31,15,52.81,23.76C813.17,777,811.46,793.67,806.41,795.68Z" transform="translate(-8.15 -216.21)"/><path class="cls-30" d="M703.83,742.8s34.18-4.27,59.51,9.58,32.44,25.72,31.13,34.33-38.28,6.09-38.28,6.09-23.47-5.31-25.15-6.09S703.83,742.8,703.83,742.8Z" transform="translate(-8.15 -216.21)"/><path class="cls-31" d="M683.39,805.39c-.69,4.26-4.25,6.93-6.93,8.36l-4.19.2c2.22-.73,9.07-4.78,9.78-9.18.28-1.74-.31-3.72-1.76-5.89-7-10.51-28.25.14-28.46.25l-.4-2.25a56.79,56.79,0,0,1,11.9-4.19c8.64-1.87,14.65-.38,17.87,4.44A11.45,11.45,0,0,1,683.39,805.39Z" transform="translate(-8.15 -216.21)"/><path class="cls-31" d="M766.84,791.16c-.45,4.61-3.48,8.93-9,12.83a41.31,41.31,0,0,1-4.57,2.81c-2.06.29-4.15.58-6.27.85,5.59-2.71,17.81-10.06,18.48-16.87.3-3.1-1.15-6.39-4.31-9.78-7.73-8.27-26.79-13.93-48.55-14.43C687,766,661.8,772.3,641.68,784.36l-.46-2.2c20.27-12.16,45.63-18.53,71.42-17.93,22,.51,41.34,6.31,49.27,14.8C765.58,783,767.24,787,766.84,791.16Z" transform="translate(-8.15 -216.21)"/><path class="cls-25" d="M432.12,670.41s2.5,23.75-14.35,35l-5-6.28,8-23.56Z" transform="translate(-8.15 -216.21)"/><path class="cls-10" d="M322.84,654.9l3.43-4.92a4.42,4.42,0,0,1,6-1l126,83.27a1.49,1.49,0,0,0,2-.33l.77-1.11a15.5,15.5,0,0,1,10.7-6.35,17.35,17.35,0,0,1,12.54,3.27l47.59,35.45a1.33,1.33,0,0,1,.35,1.82l-.84,1.2a1.47,1.47,0,0,1-2,.31l-49.13-33.9a10,10,0,0,0-7.27-1.89,9.65,9.65,0,0,0-2.77.8,1.31,1.31,0,0,0-.12,2.32l56.46,36.89a1.32,1.32,0,0,1,.43,1.86l-.92,1.33a1.48,1.48,0,0,1-2,.35l-58.35-35.88a1.48,1.48,0,0,0-2,.36l-1,1.41a1.32,1.32,0,0,0,.43,1.87l57.5,37.09a1.32,1.32,0,0,1,.43,1.87l-.86,1.25a1.49,1.49,0,0,1-2,.36l-57.81-35a1.42,1.42,0,0,0-2.2,1,8.42,8.42,0,0,0,.32,2.8,9.19,9.19,0,0,0,4.71,5.64L515.14,787a1.33,1.33,0,0,1,.49,1.91l-.52.75a1.46,1.46,0,0,1-1.88.41l-53-27.51a16.12,16.12,0,0,1-8.13-9.72,14.05,14.05,0,0,1,1.95-11.92h0a1.32,1.32,0,0,0-.47-1.89L324.17,660.57A4,4,0,0,1,322.84,654.9Z" transform="translate(-8.15 -216.21)"/><path class="cls-7" d="M375.83,689.56s3.25-.62,4.79.39,5.39,1.62,5.22,2.64-5,1.46-6.25,1S375.83,689.56,375.83,689.56Z" transform="translate(-8.15 -216.21)"/><path class="cls-7" d="M375.15,690.07a3.43,3.43,0,0,0-.35,4.94c2.12,2.21,4.85,5,5.52,5.6,1.13.94,7.16,1.72,8.73-.73,0,0-5.07-2.51-5.79-6.41-.76-4.15-7.43-3.91-7.43-3.91Z" transform="translate(-8.15 -216.21)"/><path class="cls-25" d="M374.92,697.53s-29.45-8-32.29-29.77c-2.5-19.23,12.11-48.09,15.95-52.93,4.48-5.66,12.66-7.64,17.17-8.32l.55-.08c1.59-.22,2.61-.27,2.66-.27h0s-.36,1.31-1,3.54c-.23.86-.5,1.86-.79,3-2.78,10.47-11.45,35.94-14.24,50-1.78,8.92,15,26.71,15.46,26.74C378.48,689.38,374.92,697.53,374.92,697.53Z" transform="translate(-8.15 -216.21)"/><path class="cls-27" d="M375.89,606.51a27.7,27.7,0,0,1,3.69-5.3s7.5,5.65,7.85,7.08a13.79,13.79,0,0,1-.35,4.42S382.47,613.17,375.89,606.51Z" transform="translate(-8.15 -216.21)"/><path class="cls-7" d="M410.45,699.88s.64,8.83,2.43,9.71,5.14-2.07,5.5-3.9-4.1-7.28-5.89-7.43A1.89,1.89,0,0,0,410.45,699.88Z" transform="translate(-8.15 -216.21)"/><path class="cls-32" d="M395.56,603.22s2.8,2.56,2.14,5.26c0,0-7,9.34-18.72,11.24a9.67,9.67,0,0,1,2.47-4C383.15,614.28,394.06,607.3,395.56,603.22Z" transform="translate(-8.15 -216.21)"/><path class="cls-30" d="M640.91,815q-6.39.13-12.88.22l-2.55,0q-6.86.06-13.82.07h-6.53c-40.71-.2-78.6-2.22-110.72-5.57l-1.37-.15h0q-7.38-.78-14.33-1.65l0,0-.2-.06h0l-1.13-.37a41.67,41.67,0,0,1-9.75-4.43,13.21,13.21,0,0,1-1.49-1.14,5.48,5.48,0,0,1-2.24-4,8.07,8.07,0,0,1,2-5.74c3.84-4.77,11.48-12,23.69-18.08,11.47-5.74,27-10.55,47.16-11.51,4.52-.21,8.87-.24,13-.13h0c24.89.71,43.51,6.84,55.46,12.42,10.45,4.88,15.81,9.32,15.81,9.32S650.14,804.58,640.91,815Z" transform="translate(-8.15 -216.21)"/><path class="cls-31" d="M607.17,815.34h-2a168.92,168.92,0,0,0-18.74-20.71c-13.93-13-35.55-27.7-59.42-24.47-13.13,1.77-31.06,7.36-42,24A49.66,49.66,0,0,0,478.7,808l0,0-.2-.06h0l-1.19-.15.06-.22A51.89,51.89,0,0,1,484,792.79c6.17-9.45,18.62-21.4,42.88-24.67S573,779.79,587.11,792.9A172.87,172.87,0,0,1,607.17,815.34Z" transform="translate(-8.15 -216.21)"/><path class="cls-31" d="M628,815.25l-2.55,0A201,201,0,0,0,602,791.83c-17.56-14.71-44.81-31.49-74.9-27.82-16.55,2-39.16,8.37-52.9,27.25a54.16,54.16,0,0,0-6.57,11.87c-.45,1.12-.83,2.18-1.15,3.16l-1.77-.26c.38-1.23.85-2.58,1.43-4a57.79,57.79,0,0,1,6.77-12.23,60.87,60.87,0,0,1,16.7-15.57c8.9-5.69,21-10.5,37.34-12.49a74.41,74.41,0,0,1,22.86.85h0c21.23,4,39.85,16.25,53.07,27.32A204.39,204.39,0,0,1,628,815.25Z" transform="translate(-8.15 -216.21)"/><path class="cls-31" d="M563,802.11c-2.27,4.47-9.74,6.87-17,7.81-1.22.15-2.43.26-3.61.34-8.27.52-19.53-.61-26.31-5.38l.5-1.83c5.48,3.85,15.32,5.84,25.67,5.18,10-.63,17.73-3.55,19.69-7.42,1.13-2.22,1.06-5.21-.19-8.19-3.84-9.12-16.9-15.85-37.45-10.3-8.77,2.36-20.5,7.48-26.6,18.39a28.41,28.41,0,0,0-3.24,9l-1.37-.15a30.06,30.06,0,0,1,3.48-10.11c5.06-9.18,14.29-15.64,27.42-19.18,22.62-6.11,35.07,2.26,38.87,11.29C564.36,795.31,564.43,799.24,563,802.11Z" transform="translate(-8.15 -216.21)"/><path class="cls-31" d="M747.39,792.56c-1,8.9-15.7,15-24.3,17.79h0q-4.64.45-9.43.86c7.77-2,31.41-10.39,32.38-19.09.24-2.2-.95-4.59-3.54-7.1-16.37-15.81-96.8,3.87-97.61,4.07l-.2-2.32c.2,0,20.6-5.07,42.79-8,29.89-4,48.63-2.58,55.71,4.26C746.34,786,747.76,789.26,747.39,792.56Z" transform="translate(-8.15 -216.21)"/><path class="cls-31" d="M662.9,814.36l-.88,0-1,0c-3.48-5.73-25.11-40.77-40.5-54.37l.32-1h0l.32-1,.45.4C638.51,773.61,662.67,814,662.9,814.36Z" transform="translate(-8.15 -216.21)"/><path class="cls-31" d="M793.73,784.4c-.9,8.19-7.53,14.58-11,17.39-2,.41-4,.82-6.11,1.21,2.69-1.82,14.8-10.42,15.74-19a14.18,14.18,0,0,0-2.44-9.38C781.16,761,738.65,729,686.34,751.88c-36.21,15.86-49.11,26.09-49.24,26.19l-.59-2.11c.12-.11,13.11-10.42,49.48-26.35,28-12.29,52.41-8.22,67.9-2.65,18.24,6.56,31.71,17.74,37,25.91A17.33,17.33,0,0,1,793.73,784.4Z" transform="translate(-8.15 -216.21)"/><path class="cls-33" d="M514.23,724.33s-9.09,5.45-.25,17.62,34.53.36,45.59,7.06,2.09,16.61,14.76,25.27,24.89-20.43,37.32-12.16,54.86,19.93,55.57,3.24,20.91-23.07,28.55-28.07-20-13-33.75-15c-9.54-1.42-55.42-29.7-83-21.43S527,716,514.23,724.33Z" transform="translate(-8.15 -216.21)"/><path class="cls-34" d="M596.65,704c.77-7.14-.8-28.28-2-29.58s-12.24,11.32-13.8,17.92.61,15.62,4.83,20.15S595.86,711.24,596.65,704Z" transform="translate(-8.15 -216.21)"/><path class="cls-30" d="M637.73,750c-.75-1.5-5.11-4.73-5.52-4.51s-.39,5.84.35,7.33a2.85,2.85,0,0,0,3.93,1.3A3.14,3.14,0,0,0,637.73,750Z" transform="translate(-8.15 -216.21)"/><path class="cls-30" d="M546.14,729.1c1.17-1.16,2.94-6.46,2.63-6.81s-5.46,1.21-6.62,2.36A3.17,3.17,0,0,0,542,729,2.81,2.81,0,0,0,546.14,729.1Z" transform="translate(-8.15 -216.21)"/><path class="cls-30" d="M588.27,745c-1.59-.21-6.61,1.73-6.66,2.21s4.35,3.65,5.94,3.85a2.93,2.93,0,0,0,3.25-2.65A3,3,0,0,0,588.27,745Z" transform="translate(-8.15 -216.21)"/><path class="cls-35" d="M578,691.53c-6.12-4.1-26.31-4.09-26.71-2.51s15.3,25.71,21.41,29.81,12.44-.64,13.85-6.19S584.06,695.62,578,691.53Z" transform="translate(-8.15 -216.21)"/><path class="cls-30" d="M638.66,729c1.55-.45,5.49-4.24,5.37-4.71s-5.35-1.63-6.9-1.18a3.06,3.06,0,0,0-2,3.75A2.9,2.9,0,0,0,638.66,729Z" transform="translate(-8.15 -216.21)"/><path class="cls-30" d="M616.41,734.37c-1.28-1-6.55-2-6.82-1.61s2,5.45,3.29,6.47a2.82,2.82,0,0,0,4.08-.58A3.16,3.16,0,0,0,616.41,734.37Z" transform="translate(-8.15 -216.21)"/><polygon class="cls-30" points="752.08 644.33 805.87 644.33 796.98 623.45 743.18 623.45 752.08 644.33"/><path class="cls-30" d="M805.86,850.1c2.27,5.32,5.55,9.7,7.65,10.35a1.61,1.61,0,0,0,.51.09c2,0,1.71-4.68-.74-10.44s-6.11-10.44-8.16-10.44a1,1,0,0,0-.44.09C803.14,840.4,803.6,844.79,805.86,850.1Z" transform="translate(-8.15 -216.21)"/><path class="cls-30" d="M760.22,860.54c-.94,0-2.22-1-3.57-2.62-.27-.33-.54-.68-.81-1.06a29,29,0,0,1-2.07-3.28q-.28-.51-.57-1.05c-.4-.78-.78-1.59-1.13-2.43A.61.61,0,0,1,752,850c-.16-.36-.3-.71-.43-1.06-.28-.72-.53-1.43-.73-2.1q-.17-.54-.3-1.05a16.9,16.9,0,0,1-.52-2.7,8,8,0,0,1,0-1.06c0-1.47.45-2.35,1.34-2.35s2.08.88,3.34,2.35c.28.33.56.68.85,1.06a27.49,27.49,0,0,1,1.78,2.7c.21.34.4.69.6,1.05.37.67.72,1.38,1.06,2.1.16.35.32.7.47,1.06a.61.61,0,0,1,.05.12c.36.83.67,1.65.93,2.43.13.36.24.71.35,1.05a21,21,0,0,1,.72,3.28,10.42,10.42,0,0,1,.08,1.06C761.6,859.55,761.16,860.54,760.22,860.54Z" transform="translate(-8.15 -216.21)"/><path class="cls-36" d="M807.48,848.92V850H752c-.16-.36-.3-.71-.43-1.06Z" transform="translate(-8.15 -216.21)"/><polygon class="cls-36" points="742.41 629.56 749.15 629.56 798.18 629.56 798.18 630.61 749.75 630.61 742.71 630.61 742.41 629.56"/><path class="cls-36" d="M805.43,842v1.06H750a8,8,0,0,1,0-1.06Z" transform="translate(-8.15 -216.21)"/><path class="cls-36" d="M809.18,852.53v1.05H753.77q-.28-.51-.57-1.05Z" transform="translate(-8.15 -216.21)"/><path class="cls-36" d="M811.38,856.86v1.06H756.65c-.27-.33-.54-.68-.81-1.06Z" transform="translate(-8.15 -216.21)"/><path class="cls-31" d="M805.86,850.1c2.27,5.32,5.55,9.7,7.65,10.35,1.54-.65,1.08-5-1.18-10.35s-5.55-9.71-7.65-10.35C803.14,840.4,803.6,844.79,805.86,850.1Z" transform="translate(-8.15 -216.21)"/><path class="cls-37" d="M251.35,860.47a1.52,1.52,0,0,1-.55-.1,2.09,2.09,0,0,1-1.08-2.52l74.06-250.68a1.69,1.69,0,0,1,2.19-1.24,2.09,2.09,0,0,1,1.08,2.53L253,859.13A1.77,1.77,0,0,1,251.35,860.47Z" transform="translate(-8.15 -216.21)"/><path class="cls-37" d="M149,860.47a1.52,1.52,0,0,1-.55-.1,2.08,2.08,0,0,1-1.08-2.52L221.4,607.17a1.69,1.69,0,0,1,2.19-1.24,2.08,2.08,0,0,1,1.07,2.53L150.6,859.13A1.75,1.75,0,0,1,149,860.47Z" transform="translate(-8.15 -216.21)"/><path class="cls-37" d="M294.27,713.22H193.64a2,2,0,0,1,0-4H294.27a2,2,0,0,1,0,4Z" transform="translate(-8.15 -216.21)"/><path class="cls-37" d="M275.42,775.58H174.05a2,2,0,0,1,0-4H275.42a2,2,0,0,1,0,4Z" transform="translate(-8.15 -216.21)"/><path class="cls-37" d="M383.41,407.27c-8.26-3.38-18.8-3.68-21.38,1.85-2.27,4.83-29.91,77.77-34.84,90.8h-4.45L360,400.82s7.46-11.67,25.31-4S391.67,410.65,383.41,407.27Z" transform="translate(-8.15 -216.21)"/><path class="cls-25" d="M266.05,451.07c-4,8.78-28.59,35.85-27.25,39.06,1.21,2.92-.24,31.26-.85,42.14v0c-.15,2.6-.25,4.2-.25,4.2-.8,2.22-3,3.18-4.63,3.59a9.9,9.9,0,0,1-1.92.31s-.34-1.44-.89-3.9c-1-4.57-2.75-12.65-4.32-21.4-2.45-13.66-4.51-29-2.87-35.14,20.43-76.74,41.39-51.76,41.39-51.76S270,442.29,266.05,451.07Z" transform="translate(-8.15 -216.21)"/><path class="cls-27" d="M238,532.27v0c-.15,2.6-.25,4.2-.25,4.2-.8,2.22-3,3.18-4.63,3.59a34,34,0,0,1-2.81-3.59c-1-4.57-2.75-12.65-4.32-21.4,2.16-15.74,10.7-39.19,10.7-39.19Z" transform="translate(-8.15 -216.21)"/><path class="cls-33" d="M227.72,695.17s-1.43,13.87.89,14.07c.31,0,13.73,0,13.73,0H257.4a5.88,5.88,0,0,0-4.66-5.07c-4.26-.86-11.4-4.32-14-10.82C236,686.52,227.72,695.17,227.72,695.17Z" transform="translate(-8.15 -216.21)"/><path class="cls-16" d="M226.87,696.12a26.86,26.86,0,0,0,7.9,1.72,25.38,25.38,0,0,0,7.38-1.22s.84-9.31,5.43-29.83C250,656,253.43,642.21,258.33,625c13.54-47.49,17.65-75.27,18-77.9l0-.21-.05,0-41.62-21.07s5.15,65.45-1.41,90.57a120.33,120.33,0,0,0-2.39,12C226.78,655.72,226.87,696.12,226.87,696.12Z" transform="translate(-8.15 -216.21)"/><path class="cls-17" d="M230.92,628.44l16.66,38.35C250,656,253.43,642.21,258.33,625c13.54-47.49,17.65-75.27,18-77.9,0-.08,0-.16,0-.23l-41.62-21.07s5.15,65.45-1.41,90.57A120.33,120.33,0,0,0,230.92,628.44Z" transform="translate(-8.15 -216.21)"/><path class="cls-33" d="M260.22,695.17s.55,13.87,2.87,14.07c.31,0,11.93-.06,11.93-.06l14.81.06a5.74,5.74,0,0,0-4.58-5.06c-4.27-.86-11.41-4.32-14-10.82C268.54,686.52,260.22,695.17,260.22,695.17Z" transform="translate(-8.15 -216.21)"/><path class="cls-16" d="M283.82,527.37A785.79,785.79,0,0,1,278,621.86c-6.36,52.07-4.21,74.18-4.21,74.18a39.26,39.26,0,0,1-6.13,1.8,24.44,24.44,0,0,1-9.11-1.22s-9.11-52.09-6.5-78.16S239.57,529,239.57,529Z" transform="translate(-8.15 -216.21)"/><path class="cls-7" d="M253.51,426.45l7.29,7.39,11.93-.61c0-1.11-.25-5.72-.45-9.89l0-.73c-.18-3.56-.33-6.61-.33-6.61l-10.18-7.29-3.8-2.71c0,.07-.15,3.88-.18,4.44C257.33,420.31,253.51,426.45,253.51,426.45Z" transform="translate(-8.15 -216.21)"/><path class="cls-25" d="M286.24,529.21c-.16,22.38-1.46,74.75-2.41,75.82-10.11,11.25-54.6-3.09-57-15.49s9-159,26.24-164.84c3.58-1.21,19.62,10.53,19.62,10.53s6.13,4.47,8.1,16c.73,4.28,3.12,34.82,4.51,55.22.37,5.44.67,10.15.85,13.46C286.26,521.29,286.28,524.62,286.24,529.21Z" transform="translate(-8.15 -216.21)"/><path class="cls-38" d="M258.56,410.74c1.81,5.05,10.2,10.52,13.72,12.6l0-.73c-.18-3.56-.33-6.61-.33-6.61l-10.18-7.29C259.34,408.28,257.81,408.67,258.56,410.74Z" transform="translate(-8.15 -216.21)"/><path class="cls-7" d="M275.68,416.5s-18.42,2-19.31-11.27-3.86-21.91,7.86-23.73,14.35,3,15.58,7.37S280.45,415.64,275.68,416.5Z" transform="translate(-8.15 -216.21)"/><path class="cls-37" d="M277.75,388.62,272,398.86c-2.49-1.27-3.68-.71-4.11,3.75s-6.78,9.25-9.75,4.62c0,0-11.44-23.27-8.4-27.24,4.79-6.28,16.38-4.61,24.55-3.77C282.82,377.1,284,387.8,277.75,388.62Z" transform="translate(-8.15 -216.21)"/><path class="cls-27" d="M286.24,529.21c-30.87-35.81-32.6-71.62-32.6-71.62,16.47,10.71,26.26,10.89,31.33,30.35.37,5.44,1,28.67,1.22,32C286.26,521.29,286.28,524.62,286.24,529.21Z" transform="translate(-8.15 -216.21)"/><path class="cls-7" d="M335.67,459.73s1.58-2.21,2.16-3.11c.76-1.29,4.24-2.69,8.58-3.35,0,0,3.29.48,1.29,3.91-1.33,2.3-1.18.95-3.1,4.14s-5,5.11-7.4,4.48l-2.77.59-2.09-5Z" transform="translate(-8.15 -216.21)"/><path class="cls-25" d="M251.47,437.53s-22.33,23.73,44.47,57.57c10.2,5.17,41.89-27.63,41.89-27.63s-.42-6.05-3-8.73c0,0-31.76,13.47-35.21,13.9-3.07.38-21-32.14-26.9-39.41S251.47,437.53,251.47,437.53Z" transform="translate(-8.15 -216.21)"/><path class="cls-25" d="M279.88,377.64S276.56,411.2,257.66,412L249,398.18s19.26-8,17.39-26.21Z" transform="translate(-8.15 -216.21)"/><path class="cls-12" d="M253.71,361.48s8.14-2.63,13.86,2.69a15.09,15.09,0,0,1,2,19.38c-1.18,1.7,1.35,9.69-2.33,15.18s-10.67,5.94-14,4.91c-3.1-.95-8.6,5.13-14.17-.69-6.54-6.84-3.56-19.65-3.56-19.65S238.44,362.88,253.71,361.48Z" transform="translate(-8.15 -216.21)"/><path class="cls-27" d="M271.2,426.3c-.23-.11-13.19-8.07-14.7-7.49s-3.39,5.89-3.39,5.89L274,434.86S274.11,427.71,271.2,426.3Z" transform="translate(-8.15 -216.21)"/><polygon class="cls-30" points="107.44 644.42 183.24 644.42 170.71 615 94.9 615 107.44 644.42"/><path class="cls-30" d="M179.9,845.92c3.2,7.5,7.82,13.68,10.78,14.59a2.35,2.35,0,0,0,.71.12c2.88,0,2.42-6.59-1-14.71s-8.61-14.7-11.49-14.7a1.52,1.52,0,0,0-.62.12C176.06,832.26,176.71,838.44,179.9,845.92Z" transform="translate(-8.15 -216.21)"/><path class="cls-30" d="M115.59,860.63c-1.33,0-3.13-1.39-5-3.69-.37-.46-.76-1-1.15-1.49a44,44,0,0,1-2.91-4.62c-.27-.48-.54-1-.8-1.49-.56-1.09-1.09-2.24-1.6-3.42,0,0,0-.11-.07-.17-.21-.5-.41-1-.6-1.49-.39-1-.74-2-1-3-.15-.51-.3-1-.43-1.49a24.35,24.35,0,0,1-.72-3.81,13.21,13.21,0,0,1-.08-1.49c0-2.07.64-3.31,1.89-3.31s2.93,1.24,4.71,3.31c.39.46.8,1,1.19,1.49a40,40,0,0,1,2.52,3.81c.29.48.57,1,.84,1.49.52.94,1,1.93,1.49,3,.23.49.45,1,.67,1.49,0,.06,0,.12.07.17.5,1.18.94,2.33,1.32,3.42.17.51.33,1,.48,1.49a29.25,29.25,0,0,1,1,4.62,13.6,13.6,0,0,1,.11,1.49C117.53,859.24,116.91,860.63,115.59,860.63Z" transform="translate(-8.15 -216.21)"/><path class="cls-36" d="M182.18,844.26v1.49H104c-.21-.5-.41-1-.6-1.49Z" transform="translate(-8.15 -216.21)"/><polygon class="cls-36" points="93.82 623.61 103.32 623.61 172.41 623.61 172.41 625.1 104.17 625.1 94.24 625.1 93.82 623.61"/><path class="cls-36" d="M179.29,834.52V836h-78a13.21,13.21,0,0,1-.08-1.49Z" transform="translate(-8.15 -216.21)"/><path class="cls-36" d="M184.57,849.34v1.49H106.49c-.27-.48-.54-1-.8-1.49Z" transform="translate(-8.15 -216.21)"/><path class="cls-36" d="M187.67,855.45v1.49H110.55c-.37-.46-.76-1-1.15-1.49Z" transform="translate(-8.15 -216.21)"/><path class="cls-31" d="M179.9,845.92c3.2,7.5,7.82,13.68,10.78,14.59,2.17-.92,1.52-7.11-1.67-14.59s-7.81-13.67-10.77-14.58C176.06,832.26,176.71,838.44,179.9,845.92Z" transform="translate(-8.15 -216.21)"/><path class="cls-30" d="M287.13,858.64c-22,6.69-40-5.28-45.74-30.49l20.95-6.37c3.55,15.56,12.7,14.71,19.27,12.71,13.81-4.19,12.52-16.78,11.33-22l20.95-6.37C318.46,826.11,312,851.08,287.13,858.64Z" transform="translate(-8.15 -216.21)"/><path class="cls-36" d="M275.62,856.66c-11.14,0-18.94-6.73-23.75-12.88a57.27,57.27,0,0,1-8.79-16.31l1.29-.56a57.12,57.12,0,0,0,8.54,15.82c7.81,10,17.32,13.92,28.28,11.75,11.65-2.3,20.15-9.34,25.25-20.92a58.87,58.87,0,0,0,4.46-27.27l1.37-.17a60.83,60.83,0,0,1-4.61,28.18c-5.24,11.88-14.31,19.41-26.25,21.77A29.78,29.78,0,0,1,275.62,856.66Z" transform="translate(-8.15 -216.21)"/><path class="cls-36" d="M276.37,850.9c-6.7,0-13.15-3.37-19-10A58.33,58.33,0,0,1,248,826l1.24-.7a57.89,57.89,0,0,0,9.1,14.48c7.78,8.78,16.3,11.5,25.33,8.09,10-3.78,16.65-11.62,19.86-23.3a54.33,54.33,0,0,0,1.84-16.6l1.37-.15A55.71,55.71,0,0,1,304.87,825c-2.3,8.41-7.76,19.47-20.76,24.39A21.66,21.66,0,0,1,276.37,850.9Z" transform="translate(-8.15 -216.21)"/><path class="cls-36" d="M276.93,842.3c-14.42,0-21.57-17-21.65-17.18l1.24-.7a35.33,35.33,0,0,0,6.49,9.75c5.71,6,12.28,7.85,19.52,5.65,17.81-5.39,15.72-27.92,15.69-28.15l1.37-.19c0,.24,2.24,24.16-16.72,29.91A20.6,20.6,0,0,1,276.93,842.3Z" transform="translate(-8.15 -216.21)"/><path class="cls-31" d="M262.47,821.74c.2.88-4.36,3-10.18,4.79s-10.7,2.49-10.9,1.62,4.36-3,10.18-4.79S262.27,820.87,262.47,821.74Z" transform="translate(-8.15 -216.21)"/><path class="cls-31" d="M313.89,806.12c.2.88-4.36,3-10.18,4.79s-10.7,2.49-10.9,1.62,4.35-3,10.18-4.79S313.69,805.25,313.89,806.12Z" transform="translate(-8.15 -216.21)"/><path class="cls-30" d="M842.38,857.35c-21.35-9.16-30-30.86-22.16-55.3l20.31,8.7c-4.87,15.08,3,20.46,9.4,23.19,13.39,5.74,18.63-5.41,20.26-10.46l20.3,8.7C884.24,851.56,866.52,867.7,842.38,857.35Z" transform="translate(-8.15 -216.21)"/><path class="cls-36" d="M834,848.08c-9.1-7.39-12.12-18.07-13-26.29a63.43,63.43,0,0,1,1-19.17l1.34.4a62.44,62.44,0,0,0-.92,18.6c1.4,13.33,7.21,22.88,17.24,28.38,10.68,5.85,21.14,5.74,31.09-.33,8.27-5,14.34-13.3,17.28-19.33l1.2.77c-3,6.24-9.31,14.76-17.85,20-10.21,6.24-21.39,6.37-32.33.37A33.65,33.65,0,0,1,834,848.08Z" transform="translate(-8.15 -216.21)"/><path class="cls-36" d="M837.45,843.87c-5.47-4.44-9.07-11.48-10.54-20.76a66.48,66.48,0,0,1-.21-18.4l1.36.25a66.16,66.16,0,0,0,.22,17.88c2,12.35,7.57,20.23,16.66,23.43,10,3.53,19.42,1.57,27.87-5.85a46.54,46.54,0,0,0,9.81-12.36l1.19.79a47.11,47.11,0,0,1-10.13,12.81c-6.08,5.34-16.08,10.75-29.16,6.15A23.86,23.86,0,0,1,837.45,843.87Z" transform="translate(-8.15 -216.21)"/><path class="cls-36" d="M842.21,837.22c-11.8-9.58-9.15-28.21-9.12-28.43l1.36.26a40.35,40.35,0,0,0,.44,12.28c1.7,8.65,6.11,14.56,13.13,17.58,17.26,7.41,26.8-12.39,26.89-12.59l1.22.75c-.11.21-10.24,21.24-28.61,13.35A22.5,22.5,0,0,1,842.21,837.22Z" transform="translate(-8.15 -216.21)"/><path class="cls-31" d="M840.66,810.81c-.28.85-5.07-.43-10.72-2.85s-10-5.06-9.72-5.91,5.07.43,10.71,2.84S840.93,810,840.66,810.81Z" transform="translate(-8.15 -216.21)"/><path class="cls-31" d="M890.49,832.18c-.27.85-5.07-.42-10.71-2.84s-10-5.07-9.72-5.92,5.07.43,10.71,2.85S890.76,831.33,890.49,832.18Z" transform="translate(-8.15 -216.21)"/><rect class="cls-8" y="644.33" width="1063.71" height="3.25" rx="1.63"/><path class="cls-13" d="M694.56,622H599.75a4,4,0,0,1-3.69-4.24h0a4,4,0,0,1,3.69-4.25h94.81a4,4,0,0,1,3.68,4.25h0A4,4,0,0,1,694.56,622Z" transform="translate(-8.15 -216.21)"/></svg>