<svg id="Layer_1" data-name="Layer 1" xmlns="http://www.w3.org/2000/svg" xmlns:xlink="http://www.w3.org/1999/xlink" viewBox="0 0 1920 977.8"><defs><style>.cls-1{fill:url(#linear-gradient);}.cls-2{stroke:#000;stroke-miterlimit:10;fill:url(#linear-gradient-2);}.cls-3{fill:url(#linear-gradient-3);}</style><linearGradient id="linear-gradient" x1="835.69" y1="765.93" x2="1429" y2="-1248.8" gradientUnits="userSpaceOnUse"><stop offset="0" stop-color="#014871"/><stop offset="1" stop-color="#d7ede2"/></linearGradient><linearGradient id="linear-gradient-2" x1="-256.5" y1="763.5" x2="-256.5" y2="763.5" xlink:href="#linear-gradient"/><linearGradient id="linear-gradient-3" x1="0" y1="1008" x2="0" y2="1008" xlink:href="#linear-gradient"/></defs><title>recipe1</title><path class="cls-1" d="M-.5,840.5c107,80,258.7,164.13,414,130,153.76-33.79,164.79-148.33,330-188,187.61-45,272.35,77.26,470,37,153-31.17,144.39-146.54,266-151,137.65-5,213.65,120.75,340,86,46.52-12.79,79.52-41.76,100-64V.5H-.5Z" transform="translate(0.5 -0.5)"/><path class="cls-2" d="M-256.5,763.5" transform="translate(0.5 -0.5)"/><path class="cls-3" d="M0,1008" transform="translate(0.5 -0.5)"/></svg>