<svg id="Layer_1" data-name="Layer 1" xmlns="http://www.w3.org/2000/svg" xmlns:xlink="http://www.w3.org/1999/xlink" viewBox="0 0 1920.5 978.96"><defs><style>.cls-1,.cls-2,.cls-3{stroke:#000;stroke-miterlimit:10;}.cls-1,.cls-2{opacity:0.49;}.cls-1{fill:url(#linear-gradient);}.cls-2{fill:url(#linear-gradient-2);}.cls-3{opacity:0.48;fill:url(#linear-gradient-3);}.cls-4{fill:url(#linear-gradient-4);}</style><linearGradient id="linear-gradient" x1="385.52" y1="783.44" x2="650.57" y2="-116.6" gradientUnits="userSpaceOnUse"><stop offset="0" stop-color="#014871"/><stop offset="1" stop-color="#d7ede2"/></linearGradient><linearGradient id="linear-gradient-2" x1="1404.18" y1="798.71" x2="1665.19" y2="-87.6" xlink:href="#linear-gradient"/><linearGradient id="linear-gradient-3" x1="897.41" y1="881.88" x2="1055.21" y2="346.06" xlink:href="#linear-gradient"/><linearGradient id="linear-gradient-4" x1="857.94" y1="679.39" x2="1400.32" y2="-1162.41" xlink:href="#linear-gradient"/></defs><title>recipe</title><ellipse class="cls-1" cx="428.5" cy="637.5" rx="375.5" ry="306.5"/><ellipse class="cls-2" cx="1446.5" cy="655" rx="473.5" ry="289"/><ellipse class="cls-3" cx="923" cy="795" rx="326.5" ry="168.5" transform="translate(-176.41 270.91) rotate(-15.28)"/><path class="cls-4" d="M-.5,721.5c102,72.92,253.31,154.45,416,125,121.31-22,132.5-84.55,253-133,260.11-104.58,435,95.75,769,72,215.86-15.35,351.84-227.67,446-163,20,13.73,30.5,33.14,36,46V.5H-.5Z" transform="translate(0.5 -0.5)"/></svg>