<svg id="_лой_1" data-name="‘лой_1" xmlns="http://www.w3.org/2000/svg" viewBox="0 0 3000 2000"><defs><style>.cls-1{fill:#fff;}.cls-2{fill:#ebf3fa;}.cls-3{fill:#98baf4;}.cls-4{fill:#ed975d;}.cls-5{fill:#ffa412;}.cls-6,.cls-7{fill:#ffb93e;}.cls-7{opacity:0.5;}.cls-8{fill:#ffb27d;}.cls-9{fill:#233862;}.cls-10{fill:#202f54;}.cls-11{fill:#2b478b;}.cls-12{fill:#b0d0ff;}.cls-13{fill:#739af0;}.cls-14{fill:#afcdfb;}.cls-15{fill:#ed985f;}.cls-16{fill:#2c3a64;}.cls-17{fill:#f99746;}.cls-18{fill:#ed7d2b;}.cls-19{fill:#8cb8ed;}.cls-20{fill:#ffd6a1;}.cls-21{fill:#6385db;}.cls-22{fill:#4c79c9;}.cls-23{fill:#88b3ff;}.cls-24{fill:#182d4f;}.cls-25{fill:#1a2f51;}.cls-26{fill:#cfe5ff;}.cls-27{fill:#e2915a;}.cls-28{fill:#afd1f2;}.cls-29{fill:#e86234;}.cls-30{fill:#f77d48;}.cls-31{fill:#ffe6c2;}.cls-32{fill:#ea9678;}.cls-33{fill:#bdd8f4;}.cls-34{fill:#c65447;}.cls-35{fill:#8fc482;}.cls-36{fill:#a8d29f;}.cls-37{fill:#f2b499;}.cls-38{fill:#163560;}.cls-39{fill:#fca56b;}</style></defs><title>recipeCooking</title><rect class="cls-1" width="3000" height="2000"/><path class="cls-2" d="M2717.91,1673.09c-155.85,0-2426.13.47-2427.44-3l-.22-.44a2.05,2.05,0,0,1-.22-.63c-.87-1.72-349.8-483.69,192.65-819.23,37.37-23.11,61.16-44.83,75.93-65.75,69.14-97.89-59.5-177.92,79.56-298.35,194-168,405.66,17.85,621.35-58.31,38.11-13.45,76.35-35.08,114.63-68.29A419.16,419.16,0,0,1,1444.6,310c3.88-2.16,7.79-4.29,11.74-6.35a504.4,504.4,0,0,1,47-21.42q16.29-6.43,33.19-11.92h0q26.84-8.71,55-15a730.39,730.39,0,0,1,82-13.51q18.3-2,36.89-3.17c112.9-7.12,232.42,7.87,342,38.67,124.32,34.95,235.8,90.27,310.21,156.73C2390.88,459.21,2519,589.5,2418,768.57c-63.77,113.08,203.39,221.06,298.33,350.18C2957.71,1447,2720.1,1668.81,2717.91,1673.09Z"/><path class="cls-3" d="M2363.21,1245.43c-1.42-7.15,2.16-8.82,2.16-8.82S2437,1214,2443,1211.21s52.24-65,52.24-65,17.51-25.65,34.89-22.69c15.1,2.57,22.23,13.19,25.54,23.75a32.07,32.07,0,0,1-10.61,34.55c-23.08,18.55-69.34,55.18-80.7,60.14-25.29,11-96.77,13-96.77,13A22.92,22.92,0,0,1,2363.21,1245.43Z"/><path class="cls-4" d="M2361,1235.93c-3.6-1.91-11.73-6.08-12-4.89-.18.86.4,2.2,1.48,3.54-4.74-1.12-9.47-1.64-20.07,1.83a8.21,8.21,0,0,0-4.89,4.2c-.89,1.86-1,4.07,2,5.44,6,2.74,4.11.88,12.46,4.92s17.93,4.12,23.12-.12l7.4-2.22-.65-12.56S2365.46,1236.1,2361,1235.93Z"/><path class="cls-5" d="M2176.74,1664.88,1892,1551.69a59.86,59.86,0,0,1-33.51-77.73l182.79-459.84A59.86,59.86,0,0,1,2119,980.6l53.45,21.25c-1,14.74,6.17,29.76,20,35.27,14.59,5.8,34.88,5.07,43.11-10.18l165.13,65.64a30.13,30.13,0,0,0,2.68,16.41c5.16,10.74,19.23,15,30.77,11.68a59.75,59.75,0,0,1,3.11,50.87l-182.78,459.83A59.84,59.84,0,0,1,2176.74,1664.88Z"/><path class="cls-6" d="M2278.44,1441.16l-306.84-122a48,48,0,0,1-26.86-62.31l118.61-298.39,109.07,43.36c-1,14.74,6.17,29.76,20,35.27,14.59,5.8,34.88,5.07,43.11-10.18l33.67,13.39a44.1,44.1,0,0,0-1.32,16.88c1.92,17.87,13.6,35.94,31.54,43.07,21.11,8.39,44.84-5.7,54.78-26.17l46.46,18.47a30.13,30.13,0,0,0,2.68,16.41c5.16,10.74,19.23,15,30.77,11.68a25.77,25.77,0,0,0,4.14-1.57,24.18,24.18,0,0,0,9.31-7.88l11.78,4.69L2340.75,1414.3A48,48,0,0,1,2278.44,1441.16Z"/><path class="cls-5" d="M2236,1229.83c-17.93-7.13-29.62-25.2-31.54-43.07a42.21,42.21,0,0,1,23.17-43l.07,0a43.23,43.23,0,0,1,35.59-1.61c22.26,8.85,37.83,35.92,29,58.18S2258.26,1238.68,2236,1229.83Z"/><path class="cls-7" d="M2231.13,1220c-14.15-5.63-23.81-19.14-26.67-33.2a42.21,42.21,0,0,1,23.17-43l.07,0a37.42,37.42,0,0,1,27.07.26c19.27,7.66,32.75,31.12,25.09,50.39S2250.4,1227.62,2231.13,1220Z"/><path class="cls-5" d="M2355,1139.88c9.72-4.68,21.59-2.64,29.66,3.33a23.6,23.6,0,0,1,8.93,25.83l0,0a24.2,24.2,0,0,1-12.81,15.26c-12.07,5.81-29.11,2-34.91-10.11S2342.91,1145.69,2355,1139.88Z"/><path class="cls-7" d="M2360.89,1141.62c7.67-3.7,16.89-2.56,23.75,1.59a23.6,23.6,0,0,1,8.93,25.83l0,0a20.89,20.89,0,0,1-10.35,11c-10.45,5-25.21,1.7-30.24-8.75S2350.44,1146.64,2360.89,1141.62Z"/><path class="cls-5" d="M2263.82,1333.45c-6.11-11.83-4-26.53,3.07-36.69a29.14,29.14,0,0,1,31.53-11.91l0,0a29.79,29.79,0,0,1,19.26,15.27c7.58,14.67,3.43,35.81-11.25,43.39S2271.4,1348.12,2263.82,1333.45Z"/><path class="cls-7" d="M2265.75,1326.1c-4.82-9.33-3.73-20.73,1.14-29.34a29.14,29.14,0,0,1,31.53-11.91l0,0a25.85,25.85,0,0,1,14,12.38c6.56,12.71,3,31-9.74,37.58S2272.32,1338.81,2265.75,1326.1Z"/><path class="cls-5" d="M2112.52,1287.48c-12.54-11.42-16.55-29.9-12.6-45.18a37.06,37.06,0,0,1,32.37-28.19h.06a38,38,0,0,1,29.77,9.7c15.56,14.17,20,41.25,5.81,56.82S2128.08,1301.65,2112.52,1287.48Z"/><path class="cls-7" d="M2111.57,1277.85c-9.9-9-13.66-23.11-11.65-35.55a37.06,37.06,0,0,1,32.37-28.19h.06a32.89,32.89,0,0,1,22.18,8.6c13.48,12.26,17.3,35.73,5,49.2S2125,1290.12,2111.57,1277.85Z"/><path class="cls-5" d="M2053.46,1199.38c-10.16-1.72-18.28-9.86-21.27-19a22.51,22.51,0,0,1,7.3-25.05l0,0a23,23,0,0,1,18.4-4.81c12.61,2.13,23.76,14.53,21.63,27.15S2066.07,1201.51,2053.46,1199.38Z"/><path class="cls-7" d="M2049.82,1194.76c-8-1.35-14.57-7.33-17.63-14.35a22.51,22.51,0,0,1,7.3-25.05l0,0a20,20,0,0,1,14.16-2.89c10.92,1.85,20.58,12.6,18.73,23.51S2060.73,1196.61,2049.82,1194.76Z"/><path class="cls-5" d="M2221.74,1385.49c-8.31,3.45-18.08,1.22-24.54-4.11a19.7,19.7,0,0,1-6.25-21.89v0a20.17,20.17,0,0,1,11.35-12.12c10.31-4.28,24.31-.31,28.6,10S2232,1381.21,2221.74,1385.49Z"/><path class="cls-7" d="M2216.9,1383.78c-6.55,2.72-14.17,1.36-19.7-2.4a19.7,19.7,0,0,1-6.25-21.89v0a17.45,17.45,0,0,1,9.12-8.72c8.92-3.71,21.05-.27,24.76,8.65S2225.82,1380.07,2216.9,1383.78Z"/><path class="cls-5" d="M2067.69,1046.78c4.89-16.24,19.84-27.82,35.34-30.85a37.09,37.09,0,0,1,39.39,17.06l0,0a38,38,0,0,1,4.08,31c-6.07,20.16-28.61,35.81-48.76,29.74S2061.62,1066.92,2067.69,1046.78Z"/><path class="cls-7" d="M2076,1041.77c3.86-12.81,15-22.28,27.06-25.84a37.09,37.09,0,0,1,39.39,17.06l0,0a32.91,32.91,0,0,1,1.81,23.72c-5.26,17.45-24.79,31-42.23,25.75S2070.71,1059.22,2076,1041.77Z"/><path class="cls-8" d="M2550.14,1113.16s-18,21.32-40.86,12.4c0,0-4.92-11.91-5-20.68,0-1.08,0-2.13,0-3.13-.12-9.88-.45-15.43-.45-15.43h0c1-.44,35-14.37,35-13.22C2538.2,1099.84,2550.14,1113.16,2550.14,1113.16Z"/><path class="cls-4" d="M2535.37,1079.48c-3.27,6.07-14.51,17.94-31.12,22.27-.12-9.88-.45-15.43-.45-15.43h0C2504.76,1086.07,2536.34,1077.69,2535.37,1079.48Z"/><path class="cls-8" d="M2496.69,1085.29s38.17,9,43.39-14.88,13.67-38.77-10.48-45.51-30.9,1.33-34.58,8.87S2486.89,1082.35,2496.69,1085.29Z"/><path class="cls-9" d="M2538.78,1076.91c.52.34,3.58,5.78,19.14-25.21,2.44-4.87,9.26-18.31,3.56-27.61s-23.5-14.63-40.27-17.81-12.33,13.72-25.28,13a2.76,2.76,0,0,0-3.1,1.77c-2.8,6.49,1.88,15.18,8.93,15.68,6.15.44,10.37-1.34,14.13-.16,6,1.9,8.16,11.41,8.62,14.46s1.14,5.58,8.73,2.86,3.43,10.75,2.22,13.33C2535.46,1067.26,2534.43,1074.12,2538.78,1076.91Z"/><path class="cls-10" d="M2580,1672.35h23.6c5,0,10.45-4.95,11.83-14s11.55-14,13.75-21.46-9.08-17.88-9.08-17.88l-1.88-2.42-2-2.53-18.71,4.4s-.46,4.45-.75,10.12a127.65,127.65,0,0,0-.07,13c.55,9.91-2.78,20.57-11.57,22.5S2580,1672.35,2580,1672.35Z"/><path class="cls-10" d="M2476.2,1672.35h61.27a5.56,5.56,0,0,0,1.3-.37c4.09-2,2.81-17.72,2.32-22.55-.09-.9-.16-1.43-.16-1.43s-21.55-17.23-24.51-4c-.1.41-.2.81-.32,1.21h0c-3.74,12.34-20.46,18-30.12,19.51C2478.6,1665.9,2476.69,1670.2,2476.2,1672.35Z"/><path class="cls-11" d="M2488.55,1318.58s3.27,40.82,7.12,89.9c5.22,66.66,11.51,148.55,12.13,164.06,1.08,26.94,5.39,70,5.39,70s10.23,10.23,30.7,5.92c0,0,18.25-61.51,23.46-126.59l.24-3.22c4.85-66.25,12.39-205.76,12.39-205.76Z"/><path class="cls-9" d="M2488.55,1318.58s3.27,40.82,7.12,89.9l71.68,113.42.24-3.22c4.85-66.25,12.39-205.76,12.39-205.76Z"/><path class="cls-11" d="M2508.94,1309.87s33.12,136.58,58.41,212,26.35,112,26.35,112,28.66-5.6,31.77-11.18c0,0,9.82-129.22-9.67-166.15-11-20.87-9.16-69.23-9.16-91.26,0-40.81-12.73-81.34-12.73-81.34Z"/><path class="cls-12" d="M2622.31,1373.8c.4,2.5-122.42,25.76-138.89,8.08-.32-.34-2.05-51.33-3.46-91.06-.63-18.48-1.21-34.52-1.53-41.89-.08-1.85-.14-3.15-.19-3.81l-.18-2.57c-1-14.43-1.73-28.64-2-41.29a278.34,278.34,0,0,1,.66-28.47c.13-1.59.3-3.08.49-4.48,2.5-19,11.7-32.32,20.32-42.35l7.12-7.88a37.87,37.87,0,0,0,24.33-5.77c8.55-5.49,16.86-3.88,18.58-2.91,13.27,7.76,24.85,20,32,45.94C2583.51,1169.28,2621.92,1371,2622.31,1373.8Z"/><path class="cls-13" d="M2516.59,998.75s-4-19.6,9.85-32.06,32.43-9.78,42.85,1.67c3.22,3.54,21.57,0,32,11.07s8.62,28.74,5,36.82c-3.28,7.41,7.72,23.27-7.15,35.19-17.43,14-44,2.1-44,2.1S2536.88,998.92,2516.59,998.75Z"/><path class="cls-14" d="M2494.06,1019.64s57.25,5.05,54.15,49.43l23.18-33s-1.7-42.35-55.3-42.93Z"/><path class="cls-3" d="M2554,1189.09s-18.37,85-74.05,101.73c-.63-18.48-1.21-34.52-1.53-41.89Z"/><path class="cls-4" d="M2382.12,1277.05c-3.88-1.25-12.61-4-12.64-2.73,0,.87.78,2.09,2.08,3.22-4.86-.27-9.62,0-19.45,5.29a8.17,8.17,0,0,0-4.09,5c-.55,2-.31,4.19,2.87,5,6.37,1.66,4.21.15,13.12,2.68s18.38.94,22.76-4.14l6.9-3.47-2.82-12.26S2386.55,1276.45,2382.12,1277.05Z"/><path class="cls-12" d="M2386,1283.3c-2.64-6.79.6-9.07.6-9.07s66.64-34.73,72.06-38.48,40.16-73.09,40.16-73.09,12.78-28.3,30.42-28.41c15.32-.09,24.18,9.13,29.28,19a32.08,32.08,0,0,1-4.46,35.87c-19.51,22.27-58.71,66.38-69,73.24-23,15.27-93,29.55-93,29.55A23,23,0,0,1,2386,1283.3Z"/><path class="cls-3" d="M2541.66,1096s8.56,8.27,5.94,13.36c0,0-19.91,15.43-47.74,13.74a19.47,19.47,0,0,1,7.3-6.78C2511.69,1114.21,2536.54,1103.5,2541.66,1096Z"/><rect class="cls-14" x="1682.5" y="1135.18" width="9.52" height="309.4"/><rect class="cls-14" x="1884.21" y="1135.18" width="9.52" height="397.75"/><path class="cls-15" d="M1556.77,661.91c3.13,5.64,16.2-2.33,18.52-3.58,3.14-1.22,8.26-.36,8.26-.36s2.53-13.34-.75-13.13c-4.3.27-19-6.07-22.59-4.37S1553.29,655.86,1556.77,661.91Z"/><path class="cls-16" d="M1726.71,451.52c.46-1.6,65.61,17.88,66.18,20.53,5.23,24.45.1,29.91-8.32,25.33-5.4-2.94-20.57,19.67-20.57,19.67l-44.87-59.28Z"/><path class="cls-15" d="M1579.4,645l-2.17,11.15s.7.25,2,.59c4,1.1,13.51,3.89,24.51,6.5,12,3,25.82,5.82,36,6.39a36.9,36.9,0,0,0,9.58-.41c14-3,40.36-17.76,60.21-34.87a16.12,16.12,0,0,0,1.44-1.27c10.42-9.12,18.88-18.84,22.41-27.73a48.24,48.24,0,0,0,3.6-14.88,38.94,38.94,0,0,0-1.9-15.26,6.74,6.74,0,0,0-.7-1.92,32,32,0,0,0-5.81-10c-1.79-1.63-4.45-1.38-7.7.32l0,.09a43,43,0,0,0-9.2,6.8c-.13,0-.25.11-.28.19-.71.64-1.46,1.36-2.32,2.14a2.32,2.32,0,0,0-.57.49q-2.51,2.51-5.12,5.28c-19.08,19.66-43.12,51.15-56.41,58.37-2.45,1.33-7.87,2.49-14.61,3.52-9,1.35-20.5,2.43-30.43,3.21C1589.4,644.59,1579.4,645,1579.4,645Z"/><path class="cls-12" d="M1632.27,640.46c-.59,6.31-.31,18.18,7.41,29.17a36.9,36.9,0,0,0,9.58-.41c14-3,40.36-17.76,60.21-34.87a16.12,16.12,0,0,0,1.44-1.27c10.42-9.12,18.88-18.84,22.41-27.73a48.24,48.24,0,0,0,3.6-14.88,38.94,38.94,0,0,0-1.9-15.26,6.74,6.74,0,0,0-.7-1.92c-2.44-6.48,7.35-16.36,7.35-16.36-1.79-1.63-17.61,5-20.86,6.65l0,.09a43,43,0,0,0-9.2,6.8c-.13,0-.25.11-.28.19-.71.64-1.46,1.36-2.32,2.14a2.32,2.32,0,0,0-.57.49q-2.51,2.51-5.12,5.28c-19.08,19.66-43.12,51.15-56.41,58.37C1644.43,638.27,1639,639.43,1632.27,640.46Z"/><path class="cls-17" d="M1730.12,1099.63l12.28,4.57s53.31-73.93,59.87-139c1.17-11.62.78-22.87-1.75-33.26,0,0,.52-3,1.43-8.24.42-2.45.94-5.41,1.53-8.79,1.73-9.93,4.12-23.52,6.85-39,6.27-35.6,14.39-81.12,20.71-114.57l-3.31-1.07L1792,748.76l-7.4-23.49-26.64-7s-6,11.64-11.27,66.64c-1,7.22-1.88,15.17-2.55,23.8a471.34,471.34,0,0,0,2.54,96.35c1.22,9.55,2.76,19.43,4.68,29.57,1.4,7.43,1.61,17.56,1,29.19C1749.64,1017,1730.12,1099.63,1730.12,1099.63Z"/><path class="cls-18" d="M1744.09,808.7l57.86,115c.42-2.45.94-5.41,1.53-8.79,1.73-9.93,4.12-23.52,6.85-39,6.27-35.6,14.39-81.12,20.71-114.57l-3.31-1.07L1792,748.76l-7.4-23.49-26.64-7s-6,11.64-11.27,66.64C1745.65,792.12,1744.76,800.07,1744.09,808.7Z"/><path class="cls-17" d="M1769.54,733l1.34-11.49c22.44,6,82.4-16.65,82.4-16.65S1875,724,1872.16,769.79c-1.39,22.36-3.94,117.36-6.59,145.47-1,10.19-1.81,17.44-2.15,20.33v0a4.1,4.1,0,0,0,.65,2.49,130.88,130.88,0,0,1,9.81,20.63c26.09,69.51-4,155.12-4,155.12l-7.82-3.15s-17.13-95.27-31-137.36c-2.37-7.13-4.63-12.74-6.71-16.1-6-9.76-11.67-25.72-16.76-44.7-9.64-35.89-17.4-82.58-22.56-118.61C1784.26,794,1769.54,733,1769.54,733Z"/><path class="cls-8" d="M1726.68,593.71a70,70,0,0,0,25.84,6c38.58,2.11,47.33-31.7,48.93-54.15a32.42,32.42,0,0,0-13.24-1.67c-2.74.15-5.59.43-8,.72-4.72-2.47-13.19-14.44-18.09-34.47l-1.67.77-27.83,13.09s3,9.06,5.14,17.72c1.7,6.79,2.93,13.34,1.9,15.17-2.19.9-3.5,1.46-3.5,1.46v0A190.37,190.37,0,0,0,1726.68,593.71Z"/><path class="cls-12" d="M1717,619c.29.77.61,1.52,1,2.29,9.77,21.05,14.68,215.32,14.68,215.32-2.58,15.68,123.36,17.51,151.84-7.67,0,0-11.59-153-56.08-268.56l-12.78,10.9c-2.12-1.57-4.82-2.23-4.62-4.21.09-.93.21-1.86.35-2.79a79.52,79.52,0,0,1,5.59-18.67c-10.35-4.19-36.71-1-36.71-1l-19.75,14.91-20.8-2.63c-16.51,6.49-25.63,14.69-25.63,14.69C1724,578.08,1709.33,598.61,1717,619Z"/><path class="cls-15" d="M1732.67,524.05s3,9.05,5.14,17.73c16.27-4.54,21.21-21.64,22.7-30.81Z"/><path class="cls-8" d="M1726.26,526.37s40,.6,39.94-24.29,5.13-41.57-20.38-43-30.46,8.07-32.47,16.37S1715.86,525.58,1726.26,526.37Z"/><path class="cls-16" d="M1714.51,461.61c6.17-7.49,10.84-5.85,13.46-3.61,21.81-12,35.91,5.69,35.91,5.69a47.55,47.55,0,0,0,15.59,28.06s-7.27,4.51-24.06.22c-5.13-1.31-9.72-5-13.62-9.36a93.46,93.46,0,0,0,16.08,19.56c-20.07-9.23-28.17-37.11-29-40.06-2.44,2.2-7.24,7-8.7,11.63-2,6.34-2.85,19.38-6.66,18.95C1713.54,492.69,1705.27,472.85,1714.51,461.61Z"/><path class="cls-11" d="M1824.44,1120.24h61.82s1.48-9.42-1.75-16.57c-3.09-6.86-7.94-10-6.78-18.27-3.93,4-10.33,8.57-19.27,7.37-1.09,1.77-7.06,11.27-10.72,13.9C1843.7,1109.57,1825.68,1108.54,1824.44,1120.24Z"/><path class="cls-11" d="M1691.71,1120.24h61.82s2.31-9.86-1.75-16.57c-3.59-5.94-2.21-9.32.45-14.23a24,24,0,0,1-10.41,2,21.7,21.7,0,0,1-9.2-3.23c-2.66,3-14,15.94-17.61,18.5C1711,1109.57,1693,1108.54,1691.71,1120.24Z"/><path class="cls-9" d="M1782,611.57a3.23,3.23,0,1,0-2.4,4.29A3.5,3.5,0,0,0,1782,611.57Z"/><path class="cls-9" d="M1744.14,615.33a3.23,3.23,0,1,0-2.4,4.28A3.48,3.48,0,0,0,1744.14,615.33Z"/><path class="cls-9" d="M1786.7,655.87a3.23,3.23,0,1,0-2.4,4.28A3.5,3.5,0,0,0,1786.7,655.87Z"/><path class="cls-9" d="M1748.84,659.63a3.23,3.23,0,1,0-2.41,4.28A3.49,3.49,0,0,0,1748.84,659.63Z"/><path class="cls-3" d="M1827.94,597.79s-4.46,127.74-99.07,136.46l-1.45-27.3L1778.87,666Z"/><path class="cls-8" d="M1688.58,713.11l3.24,11.88s4.08-.72,10.56-1.92c1.93-.36,3-.6,3-.6,5.28-1.08,11.52-2.4,18.24-4h.13c9.36-2.28,19.81-4.92,29.17-7.8,2.16-.61,4.32-1.33,6.36-2.05,1.44-.48,2.76-1,4.08-1.44l-19.68-26.05c-1.45,1.08-3,2-4.57,3-8,5.16-17.17,10.45-25.45,15.13-5.16,3-10.09,5.64-14.17,7.92C1692.9,710.83,1688.58,713.11,1688.58,713.11Z"/><path class="cls-12" d="M1739.14,684.13c3.6,12.66,8.73,21,13.83,26.61,2.16-.67,4.29-1.36,6.33-2,7.7-2.69,14.4-5.57,19-8.46a10.37,10.37,0,0,0,1.3-.92c10.87-7.89,23.78-31.11,33.8-56,1.4-3.43,2.7-6.87,4-10.22a254.81,254.81,0,0,0,10.59-35.29,99.54,99.54,0,0,0,2.51-16.81,40.2,40.2,0,0,0,.09-4.74c-.18-26.94-13.56-30.65-13.56-30.65-.28-.09-.56-.19-.93-.28-2.32-.37-4.73,1.2-7.24,4.28-3.17,3.8-6.5,10-9.94,17.54-5.3,12-10.87,27.5-16.07,42.91-2.88,8.46-5.67,16.92-8.45,24.72-1.58,4.73-3.16,9.19-4.64,13.28-2.89,7.8-5.49,14.12-7.8,18.11-1.5,2.6-5.77,6.22-11.43,10.31C1747.13,678.89,1743.27,681.48,1739.14,684.13Z"/><path class="cls-13" d="M1753.4,436.4s1-19.64,17.35-28.4,33.75-1.71,41.1,11.87c2.27,4.2,20.9,5.13,28.35,18.39s1.46,29.9-4,36.87c-5,6.38,1.9,24.38-15.35,32.37-20.23,9.36-43.15-8.51-43.15-8.51S1773,441.42,1753.4,436.4Z"/><path class="cls-12" d="M1726.71,451.52s54.24,18.6,40.61,60.85L1797.66,486s8.49-41.42-43.28-54.83Z"/><path class="cls-19" d="M1783.84,544.29s-6-5.58-11.24-8.1c0,0-13.89,15.82-13.89,18.83s3.19,8.46,3.19,8.46S1772.58,561.49,1783.84,544.29Z"/><path class="cls-13" d="M1739,546.91s-6.13,5.77-3.51,10.85c0,0,20.58,16,48.35,14.35a19.5,19.5,0,0,0-7.29-6.77C1772,563.2,1744.11,554.35,1739,546.91Z"/><path class="cls-20" d="M1669.9,271.09l-147.61,294.3L1521,568l-2.15,4.3L1510.44,589l-18.94,37.75-36,71.87-7.64,15.24-7.74,15.45-24.86,49.56-22.56,45-21,41.79-8.6,17.14c-3.66.31-7.35.61-11,.9l8.57-17.08,46-91.66,23.52-46.89,7.75-15.48,14.64-29.18,30.35-60.51,21.56-43,9.85-19.65,4.37-8.69,142.81-284.74Z"/><path class="cls-20" d="M1682.2,284.5c-4,6-70.67,136.65-146.59,286.19q-7.66,15.15-15.48,30.51c-19.3,38-39,76.81-58.12,114.65l-7.8,15.38-1.76,3.49c-12.18,24-24.1,47.58-35.52,70.18-10.48,20.68-20.54,40.58-30,59.34q-4.47,8.78-8.72,17.22l-11.11,1c2.15-4.25,5.07-10,8.67-17.17,5.37-10.6,12.24-24.18,20.29-40.09q2.3-4.5,4.69-9.26l43-84.93.57-1.12q3.85-7.62,7.8-15.42h0c8.65-17.1,17.65-34.85,26.85-53,11.34-22.38,23-45.34,34.61-68.3,1.11-2.18,2.21-4.34,3.31-6.52q5.05-10,9.9-19.5c145.14-285.9,147.17-287.83,148.4-289l6.49,6.88C1682,284.78,1682.17,284.52,1682.2,284.5Z"/><path class="cls-20" d="M1538,444.21l-4.49,5.75L1335.87,702.61l-12.13,15.49L1201.09,874.88l-13,16.57-12.14.19,12.91-16.52,123.45-157.77,12.15-15.55,206.11-263.41,5.73,4.47Z"/><path class="cls-20" d="M1490.68,471.77,1269.5,698.68l-15.28,15.67L1097.35,875.29l-15.67,16.08-12.94-.27,15.59-16L1241.5,713.85l15.33-15.74L1483.9,465.16Z"/><path class="cls-20" d="M1742.71,636.31l-4.48,5.74L1540.54,894.71l-12.12,15.49L1405.76,1067l-13,16.58c-4,.06-8.09.13-12.14.18l12.91-16.51L1517,909.45l12.15-15.55,206.11-263.42L1741,635Z"/><path class="cls-20" d="M1675.63,703.21,1458.84,934.32l-15,15.95L1290.1,1114.2l-15.35,16.36c-4.33,0-8.64,0-12.94,0l15.28-16.3L1431.14,950l15-16,222.57-237.26Z"/><rect class="cls-20" x="1225.7" y="574.79" width="524.63" height="9.46" transform="translate(406.74 1754.62) rotate(-68.66)"/><path class="cls-20" d="M1429.2,883.71l-17.31,14.47c93.38-195.94,288.7-607.12,292.56-619.09l9.12,2.52C1710.48,293.19,1457.06,825.24,1429.2,883.71Z"/><polygon class="cls-20" points="1454.85 915.22 1431.62 943.97 1722.91 292.93 1731.55 296.8 1454.85 915.22"/><path class="cls-20" d="M1403,870.85l-8.89-3.23C1462,681,1591,324.6,1593.45,311.45l9.31,1.71C1599.63,330.2,1411.06,848.78,1403,870.85Z"/><polygon class="cls-20" points="1403.32 903.08 1389.89 909.37 1663.39 329.79 1671.94 333.82 1403.32 903.08"/><path class="cls-8" d="M1687.12,711.51a62.56,62.56,0,0,0-13.82-4.1c-5-.9-11.61-1.73-11.16,0s11.09,4.94,11.4,5.7S1687.12,711.51,1687.12,711.51Z"/><path class="cls-8" d="M1651,723.45c2.07,1.58,18.54,8,24.81,6,3.5-1.1,15.69-4.12,20.61-5.32l9-1.75-5.3-15.41a4.24,4.24,0,0,0-.64.18c-2,.7-5.9,2.61-11,3.37-6.25.94-14-3-18.11-.77-8.59,4.71-20.45-.06-23.18,2.45C1645.17,714.14,1645.92,719.52,1651,723.45Z"/><path class="cls-8" d="M1555,646.69c1.29-3,4-8.08,10.62-7.37,7.91.86,22.2,9.06-5.62,24.11C1551.77,667.91,1552.39,652.94,1555,646.69Z"/><path class="cls-21" d="M697.58,1101.35H558.32a27.49,27.49,0,0,1-27.41-27.42h0a27.48,27.48,0,0,1,27.41-27.41H697.58A27.49,27.49,0,0,1,725,1073.93h0A27.5,27.5,0,0,1,697.58,1101.35Z"/><path class="cls-13" d="M1671.16,1101.35H1531.9a27.5,27.5,0,0,1-27.42-27.42h0a27.49,27.49,0,0,1,27.42-27.41h139.26a27.49,27.49,0,0,1,27.41,27.41h0A27.5,27.5,0,0,1,1671.16,1101.35Z"/><path class="cls-21" d="M1579.23,872v682.3A115.18,115.18,0,0,1,1464,1669.47H783.5a115.18,115.18,0,0,1-115.19-115.18V872Z"/><path class="cls-13" d="M1579.23,872.5v682.3c0,63.61-51.36,115.18-114.72,115.18H942.24c-63.36,0-114.73-51.57-114.73-115.18V872.5Z"/><path class="cls-22" d="M1582.91,901.06H664.64a16.74,16.74,0,0,1-16.7-16.69h0a16.75,16.75,0,0,1,16.7-16.7h918.27a16.75,16.75,0,0,1,16.69,16.7h0A16.74,16.74,0,0,1,1582.91,901.06Z"/><path class="cls-23" d="M1531.8,1179.85V1000s5.53-59.92-37.89-64.65-59.18,20.5-51.3,64.65-6.3,288.6,14.2,307.52,61.5,18.92,69.39,0S1531.8,1179.85,1531.8,1179.85Z"/><path class="cls-20" d="M1358.62,1216.69c0-1.24-2.3-124.59-5.66-216.68-3.65-100.21-25.71-160.85-60.52-166.35-15-2.37-28.24,2.94-39.35,15.8-8.82,10.2-11.16,18.1-11.2,18.21h-15.55c6.65-18.61,30.23-53.42,68.22-47.43,57.28,9,69.68,116.21,72,179.27,3.36,92.22,5.64,215.69,5.66,216.93Z"/><path class="cls-24" d="M1187.09,1659.53c.1,5,.73,9.83,2.56,11.71H1263c-.94-2.65-3.58-6.65-11.11-7.87-8.56-1.38-20.51-11.06-28.3-19.29-2.77-2.93-6.24-.83-7.14-4.86-3.45-15.37-28.54,4.71-28.54,4.71A122.63,122.63,0,0,0,1187.09,1659.53Z"/><path class="cls-25" d="M1075.05,1659.53c.1,5,.74,9.83,2.57,11.71H1151c-.93-2.65-3.57-6.65-11.1-7.87-8.56-1.38-21.9-5.5-29.69-13.74a22,22,0,0,1-5.75-10.41c-3.45-15.37-28.55,4.71-28.55,4.71A124.78,124.78,0,0,0,1075.05,1659.53Z"/><path class="cls-9" d="M1216.44,1650.46c-8.2,2.62-19,2.33-29-1.43-6.43-2.43-45-96.58-47.31-142.08a118.37,118.37,0,0,0-1.85-13.56c-2.13-11.74-5.85-27.88-10.14-45.68-11.51-47.72-27.08-107.41-26.74-126.48.52-29.61,88.24-6.21,88.24-6.21s6,24.29,7.24,59.46c2.38,69.8,8.93,187.71,26.74,269.6C1224.38,1647.55,1219.84,1649.38,1216.44,1650.46Z"/><path class="cls-11" d="M1173.75,1334.21l-58.93,318.12s-25.33,7.48-42.93,0c0,0-10.25-172.67-9.11-215.89s-9.75-115.63,2.48-123.62S1173.75,1334.21,1173.75,1334.21Z"/><path class="cls-26" d="M1141.66,1108s40.32,6.88,49.52,21.07c13.16,20.29,45.11,87.9,45.65,121.85.74,45.72-49,61.1-55.13,43-5-15-17.43-108.81-26.42-137.92Z"/><path class="cls-26" d="M1209,1428.7s-18.66,15.13-56.29,18.54c-4.24,1.09-76.49,1.09-107.08-9.42-.63-.22,1.6-65,4.19-131.75,0-.11,0-.21,0-.32.27-6.78.53-13.61.79-20.37.12-2.91.23-5.81.35-8.7.79-19.93,1.58-39.2,2.29-56.12,1.41-33.2,2.54-57.26,2.87-59.17,1.12-6.5,2.16-12,3.31-16.83,3.33-14,7.47-21.68,16.51-28.27.88-.67,8.1-4.32,14.47-7.49l10-4.91h0s69.54,2,76.21,19.42S1209,1428.7,1209,1428.7Z"/><path class="cls-8" d="M1135.61,1112.53c-3.64.72-8.33,4.08-12.76,3.76-8.69-.63-17.74-6.48-25.41-11.53,5.23-12.49,7.37-22.35,8.13-28.74,0-.34.08-.66.11-1a29.26,29.26,0,0,0,.14-6.58h27.84s7.62,3.48,7.62,5.88q0,1.94,0,3.69c0,3.21.18,6,.35,8.4a76,76,0,0,0,1.43,11.5S1146.49,1110.4,1135.61,1112.53Z"/><path class="cls-27" d="M1141.66,1086.43c-21.1,4.08-33.34-7.45-36.09-10.41-.39-.42-.59-.67-.59-.67l.7-.31c7.86-3.18,25.68-.65,35.63,3C1141.36,1081.24,1141.49,1084,1141.66,1086.43Z"/><path class="cls-8" d="M1098.68,1063.88c3.77,20.29,30,19.62,41.26,18.35,3.19-.36,5.19-.77,5.19-.77,3.59-1,5.59-6.61,6.52-14,1.85-14.66-.48-36.18-3-41.68-3.72-8.28-10.74-17.24-37.11-10.78S1093.85,1037.88,1098.68,1063.88Z"/><path class="cls-9" d="M1149.67,1014.45c-3.6-5-11.24-11.08-18.18-14.84-14.9-8.06-34,.26-34.06.29-21.54,9.47-8.44,56.65-1.86,54.46,5.13-1.71,1.74-4.21,4-6.22,2.71-2.42,6.5.52,7.72,2.79a3.3,3.3,0,0,0,4.72,1c6.7-4.24,2.35-12.71,8.75-17.89s19.4-.83,29-5C1162.33,1024.43,1152.39,1018.21,1149.67,1014.45Z"/><path class="cls-26" d="M1133.66,1068.46a11.12,11.12,0,0,0,9,2.17c3.31-.58,5.16-4.88,5.16-4.88S1141.49,1064.61,1133.66,1068.46Z"/><path class="cls-9" d="M1105,1159.44a3.62,3.62,0,1,1,3.62,3.61A3.61,3.61,0,0,1,1105,1159.44Z"/><path class="cls-9" d="M1147.84,1155.83a3.61,3.61,0,1,1,3.61,3.61A3.61,3.61,0,0,1,1147.84,1155.83Z"/><path class="cls-9" d="M1109.58,1202.45a3.62,3.62,0,1,1,3.62,3.61A3.62,3.62,0,0,1,1109.58,1202.45Z"/><path class="cls-9" d="M1152.44,1198.83a3.61,3.61,0,1,1,3.61,3.62A3.61,3.61,0,0,1,1152.44,1198.83Z"/><path class="cls-9" d="M1112.21,1244.46a3.62,3.62,0,1,1,3.62,3.62A3.62,3.62,0,0,1,1112.21,1244.46Z"/><path class="cls-9" d="M1155.06,1240.85a3.62,3.62,0,1,1,3.62,3.61A3.62,3.62,0,0,1,1155.06,1240.85Z"/><path class="cls-28" d="M1123.18,1303.18s-16.38,11.84-73.39,2.57c.27-6.78.53-13.61.79-20.37.12-2.91.23-5.81.35-8.7.79-19.93,1.58-39.2,2.29-56.12,9.06-14.69,16.63-25.34,16.63-25.34s-.72,40.34,16.26,52.86C1131.06,1281.19,1123.18,1303.18,1123.18,1303.18Z"/><path class="cls-28" d="M1129.43,996.09s3.66-19.19-9.69-31.24-31.37-9.47-41.44,1.61c-3.12,3.42-20.87,0-31,10.71s-8.33,27.8-4.87,35.61c3.18,7.17-7.46,22.51,6.92,34,16.86,13.52,42.59,2,42.59,2S1109.81,996.26,1129.43,996.09Z"/><path class="cls-26" d="M1151.06,1016.06s-55.37,4.88-52.38,47.82L1076.26,1032s1.65-41,53.5-41.52Z"/><path class="cls-28" d="M1187.06,1310.64s1-121.78,4.2-121.78,12.11,27.83,12.11,49.72C1203.37,1266.13,1192.6,1311.69,1187.06,1310.64Z"/><path class="cls-29" d="M2095.67,1670.43H1274.28a66.11,66.11,0,0,1-59-36.36l-48.32-95.86H2194.38l-44,96.92A60.14,60.14,0,0,1,2095.67,1670.43Z"/><ellipse class="cls-30" cx="1680.65" cy="1527.51" rx="743.01" ry="58.26"/><path class="cls-31" d="M2196.05,1525.26a6.55,6.55,0,0,1-.63.19c-16.82,4.77-37,9.25-60,13.4q-7.62,1.38-15.68,2.69c-18.41,3-38.43,5.86-59.86,8.46q-7.92,1-16.1,1.89-29.12,3.27-61.28,6h0q-11.89,1-24.17,1.93h0c-30.21,2.26-62.08,4.15-95.28,5.62-3.57.15-7.16.31-10.76.45-8.66.36-17.43.68-26.26,1l-2.48.08q-25.39.84-51.64,1.34-16.36.3-33,.49l-6.53.06q-17.58.15-35.44.15l-11.51,0-5.23,0c-104.34-.43-201.48-4.92-283.8-12.37l-3.53-.33h0q-18.91-1.74-36.75-3.69l-.54-.06h0l-3.06-.33q-14.28-1.59-27.79-3.31c-1.52-.18-3-.38-4.53-.58-110.74-14.36-180.13-35-180.13-57.86,0,0-1.44-9.35,7.47-19.53,27.44-31.46,107.8-94,261.62-100.71,116.39-5.1,201.51,19.7,253.06,41.85,38.59,16.61,58.38,31.74,58.38,31.74h0c.12-.08.77-.57,2-1.4,6-4.19,25.71-17.06,57.11-29.62,52.77-21.09,138.65-41.31,248.53-18,65.71,13.92,108.46,33.28,135.38,52.84C2213.38,1483.81,2209,1520.8,2196.05,1525.26Z"/><path class="cls-31" d="M1933.11,1407.7s87.61-9.49,152.55,21.29,83.16,57.19,79.78,76.33-98.11,13.54-98.11,13.54-60.17-11.81-64.47-13.54S1933.11,1407.7,1933.11,1407.7Z"/><path class="cls-32" d="M1880.7,1546.85c-1.76,9.48-10.89,15.41-17.74,18.59-3.57.15-7.16.31-10.76.45,5.69-1.61,23.27-10.62,25.08-20.42.72-3.85-.8-8.25-4.53-13.09-18-23.36-72.39.31-72.94.55l-1-5a159,159,0,0,1,30.5-9.31c22.15-4.18,37.55-.86,45.81,9.85C1879.93,1534.74,1881.8,1540.92,1880.7,1546.85Z"/><path class="cls-32" d="M2094.63,1515.23c-1.16,10.23-8.92,19.84-23.07,28.52a117.69,117.69,0,0,1-11.71,6.25q-7.92,1-16.1,1.89c14.35-6,45.67-22.38,47.38-37.52.78-6.9-2.94-14.21-11-21.73-19.82-18.39-68.66-31-124.46-32.09-65.73-1.31-130.27,12.74-181.83,39.56l-1.19-4.91c52-27,117-41.19,183.07-39.86,56.4,1.13,106,14,126.3,32.9C2091.41,1497,2095.66,1506.07,2094.63,1515.23Z"/><path class="cls-26" d="M1236.62,1246.75s6.4,52.81-36.79,77.85l-12.77-14,20.58-52.38Z"/><path class="cls-11" d="M956.49,1212.27l8.78-11c3.36-4.19,10.31-5.23,15.41-2.32l323.05,185.14a4.19,4.19,0,0,0,5.17-.72l2-2.47c6.15-7.66,16.16-12.81,27.43-14.11a49.59,49.59,0,0,1,32.13,7.25l122,78.84a2.69,2.69,0,0,1,.89,4l-2.15,2.68a4.19,4.19,0,0,1-5.24.69L1360,1385a28.3,28.3,0,0,0-18.63-4.2,27.3,27.3,0,0,0-7.09,1.77c-2.48,1-2.65,3.83-.3,5.16l144.72,82c1.69,1,2.17,2.8,1.09,4.15l-2.36,2.94a4.17,4.17,0,0,1-5.07.79l-149.58-79.77a4.17,4.17,0,0,0-5.06.78l-2.52,3.14c-1.09,1.36-.6,3.21,1.11,4.17l147.39,82.46c1.7,1,2.2,2.81,1.11,4.16l-2.22,2.77a4.18,4.18,0,0,1-5,.8l-148.19-77.79c-2.39-1.25-5.46,0-5.62,2.25a16,16,0,0,0,.81,6.23c1.76,5.37,6,9.82,12.08,12.53l132.8,66.56c1.82.92,2.4,2.85,1.27,4.26l-1.35,1.67a4.15,4.15,0,0,1-4.82.91l-135.82-61.17c-10.24-4.62-17.84-12.49-20.84-21.62a27.75,27.75,0,0,1,5-26.49h0c1.11-1.39.57-3.29-1.2-4.22L959.89,1224.87C954.67,1222.13,953.14,1216.45,956.49,1212.27Z"/><path class="cls-8" d="M1092.32,1289.33s8.34-1.39,12.28.85,13.81,3.6,13.37,5.88-12.75,3.25-16,2.13S1092.32,1289.33,1092.32,1289.33Z"/><path class="cls-8" d="M1090.58,1290.46a7,7,0,0,0-.89,11c5.41,4.91,12.41,11.19,14.13,12.43,2.9,2.1,18.35,3.83,22.37-1.61,0,0-13-5.59-14.81-14.26-2-9.23-19.06-8.68-19.06-8.68Z"/><path class="cls-26" d="M1090,1307.05s-75.51-17.73-82.78-66.2c-6.41-42.74,31-106.92,40.88-117.69,11.49-12.57,32.45-17,44-18.5l1.4-.18c4.07-.48,6.68-.58,6.83-.59h0l-2.42,7.87c-.59,1.92-1.28,4.14-2,6.62-7.11,23.29-29.34,79.92-36.5,111.09-4.56,19.84,38.54,59.38,39.64,59.46C1099.11,1288.93,1090,1307.05,1090,1307.05Z"/><path class="cls-28" d="M1092.47,1104.68s4.7-7.63,9.47-11.8c0,0,19.22,12.58,20.1,15.75s-.88,9.82-.88,9.82S1109.34,1119.48,1092.47,1104.68Z"/><path class="cls-8" d="M1181.07,1312.28s1.63,19.61,6.21,21.57,13.19-4.6,14.11-8.67-10.51-16.19-15.09-16.51S1181.07,1312.28,1181.07,1312.28Z"/><path class="cls-33" d="M1142.9,1097.36s7.18,5.68,5.48,11.68c0,0-17.92,20.78-48,25a21.21,21.21,0,0,1,6.33-8.81C1111.09,1121.94,1139.05,1106.43,1142.9,1097.36Z"/><path class="cls-31" d="M1771.82,1568.29q-16.36.3-33,.49l-6.53.06q-17.58.15-35.44.15l-11.51,0-5.23,0c-104.34-.43-201.48-4.92-283.8-12.37l-3.53-.33h0q-18.91-1.74-36.75-3.69l0,.09-.51-.15h0l-2.91-.82c-10.72-3.13-19.14-6.42-25-9.85a35.78,35.78,0,0,1-3.8-2.52c-3.79-2.88-5.76-5.84-5.76-8.87,0,0-1-6.11,5.2-12.75,9.82-10.6,29.4-26.59,60.72-40.19,29.4-12.78,69.16-23.46,120.88-25.59,11.59-.48,22.74-.56,33.44-.3h.07c63.8,1.58,111.52,15.22,142.16,27.62C1707.25,1490.09,1721,1500,1721,1500S1795.49,1545.06,1771.82,1568.29Z"/><path class="cls-32" d="M1685.32,1569l-5.23,0a402,402,0,0,0-48-46c-35.71-28.77-91.14-61.58-152.32-54.4-33.65,3.94-79.63,16.37-107.59,53.28a104.38,104.38,0,0,0-16.16,30.78l0,.09-.51-.15h0l-3.06-.33.15-.49a108.64,108.64,0,0,1,17-32.83c15.82-21,47.72-47.59,109.9-54.86s118.29,26,154.47,55.11A407.94,407.94,0,0,1,1685.32,1569Z"/><path class="cls-32" d="M1738.8,1568.78l-6.53.06a487.42,487.42,0,0,0-60.27-52.13c-45-32.71-114.88-70-192-61.87-42.41,4.48-100.37,18.63-135.6,60.59a117.2,117.2,0,0,0-16.85,26.4c-1.15,2.5-2.13,4.86-3,7-1.52-.18-3-.38-4.53-.58,1-2.73,2.19-5.74,3.68-9a123.73,123.73,0,0,1,17.35-27.2c9.28-11.12,22.94-23.61,42.81-34.61,22.81-12.66,53.81-23.35,95.72-27.78a218.83,218.83,0,0,1,58.6,1.89h.07c54.41,9,102.16,36.14,136,60.76A493.41,493.41,0,0,1,1738.8,1568.78Z"/><path class="cls-32" d="M1572,1539.58c-5.81,9.91-25,15.27-43.62,17.34-3.12.35-6.22.59-9.25.77-21.21,1.16-50.06-1.37-67.44-12l1.27-4.07c14.06,8.57,39.27,13,65.81,11.53,25.63-1.41,45.44-7.89,50.48-16.5,2.89-4.94,2.71-11.58-.5-18.22-9.84-20.28-43.33-35.24-96-22.9-22.48,5.26-52.55,16.63-68.2,40.88a57.76,57.76,0,0,0-8.29,20.14l-3.53-.33a61.44,61.44,0,0,1,8.92-22.48c13-20.43,36.64-34.77,70.3-42.66,58-13.58,89.91,5,99.63,25.1C1575.6,1524.45,1575.77,1533.19,1572,1539.58Z"/><path class="cls-32" d="M2044.77,1518.32c-2.54,19.8-40.26,33.31-62.3,39.56h0q-11.89,1-24.17,1.93c19.9-4.36,80.52-23.11,83-42.45.63-4.91-2.42-10.21-9.07-15.78-42-35.16-248.14,8.59-250.22,9l-.51-5.16c.52-.11,52.81-11.27,109.68-17.88,76.62-8.91,124.67-5.73,142.81,9.48C2042.07,1503.84,2045.7,1511,2044.77,1518.32Z"/><path class="cls-32" d="M1828.19,1566.79l-2.25.08-2.48.08c-8.92-12.72-64.35-90.65-103.8-120.87l.81-2.31h0l.81-2.29,1.15.89C1765.68,1476.2,1827.59,1565.91,1828.19,1566.79Z"/><path class="cls-32" d="M2163.56,1500.19c-2.32,18.21-19.3,32.41-28.17,38.66q-7.62,1.38-15.68,2.69c6.9-4,37.94-23.17,40.36-42.31.88-7-1.22-14-6.27-20.85-22.46-30.27-131.43-101.44-265.54-50.49-92.8,35.25-125.88,58-126.21,58.22l-1.52-4.7c.33-.23,33.61-23.15,126.84-58.56,71.91-27.33,134.34-18.3,174.06-5.91,46.76,14.59,81.29,39.44,94.77,57.61C2162.21,1482.64,2164.68,1491.26,2163.56,1500.19Z"/><path class="cls-34" d="M1447.08,1366.62s-23.28,12.12-.63,39.19,88.52.8,116.85,15.7,5.36,36.93,37.85,56.19,63.79-45.44,95.67-27,140.62,44.32,142.44,7.22,53.6-51.3,73.18-62.42-51.21-28.83-86.5-33.39c-24.45-3.16-142.07-66-212.79-47.65S1479.92,1348.12,1447.08,1366.62Z"/><path class="cls-35" d="M1658.36,1321.43c2-15.88-2-62.89-5.13-65.76s-31.37,25.15-35.36,39.83,1.55,34.74,12.37,44.8S1656.34,1337.53,1658.36,1321.43Z"/><path class="cls-31" d="M1763.66,1423.73c-1.91-3.33-13.1-10.52-14.14-10s-1,13,.9,16.29a7.83,7.83,0,0,0,10.06,2.89A6.51,6.51,0,0,0,1763.66,1423.73Z"/><path class="cls-31" d="M1528.89,1377.23c3-2.58,7.53-14.35,6.73-15.13s-14,2.68-17,5.25a6.37,6.37,0,0,0-.3,9.6A8,8,0,0,0,1528.89,1377.23Z"/><path class="cls-31" d="M1636.89,1412.68c-4.08-.46-16.94,3.84-17.09,4.9s11.15,8.11,15.24,8.58,7.82-2.17,8.33-5.89S1641,1413.15,1636.89,1412.68Z"/><path class="cls-36" d="M1610.42,1293.69c-15.68-9.11-67.43-9.08-68.46-5.56s39.21,57.16,54.89,66.27,31.88-1.41,35.5-13.75S1626.1,1302.8,1610.42,1293.69Z"/><path class="cls-31" d="M1766.06,1377.08c4-1,14.06-9.43,13.75-10.46s-13.71-3.63-17.68-2.65-6.32,4.73-5.23,8.34S1762.08,1378.07,1766.06,1377.08Z"/><path class="cls-31" d="M1709,1389c-3.28-2.28-16.77-4.43-17.49-3.58s5.18,12.11,8.45,14.38a8,8,0,0,0,10.46-1.29A6.39,6.39,0,0,0,1709,1389Z"/><polygon class="cls-31" points="2077.66 1669.47 2215.56 1669.47 2192.76 1623.06 2054.86 1623.06 2077.66 1669.47"/><path class="cls-31" d="M2194.65,1646.26c5.82,11.83,14.23,21.58,19.61,23a4.75,4.75,0,0,0,1.3.19c5.24,0,4.4-10.39-1.9-23.21s-15.66-23.2-20.9-23.2a3.12,3.12,0,0,0-1.13.19C2187.67,1624.7,2188.85,1634.46,2194.65,1646.26Z"/><path class="cls-31" d="M2077.66,1669.47c-2.41,0-5.69-2.2-9.15-5.82-.69-.72-1.4-1.51-2.09-2.35a67.73,67.73,0,0,1-5.31-7.29c-.49-.76-1-1.55-1.44-2.35-1-1.73-2-3.53-2.91-5.39-.05-.09-.09-.19-.13-.27-.39-.8-.76-1.58-1.1-2.36-.71-1.6-1.34-3.17-1.87-4.66-.28-.8-.54-1.59-.78-2.35a34,34,0,0,1-1.31-6,16.57,16.57,0,0,1-.15-2.35c0-3.27,1.17-5.22,3.44-5.22s5.33,2,8.57,5.22c.71.72,1.45,1.5,2.17,2.35a66.22,66.22,0,0,1,4.57,6c.53.76,1,1.55,1.54,2.35.93,1.49,1.84,3.06,2.71,4.66.41.78.82,1.56,1.21,2.36,0,.08.09.18.14.27.91,1.85,1.7,3.66,2.38,5.39.32.8.61,1.59.88,2.35a40,40,0,0,1,1.85,7.29,18.59,18.59,0,0,1,.21,2.35C2081.2,1667.27,2080.07,1669.47,2077.66,1669.47Z"/><path class="cls-37" d="M2198.8,1643.64V1646H2056.63c-.39-.8-.76-1.58-1.1-2.36Z"/><polygon class="cls-37" points="2052.88 1636.63 2070.18 1636.63 2195.86 1636.63 2195.86 1638.98 2071.71 1638.98 2053.66 1638.98 2052.88 1636.63"/><path class="cls-37" d="M2193.55,1628.28v2.35h-142a16.57,16.57,0,0,1-.15-2.35Z"/><path class="cls-37" d="M2203.15,1651.66V1654h-142c-.49-.76-1-1.55-1.44-2.35Z"/><path class="cls-37" d="M2208.8,1661.3v2.35H2068.51c-.69-.72-1.4-1.51-2.09-2.35Z"/><path class="cls-32" d="M2194.65,1646.26c5.82,11.83,14.23,21.58,19.61,23,3.95-1.45,2.77-11.21-3-23s-14.21-21.57-19.6-23C2187.67,1624.7,2188.85,1634.46,2194.65,1646.26Z"/><path class="cls-38" d="M773.24,1669.33a4.5,4.5,0,0,1-1.43-.23,4.42,4.42,0,0,1-2.75-5.61L958.9,1106.14a4.42,4.42,0,1,1,8.37,2.85L777.42,1666.34A4.4,4.4,0,0,1,773.24,1669.33Z"/><path class="cls-38" d="M510.79,1669.33a4.41,4.41,0,0,1-4.18-5.84l189.84-557.35a4.42,4.42,0,0,1,8.37,2.85L515,1666.34A4.43,4.43,0,0,1,510.79,1669.33Z"/><path class="cls-38" d="M883.24,1341.92h-258a4.42,4.42,0,0,1,0-8.84h258a4.42,4.42,0,0,1,0,8.84Z"/><path class="cls-38" d="M834.94,1480.58H575.09a4.42,4.42,0,0,1,0-8.84H834.94a4.42,4.42,0,1,1,0,8.84Z"/><path class="cls-38" d="M1111.75,661.69c-21.17-7.51-48.19-8.18-54.82,4.1-5.81,10.75-76.66,172.92-89.29,201.88H956.22l95.44-220.32s19.12-26,64.87-8.88S1132.92,669.2,1111.75,661.69Z"/><path class="cls-26" d="M810.91,759.06c-10.24,19.53-73.28,79.71-69.87,86.85,3.11,6.48-.61,69.49-2.17,93.69v0c-.38,5.79-.63,9.33-.63,9.33-2.06,4.93-7.69,7.07-11.87,8a30.34,30.34,0,0,1-4.93.7s-.87-3.22-2.27-8.68c-2.61-10.16-7-28.13-11.07-47.59-6.29-30.36-11.58-64.37-7.35-78.12,52.36-170.63,106.08-115.09,106.08-115.09S821.14,739.53,810.91,759.06Z"/><path class="cls-28" d="M738.87,939.6v0c-.38,5.79-.63,9.33-.63,9.33-2.06,4.93-7.69,7.07-11.87,8a77.44,77.44,0,0,1-7.2-8c-2.61-10.16-7-28.13-11.07-47.59,5.54-35,27.41-87.12,27.41-87.12Z"/><path class="cls-34" d="M712.64,1301.79s-3.64,30.85,2.29,31.29c.79.06,35.2,0,35.2,0h38.6s-1-9.37-11.93-11.27-29.24-9.59-35.86-24C734,1282.57,712.64,1301.79,712.64,1301.79Z"/><path class="cls-17" d="M710.49,1303.92s11.37,3.8,20.25,3.8a74.27,74.27,0,0,0,18.9-2.7s2.14-20.7,13.93-66.32c6.17-23.91,15-54.66,27.55-92.86,34.69-105.59,45.25-167.35,46.21-173.2,0-.31.07-.47.07-.47l-.11,0L730.61,925.28s13.18,145.52-3.64,201.38a236.45,236.45,0,0,0-6.1,26.76C710.24,1214.09,710.49,1303.92,710.49,1303.92Z"/><path class="cls-18" d="M720.87,1153.42l42.7,85.28c6.17-23.91,15-54.66,27.55-92.86,34.69-105.59,45.25-167.35,46.21-173.2,0-.18,0-.34,0-.52L730.61,925.28s13.18,145.52-3.64,201.38A236.45,236.45,0,0,0,720.87,1153.42Z"/><path class="cls-34" d="M796,1301.79s1.42,30.85,7.35,31.29c.79.06,30.58-.12,30.58-.12l38,.12s-.79-9.36-11.72-11.26-29.24-9.59-35.87-24C817.29,1282.57,796,1301.79,796,1301.79Z"/><path class="cls-17" d="M856.45,928.71s1.39,94.3-14.93,210.08-10.78,164.93-10.78,164.93-11.21,3.63-15.74,4c-11.52.94-23.34-2.7-23.34-2.7S768.31,1189.2,775,1131.24s-32-198.85-32-198.85Z"/><path class="cls-8" d="M778.75,704.32l18.71,16.43L828,719.4c-.08-2.46-.64-12.71-1.15-22,0-.55-.07-1.09-.1-1.63-.45-7.9-.84-14.69-.84-14.69l-26.09-16.2-9.73-6c0,.16-.4,8.64-.47,9.87C788.55,690.68,778.75,704.32,778.75,704.32Z"/><path class="cls-26" d="M862.67,932.79c-.43,49.77-3.75,166.21-6.19,168.58-25.92,25-140-6.86-146-34.43s23-353.49,67.26-366.5c9.18-2.7,50.3,23.4,50.3,23.4s15.71,9.93,20.77,35.61c1.87,9.52,8,77.4,11.55,122.77.94,12.09,1.71,22.58,2.17,29.93C862.71,915.19,862.75,922.6,862.67,932.79Z"/><path class="cls-39" d="M791.7,669.4c4.65,11.21,26.15,23.38,35.19,28,0-.55-.07-1.09-.1-1.63-.45-7.9-.84-14.69-.84-14.69l-26.09-16.2C793.72,663.94,789.78,664.78,791.7,669.4Z"/><path class="cls-8" d="M835.6,682.2s-47.22,4.39-49.5-25.06-9.91-48.71,20.14-52.76,36.78,6.74,39.94,16.38S847.82,680.3,835.6,682.2Z"/><path class="cls-38" d="M840.9,620.21,826.18,643c-6.37-2.82-9.43-1.57-10.52,8.36s-17.38,20.55-25,10.25c0,0-29.31-51.72-21.53-60.55,12.3-14,42-10.27,62.94-8.39C853.9,594.6,856.86,618.38,840.9,620.21Z"/><path class="cls-28" d="M862.67,932.79c-79.13-79.62-83.57-159.24-83.57-159.24,42.21,23.82,67.31,24.22,80.32,67.49.94,12.09,2.65,63.76,3.11,71.11C862.71,915.19,862.75,922.6,862.67,932.79Z"/><path class="cls-8" d="M989.37,778.31s4-4.9,5.54-6.9c2-2.88,10.87-6,22-7.44,0,0,8.44,1.06,3.32,8.69-3.41,5.1-3,2.09-8,9.21s-12.74,11.35-19,10l-7.1,1.3L980.83,782Z"/><path class="cls-26" d="M773.54,729s-57.23,52.77,114,128c26.13,11.48,107.37-61.43,107.37-61.43s-1.07-13.47-7.67-19.43c0,0-81.4,29.95-90.27,30.91-7.86.86-53.92-71.46-68.93-87.62S773.54,729,773.54,729Z"/><path class="cls-26" d="M846.37,595.81s-8.52,74.61-57,76.33l-22.12-30.67s49.35-17.71,44.58-58.28Z"/><path class="cls-13" d="M779.27,559.86s20.88-5.83,35.53,6,15,30.85,5.18,43.09c-3,3.78,3.48,21.56-6,33.76s-27.35,13.2-36,10.9c-7.93-2.1-22,11.43-36.32-1.54-16.75-15.18-9.13-43.67-9.13-43.67S740.13,563,779.27,559.86Z"/><path class="cls-28" d="M824.11,704c-.58-.25-33.8-17.94-37.67-16.66s-8.7,13.11-8.7,13.11L831.16,723S831.56,707.12,824.11,704Z"/><polygon class="cls-31" points="425.21 1669.68 619.53 1669.68 587.4 1604.27 393.08 1604.27 425.21 1669.68"/><path class="cls-31" d="M590.07,1637c8.2,16.67,20,30.42,27.64,32.44a6.75,6.75,0,0,0,1.82.27c7.39,0,6.2-14.64-2.67-32.71s-22.07-32.69-29.46-32.69a4.42,4.42,0,0,0-1.59.27C580.24,1606.6,581.9,1620.34,590.07,1637Z"/><path class="cls-31" d="M425.21,1669.68c-3.4,0-8-3.1-12.9-8.2-1-1-2-2.13-2.94-3.32a97,97,0,0,1-7.48-10.26c-.69-1.08-1.37-2.19-2-3.32-1.44-2.44-2.82-5-4.11-7.6l-.18-.38c-.55-1.12-1.06-2.22-1.54-3.31-1-2.27-1.9-4.47-2.64-6.58-.4-1.13-.77-2.23-1.09-3.3a47.69,47.69,0,0,1-1.86-8.46,24.85,24.85,0,0,1-.21-3.32c.06-4.6,1.65-7.35,4.85-7.35s7.51,2.75,12.07,7.35c1,1,2,2.13,3.06,3.32a88.65,88.65,0,0,1,6.45,8.46c.74,1.07,1.45,2.17,2.17,3.3,1.31,2.11,2.59,4.31,3.81,6.58.58,1.09,1.15,2.19,1.71,3.31.07.12.13.26.19.38,1.28,2.61,2.41,5.16,3.37,7.6.44,1.13.85,2.24,1.23,3.32a56.62,56.62,0,0,1,2.61,10.26,25.44,25.44,0,0,1,.29,3.32C430.2,1666.58,428.61,1669.68,425.21,1669.68Z"/><path class="cls-37" d="M595.92,1633.29v3.31H395.57c-.55-1.12-1.06-2.22-1.54-3.31Z"/><polygon class="cls-37" points="390.3 1623.41 414.66 1623.41 591.77 1623.41 591.77 1626.71 416.82 1626.71 391.39 1626.71 390.3 1623.41"/><path class="cls-37" d="M588.52,1611.63V1615H388.44a24.85,24.85,0,0,1-.21-3.32Z"/><path class="cls-37" d="M602,1644.58v3.32H401.89c-.69-1.08-1.37-2.19-2-3.32Z"/><path class="cls-37" d="M610,1658.16v3.32H412.31c-1-1-2-2.13-2.94-3.32Z"/><path class="cls-32" d="M590.07,1637c8.2,16.67,20,30.42,27.64,32.44,5.56-2.05,3.9-15.8-4.27-32.44s-20-30.4-27.63-32.42C580.24,1606.6,581.9,1620.34,590.07,1637Z"/><path class="cls-31" d="M864.93,1665.26c-56.44,14.87-102.46-11.74-117.23-67.8l53.69-14.15c9.11,34.59,32.56,32.69,49.39,28.26,35.41-9.33,32.12-37.33,29.06-48.93l53.69-14.15C945.25,1592.94,928.77,1648.44,864.93,1665.26Z"/><path class="cls-37" d="M835.44,1660.84c-28.55,0-48.56-14.95-60.88-28.62A122.44,122.44,0,0,1,752,1596l3.31-1.24a121,121,0,0,0,21.89,35.17c20,22.16,44.4,30.95,72.48,26.13,29.87-5.13,51.65-20.78,64.72-46.51,10.86-21.37,13-45.33,11.45-60.63l3.5-.38c1.64,15.82-.61,40.58-11.82,62.65-13.41,26.42-36.68,43.16-67.27,48.41A87.55,87.55,0,0,1,835.44,1660.84Z"/><path class="cls-37" d="M837.35,1648c-17.15,0-33.7-7.48-48.66-22.17a128.09,128.09,0,0,1-24-33.14l3.18-1.55a126.72,126.72,0,0,0,23.35,32.18c19.93,19.53,41.77,25.58,64.91,18,25.56-8.4,42.69-25.83,50.92-51.8a105.72,105.72,0,0,0,4.71-36.92l3.51-.33a107.34,107.34,0,0,1-4.83,38.23c-5.89,18.7-19.91,43.29-53.23,54.23A63.4,63.4,0,0,1,837.35,1648Z"/><path class="cls-37" d="M838.81,1628.93c-37,0-55.31-37.77-55.51-38.21l3.17-1.55a78.46,78.46,0,0,0,16.66,21.69c14.62,13.21,31.45,17.44,50,12.56,45.66-12,40.29-62.09,40.23-62.59l3.5-.43c.06.54,5.76,53.72-42.85,66.49A59.48,59.48,0,0,1,838.81,1628.93Z"/><path class="cls-32" d="M801.73,1583.22c.52,1.94-11.17,6.71-26.09,10.64s-27.43,5.54-27.94,3.6,11.16-6.71,26.09-10.64S801.22,1581.27,801.73,1583.22Z"/><path class="cls-32" d="M933.53,1548.49c.52,1.94-11.16,6.71-26.09,10.64s-27.43,5.54-27.94,3.6,11.16-6.71,26.09-10.64S933,1546.55,933.53,1548.49Z"/><path class="cls-31" d="M2288.26,1662.38c-54.72-20.35-77-68.61-56.8-123l52.05,19.36c-12.47,33.53,7.78,45.47,24.1,51.54,34.32,12.77,47.75-12,51.94-23.26l52,19.36C2395.57,1649.51,2350.13,1685.39,2288.26,1662.38Z"/><path class="cls-37" d="M2266.69,1641.78c-23.34-16.44-31.08-40.19-33.29-58.46a122.57,122.57,0,0,1,2.48-42.63l3.42.89a121,121,0,0,0-2.36,41.37c3.6,29.63,18.47,50.87,44.2,63.09,27.37,13,54.19,12.77,79.7-.74,21.18-11.22,36.76-29.55,44.28-43l3.08,1.71c-7.77,13.87-23.87,32.82-45.75,44.41-26.18,13.87-54.84,14.15-82.87.82A86.9,86.9,0,0,1,2266.69,1641.78Z"/><path class="cls-37" d="M2275.63,1632.41c-14-9.88-23.25-25.52-27-46.14a128.23,128.23,0,0,1-.55-40.93l3.49.57a126.92,126.92,0,0,0,.56,39.75c5.05,27.45,19.41,45,42.7,52.09,25.74,7.86,49.78,3.48,71.46-13a106,106,0,0,0,25.12-27.47l3.06,1.75a107.85,107.85,0,0,1-26,28.47c-15.59,11.89-41.21,23.92-74.75,13.68A63.67,63.67,0,0,1,2275.63,1632.41Z"/><path class="cls-37" d="M2287.82,1617.63c-30.23-21.29-23.45-62.73-23.37-63.2l3.49.56a78.31,78.31,0,0,0,1.13,27.32c4.34,19.23,15.66,32.37,33.66,39.08,44.23,16.48,68.69-27.55,68.93-28l3.11,1.67c-.26.47-26.23,47.22-73.32,29.67A59.44,59.44,0,0,1,2287.82,1617.63Z"/><path class="cls-32" d="M2283.84,1558.91c-.7,1.88-13-1-27.46-6.33s-25.62-11.27-24.92-13.15,13,1,27.46,6.33S2284.54,1557,2283.84,1558.91Z"/><path class="cls-32" d="M2411.59,1606.43c-.7,1.88-13-1-27.46-6.33s-25.62-11.27-24.92-13.15,13,.94,27.46,6.32S2412.29,1604.54,2411.59,1606.43Z"/><rect class="cls-9" x="149.81" y="1669.47" width="2726.68" height="7.23" rx="3.09"/><path class="cls-14" d="M1909.34,1139.05h-243a9.44,9.44,0,0,1-9.44-9.44h0a9.44,9.44,0,0,1,9.44-9.44h243a9.44,9.44,0,0,1,9.44,9.44h0A9.43,9.43,0,0,1,1909.34,1139.05Z"/></svg>